%TF.GenerationSoftware,KiCad,Pcbnew,(6.0.5-0)*%
%TF.CreationDate,2022-05-11T21:53:48+02:00*%
%TF.ProjectId,diodeplate,64696f64-6570-46c6-9174-652e6b696361,rev?*%
%TF.SameCoordinates,Original*%
%TF.FileFunction,Copper,L1,Top*%
%TF.FilePolarity,Positive*%
%FSLAX46Y46*%
G04 Gerber Fmt 4.6, Leading zero omitted, Abs format (unit mm)*
G04 Created by KiCad (PCBNEW (6.0.5-0)) date 2022-05-11 21:53:48*
%MOMM*%
%LPD*%
G01*
G04 APERTURE LIST*
G04 Aperture macros list*
%AMRoundRect*
0 Rectangle with rounded corners*
0 $1 Rounding radius*
0 $2 $3 $4 $5 $6 $7 $8 $9 X,Y pos of 4 corners*
0 Add a 4 corners polygon primitive as box body*
4,1,4,$2,$3,$4,$5,$6,$7,$8,$9,$2,$3,0*
0 Add four circle primitives for the rounded corners*
1,1,$1+$1,$2,$3*
1,1,$1+$1,$4,$5*
1,1,$1+$1,$6,$7*
1,1,$1+$1,$8,$9*
0 Add four rect primitives between the rounded corners*
20,1,$1+$1,$2,$3,$4,$5,0*
20,1,$1+$1,$4,$5,$6,$7,0*
20,1,$1+$1,$6,$7,$8,$9,0*
20,1,$1+$1,$8,$9,$2,$3,0*%
G04 Aperture macros list end*
%TA.AperFunction,SMDPad,CuDef*%
%ADD10RoundRect,0.237500X-0.300000X-0.237500X0.300000X-0.237500X0.300000X0.237500X-0.300000X0.237500X0*%
%TD*%
%TA.AperFunction,SMDPad,CuDef*%
%ADD11RoundRect,0.237500X0.237500X-0.250000X0.237500X0.250000X-0.237500X0.250000X-0.237500X-0.250000X0*%
%TD*%
%TA.AperFunction,SMDPad,CuDef*%
%ADD12RoundRect,0.237500X0.250000X0.237500X-0.250000X0.237500X-0.250000X-0.237500X0.250000X-0.237500X0*%
%TD*%
%TA.AperFunction,SMDPad,CuDef*%
%ADD13R,1.000000X1.500000*%
%TD*%
%TA.AperFunction,SMDPad,CuDef*%
%ADD14RoundRect,0.237500X0.237500X-0.300000X0.237500X0.300000X-0.237500X0.300000X-0.237500X-0.300000X0*%
%TD*%
%TA.AperFunction,SMDPad,CuDef*%
%ADD15R,3.499213X1.406680*%
%TD*%
%TA.AperFunction,SMDPad,CuDef*%
%ADD16RoundRect,0.237500X-0.237500X0.300000X-0.237500X-0.300000X0.237500X-0.300000X0.237500X0.300000X0*%
%TD*%
%TA.AperFunction,SMDPad,CuDef*%
%ADD17RoundRect,0.237500X-0.250000X-0.237500X0.250000X-0.237500X0.250000X0.237500X-0.250000X0.237500X0*%
%TD*%
%TA.AperFunction,ComponentPad*%
%ADD18O,1.200000X2.200000*%
%TD*%
%TA.AperFunction,ComponentPad*%
%ADD19O,1.200000X1.800000*%
%TD*%
%TA.AperFunction,SMDPad,CuDef*%
%ADD20R,0.300000X1.300000*%
%TD*%
%TA.AperFunction,SMDPad,CuDef*%
%ADD21R,0.600000X1.300000*%
%TD*%
%TA.AperFunction,SMDPad,CuDef*%
%ADD22R,2.470003X0.980010*%
%TD*%
%TA.AperFunction,SMDPad,CuDef*%
%ADD23R,2.470003X3.600000*%
%TD*%
%TA.AperFunction,SMDPad,CuDef*%
%ADD24RoundRect,0.237500X0.300000X0.237500X-0.300000X0.237500X-0.300000X-0.237500X0.300000X-0.237500X0*%
%TD*%
%TA.AperFunction,SMDPad,CuDef*%
%ADD25R,0.600000X0.419990*%
%TD*%
%TA.AperFunction,SMDPad,CuDef*%
%ADD26R,0.990602X0.304801*%
%TD*%
%TA.AperFunction,SMDPad,CuDef*%
%ADD27RoundRect,0.250000X0.550000X-1.412500X0.550000X1.412500X-0.550000X1.412500X-0.550000X-1.412500X0*%
%TD*%
%TA.AperFunction,SMDPad,CuDef*%
%ADD28R,1.500000X0.900000*%
%TD*%
%TA.AperFunction,SMDPad,CuDef*%
%ADD29R,0.280010X0.900000*%
%TD*%
%TA.AperFunction,SMDPad,CuDef*%
%ADD30R,0.900000X0.280010*%
%TD*%
%TA.AperFunction,SMDPad,CuDef*%
%ADD31R,3.300000X3.300000*%
%TD*%
%TA.AperFunction,SMDPad,CuDef*%
%ADD32R,2.000000X0.900000*%
%TD*%
%TA.AperFunction,SMDPad,CuDef*%
%ADD33R,0.900000X2.000000*%
%TD*%
%TA.AperFunction,SMDPad,CuDef*%
%ADD34R,1.330000X1.330000*%
%TD*%
%TA.AperFunction,ViaPad*%
%ADD35C,0.800000*%
%TD*%
%TA.AperFunction,Conductor*%
%ADD36C,1.000000*%
%TD*%
%TA.AperFunction,Conductor*%
%ADD37C,0.600000*%
%TD*%
%TA.AperFunction,Conductor*%
%ADD38C,0.250000*%
%TD*%
%TA.AperFunction,Conductor*%
%ADD39C,0.200000*%
%TD*%
%TA.AperFunction,Conductor*%
%ADD40C,0.350000*%
%TD*%
%TA.AperFunction,Conductor*%
%ADD41C,0.400000*%
%TD*%
G04 APERTURE END LIST*
D10*
%TO.P,C32,1*%
%TO.N,GND*%
X286437500Y-162660000D03*
%TO.P,C32,2*%
%TO.N,+5V*%
X288162500Y-162660000D03*
%TD*%
D11*
%TO.P,R1,1*%
%TO.N,LED DATA OUT*%
X199070000Y-200372500D03*
%TO.P,R1,2*%
%TO.N,Net-(R1-Pad2)*%
X199070000Y-198547500D03*
%TD*%
D12*
%TO.P,R2,1*%
%TO.N,USB-C CC2*%
X215412500Y-208070000D03*
%TO.P,R2,2*%
%TO.N,GND*%
X213587500Y-208070000D03*
%TD*%
D13*
%TO.P,LED9,1,VDD*%
%TO.N,+5V*%
X143513788Y-124700000D03*
%TO.P,LED9,2,DO*%
%TO.N,Net-(LED10-Pad3)*%
X146513534Y-124700000D03*
%TO.P,LED9,3,DI*%
%TO.N,Net-(LED8-Pad2)*%
X143513788Y-119700000D03*
%TO.P,LED9,4,GND*%
%TO.N,GND*%
X146513534Y-119700000D03*
%TD*%
D14*
%TO.P,C28,1*%
%TO.N,GND*%
X279010000Y-106952500D03*
%TO.P,C28,2*%
%TO.N,+5V*%
X279010000Y-105227500D03*
%TD*%
D15*
%TO.P,F1,1,1*%
%TO.N,VBUS*%
X219000000Y-210403442D03*
%TO.P,F1,2,2*%
%TO.N,+5V*%
X219000000Y-206696558D03*
%TD*%
D14*
%TO.P,C26,1*%
%TO.N,GND*%
X260150000Y-84912500D03*
%TO.P,C26,2*%
%TO.N,+5V*%
X260150000Y-83187500D03*
%TD*%
D16*
%TO.P,C39,1*%
%TO.N,IO0*%
X219110000Y-191457500D03*
%TO.P,C39,2*%
%TO.N,GND*%
X219110000Y-193182500D03*
%TD*%
D17*
%TO.P,R4,1*%
%TO.N,Net-(R4-Pad1)*%
X190277500Y-172830064D03*
%TO.P,R4,2*%
%TO.N,RESET*%
X192102500Y-172830064D03*
%TD*%
D16*
%TO.P,C2,1*%
%TO.N,GND*%
X187460000Y-198137500D03*
%TO.P,C2,2*%
%TO.N,+5V*%
X187460000Y-199862500D03*
%TD*%
D13*
%TO.P,LED10,1,VDD*%
%TO.N,+5V*%
X149113788Y-110750000D03*
%TO.P,LED10,2,DO*%
%TO.N,Net-(LED10-Pad2)*%
X152113534Y-110750000D03*
%TO.P,LED10,3,DI*%
%TO.N,Net-(LED10-Pad3)*%
X149113788Y-105750000D03*
%TO.P,LED10,4,GND*%
%TO.N,GND*%
X152113534Y-105750000D03*
%TD*%
D14*
%TO.P,C25,1*%
%TO.N,GND*%
X246960000Y-75392500D03*
%TO.P,C25,2*%
%TO.N,+5V*%
X246960000Y-73667500D03*
%TD*%
%TO.P,C23,1*%
%TO.N,GND*%
X218020000Y-67700000D03*
%TO.P,C23,2*%
%TO.N,+5V*%
X218020000Y-65975000D03*
%TD*%
D13*
%TO.P,LED28,1,VDD*%
%TO.N,+5V*%
X259830000Y-201650000D03*
%TO.P,LED28,2,DO*%
%TO.N,Net-(LED28-Pad2)*%
X256830254Y-201650000D03*
%TO.P,LED28,3,DI*%
%TO.N,Net-(LED27-Pad2)*%
X259830000Y-206650000D03*
%TO.P,LED28,4,GND*%
%TO.N,GND*%
X256830254Y-206650000D03*
%TD*%
%TO.P,LED26,1,VDD*%
%TO.N,+5V*%
X280740000Y-180290000D03*
%TO.P,LED26,2,DO*%
%TO.N,Net-(LED26-Pad2)*%
X277740254Y-180290000D03*
%TO.P,LED26,3,DI*%
%TO.N,Net-(LED25-Pad2)*%
X280740000Y-185290000D03*
%TO.P,LED26,4,GND*%
%TO.N,GND*%
X277740254Y-185290000D03*
%TD*%
D16*
%TO.P,C38,2*%
%TO.N,GND*%
X202570000Y-175632500D03*
%TO.P,C38,1*%
%TO.N,RESET*%
X202570000Y-173907500D03*
%TD*%
D13*
%TO.P,LED2,1,VDD*%
%TO.N,+5V*%
X183310000Y-212610000D03*
%TO.P,LED2,2,DO*%
%TO.N,Net-(LED2-Pad2)*%
X186309746Y-212610000D03*
%TO.P,LED2,3,DI*%
%TO.N,Net-(LED1-Pad2)*%
X183310000Y-207610000D03*
%TO.P,LED2,4,GND*%
%TO.N,GND*%
X186309746Y-207610000D03*
%TD*%
D18*
%TO.P,U3,SHELL,SHELL*%
%TO.N,GND*%
X218470000Y-217110000D03*
D19*
X209829918Y-221290086D03*
D18*
X209829918Y-217110000D03*
D19*
X218470000Y-221290086D03*
D20*
%TO.P,U3,B8,SBU2*%
%TO.N,unconnected-(U3-PadB8)*%
X212399895Y-216367556D03*
%TO.P,U3,B7,DN2*%
%TO.N,USB-C DATA -*%
X213399895Y-216367556D03*
%TO.P,U3,B6,DP2*%
%TO.N,USB-C DATA +*%
X214900023Y-216367556D03*
%TO.P,U3,B5,CC2*%
%TO.N,USB-C CC2*%
X215900023Y-216367556D03*
D21*
%TO.P,U3,B4A9,VBUS*%
%TO.N,VBUS*%
X216550010Y-216367556D03*
%TO.P,U3,B1A12,GND*%
%TO.N,GND*%
X217349857Y-216367556D03*
D20*
%TO.P,U3,A8,SBU1*%
%TO.N,unconnected-(U3-PadA8)*%
X215399895Y-216367556D03*
%TO.P,U3,A7,DN1*%
%TO.N,USB-C DATA -*%
X214399895Y-216367556D03*
%TO.P,U3,A6,DP1*%
%TO.N,USB-C DATA +*%
X213900023Y-216367556D03*
%TO.P,U3,A5,CC1*%
%TO.N,USB-C CC1*%
X212900023Y-216367556D03*
D21*
%TO.P,U3,A4B9,VBUS*%
%TO.N,VBUS*%
X211749908Y-216367556D03*
%TO.P,U3,A1B12,GND*%
%TO.N,GND*%
X210950061Y-216367556D03*
%TD*%
D17*
%TO.P,R6,1*%
%TO.N,RESET*%
X192107500Y-171090128D03*
%TO.P,R6,2*%
%TO.N,+3V3*%
X193932500Y-171090128D03*
%TD*%
D14*
%TO.P,C14,1*%
%TO.N,+5V*%
X228450000Y-201422500D03*
%TO.P,C14,2*%
%TO.N,GND*%
X228450000Y-199697500D03*
%TD*%
D22*
%TO.P,U4,1,GND*%
%TO.N,GND*%
X232115100Y-199700025D03*
%TO.P,U4,2,Vout*%
%TO.N,+3V3*%
X232115100Y-202000000D03*
%TO.P,U4,3,Vin*%
%TO.N,+5V*%
X232115100Y-204299975D03*
D23*
%TO.P,U4,4,Vout*%
%TO.N,+3V3*%
X237784900Y-202000000D03*
%TD*%
D13*
%TO.P,LED15,1,VDD*%
%TO.N,+5V*%
X212143788Y-65720000D03*
%TO.P,LED15,2,DO*%
%TO.N,Net-(LED15-Pad2)*%
X209144042Y-65720000D03*
%TO.P,LED15,3,DI*%
%TO.N,Net-(LED14-Pad2)*%
X212143788Y-70720000D03*
%TO.P,LED15,4,GND*%
%TO.N,GND*%
X209144042Y-70720000D03*
%TD*%
%TO.P,LED20,1,VDD*%
%TO.N,+5V*%
X277903788Y-95580000D03*
%TO.P,LED20,2,DO*%
%TO.N,Net-(LED20-Pad2)*%
X274904042Y-95580000D03*
%TO.P,LED20,3,DI*%
%TO.N,Net-(LED19-Pad2)*%
X277903788Y-100580000D03*
%TO.P,LED20,4,GND*%
%TO.N,GND*%
X274904042Y-100580000D03*
%TD*%
%TO.P,LED29,1,VDD*%
%TO.N,+5V*%
X246570000Y-208790000D03*
%TO.P,LED29,2,DO*%
%TO.N,Net-(LED29-Pad2)*%
X243570254Y-208790000D03*
%TO.P,LED29,3,DI*%
%TO.N,Net-(LED28-Pad2)*%
X246570000Y-213790000D03*
%TO.P,LED29,4,GND*%
%TO.N,GND*%
X243570254Y-213790000D03*
%TD*%
%TO.P,LED16,1,VDD*%
%TO.N,+5V*%
X227193788Y-66050000D03*
%TO.P,LED16,2,DO*%
%TO.N,Net-(LED16-Pad2)*%
X224194042Y-66050000D03*
%TO.P,LED16,3,DI*%
%TO.N,Net-(LED15-Pad2)*%
X227193788Y-71050000D03*
%TO.P,LED16,4,GND*%
%TO.N,GND*%
X224194042Y-71050000D03*
%TD*%
%TO.P,LED4,1,VDD*%
%TO.N,+5V*%
X159470000Y-194790000D03*
%TO.P,LED4,2,DO*%
%TO.N,Net-(LED4-Pad2)*%
X162469746Y-194790000D03*
%TO.P,LED4,3,DI*%
%TO.N,Net-(LED3-Pad2)*%
X159470000Y-189790000D03*
%TO.P,LED4,4,GND*%
%TO.N,GND*%
X162469746Y-189790000D03*
%TD*%
D10*
%TO.P,C34,1*%
%TO.N,GND*%
X273047500Y-188430000D03*
%TO.P,C34,2*%
%TO.N,+5V*%
X274772500Y-188430000D03*
%TD*%
D24*
%TO.P,C18,1*%
%TO.N,GND*%
X157322500Y-101870000D03*
%TO.P,C18,2*%
%TO.N,+5V*%
X155597500Y-101870000D03*
%TD*%
D25*
%TO.P,U5,1,E*%
%TO.N,RTS*%
X227037111Y-184276869D03*
%TO.P,U5,2,B*%
%TO.N,DTR*%
X227037111Y-184926856D03*
%TO.P,U5,3,C*%
%TO.N,IO0*%
X227037111Y-185576843D03*
%TO.P,U5,4,E*%
%TO.N,DTR*%
X228937035Y-185576843D03*
%TO.P,U5,5,B*%
%TO.N,RTS*%
X228937035Y-184926856D03*
%TO.P,U5,6,C*%
%TO.N,RESET*%
X228937035Y-184276869D03*
%TD*%
D10*
%TO.P,C30,1*%
%TO.N,GND*%
X289127500Y-132050000D03*
%TO.P,C30,2*%
%TO.N,+5V*%
X290852500Y-132050000D03*
%TD*%
D24*
%TO.P,C8,1*%
%TO.N,GND*%
X150862500Y-173330000D03*
%TO.P,C8,2*%
%TO.N,+5V*%
X149137500Y-173330000D03*
%TD*%
D10*
%TO.P,C35,1*%
%TO.N,GND*%
X261600000Y-199200000D03*
%TO.P,C35,2*%
%TO.N,+5V*%
X263325000Y-199200000D03*
%TD*%
D24*
%TO.P,C19,1*%
%TO.N,GND*%
X167562500Y-91090000D03*
%TO.P,C19,2*%
%TO.N,+5V*%
X165837500Y-91090000D03*
%TD*%
D13*
%TO.P,LED6,1,VDD*%
%TO.N,+5V*%
X144533788Y-169040000D03*
%TO.P,LED6,2,DO*%
%TO.N,Net-(LED6-Pad2)*%
X147533534Y-169040000D03*
%TO.P,LED6,3,DI*%
%TO.N,Net-(LED5-Pad2)*%
X144533788Y-164040000D03*
%TO.P,LED6,4,GND*%
%TO.N,GND*%
X147533534Y-164040000D03*
%TD*%
D26*
%TO.P,U6,1,1A*%
%TO.N,IO16{slash}LED1*%
X195514195Y-199815308D03*
%TO.P,U6,2,1B*%
%TO.N,GND*%
X195514195Y-199165321D03*
%TO.P,U6,3,1Y*%
%TO.N,Net-(R1-Pad2)*%
X195514195Y-198515333D03*
%TO.P,U6,4,2A*%
%TO.N,GND*%
X195514195Y-197865346D03*
%TO.P,U6,5,2B*%
X195514195Y-197215359D03*
%TO.P,U6,6,2Y*%
X195514195Y-196565371D03*
%TO.P,U6,7,GND*%
X195514195Y-195915384D03*
%TO.P,U6,8,3Y*%
X189664055Y-195915384D03*
%TO.P,U6,9,3A*%
X189664055Y-196565371D03*
%TO.P,U6,10,3B*%
X189664055Y-197215359D03*
%TO.P,U6,11,4Y*%
X189664055Y-197865346D03*
%TO.P,U6,12,4A*%
X189664055Y-198515333D03*
%TO.P,U6,13,4B*%
X189664055Y-199165321D03*
%TO.P,U6,14,VCC*%
%TO.N,+5V*%
X189664055Y-199815308D03*
%TD*%
D13*
%TO.P,LED22,1,VDD*%
%TO.N,+5V*%
X290553788Y-122660000D03*
%TO.P,LED22,2,DO*%
%TO.N,Net-(LED22-Pad2)*%
X287554042Y-122660000D03*
%TO.P,LED22,3,DI*%
%TO.N,Net-(LED21-Pad2)*%
X290553788Y-127660000D03*
%TO.P,LED22,4,GND*%
%TO.N,GND*%
X287554042Y-127660000D03*
%TD*%
D24*
%TO.P,C11,1*%
%TO.N,GND*%
X146332500Y-129480000D03*
%TO.P,C11,2*%
%TO.N,+5V*%
X144607500Y-129480000D03*
%TD*%
D14*
%TO.P,C22,1*%
%TO.N,GND*%
X203010000Y-66942500D03*
%TO.P,C22,2*%
%TO.N,+5V*%
X203010000Y-65217500D03*
%TD*%
D10*
%TO.P,C29,1*%
%TO.N,GND*%
X286217500Y-118240000D03*
%TO.P,C29,2*%
%TO.N,+5V*%
X287942500Y-118240000D03*
%TD*%
D27*
%TO.P,C16,1*%
%TO.N,+5V*%
X219090000Y-202177500D03*
%TO.P,C16,2*%
%TO.N,GND*%
X219090000Y-197102500D03*
%TD*%
D13*
%TO.P,LED8,1,VDD*%
%TO.N,+5V*%
X140843788Y-139430000D03*
%TO.P,LED8,2,DO*%
%TO.N,Net-(LED8-Pad2)*%
X143843534Y-139430000D03*
%TO.P,LED8,3,DI*%
%TO.N,Net-(LED7-Pad2)*%
X140843788Y-134430000D03*
%TO.P,LED8,4,GND*%
%TO.N,GND*%
X143843534Y-134430000D03*
%TD*%
D16*
%TO.P,C37,1*%
%TO.N,GND*%
X235340000Y-210257500D03*
%TO.P,C37,2*%
%TO.N,+5V*%
X235340000Y-211982500D03*
%TD*%
%TO.P,C5,1*%
%TO.N,GND*%
X177380000Y-206087500D03*
%TO.P,C5,2*%
%TO.N,+5V*%
X177380000Y-207812500D03*
%TD*%
D10*
%TO.P,C31,1*%
%TO.N,GND*%
X289547500Y-148260000D03*
%TO.P,C31,2*%
%TO.N,+5V*%
X291272500Y-148260000D03*
%TD*%
D28*
%TO.P,SW3,1,1*%
%TO.N,GND*%
X184380076Y-177420000D03*
X188179924Y-177420000D03*
%TO.P,SW3,2,2*%
%TO.N,IO33{slash}MAINBUTTON*%
X188179924Y-178920128D03*
X184380076Y-178920128D03*
%TD*%
D14*
%TO.P,C24,1*%
%TO.N,GND*%
X232360000Y-69522500D03*
%TO.P,C24,2*%
%TO.N,+5V*%
X232360000Y-67797500D03*
%TD*%
D13*
%TO.P,LED13,1,VDD*%
%TO.N,+5V*%
X180403788Y-79380000D03*
%TO.P,LED13,2,DO*%
%TO.N,Net-(LED13-Pad2)*%
X183403534Y-79380000D03*
%TO.P,LED13,3,DI*%
%TO.N,Net-(LED12-Pad2)*%
X180403788Y-74380000D03*
%TO.P,LED13,4,GND*%
%TO.N,GND*%
X183403534Y-74380000D03*
%TD*%
D24*
%TO.P,C9,1*%
%TO.N,GND*%
X146582500Y-158700000D03*
%TO.P,C9,2*%
%TO.N,+5V*%
X144857500Y-158700000D03*
%TD*%
D13*
%TO.P,LED11,1,VDD*%
%TO.N,+5V*%
X157373788Y-98220000D03*
%TO.P,LED11,2,DO*%
%TO.N,Net-(LED11-Pad2)*%
X160373534Y-98220000D03*
%TO.P,LED11,3,DI*%
%TO.N,Net-(LED10-Pad2)*%
X157373788Y-93220000D03*
%TO.P,LED11,4,GND*%
%TO.N,GND*%
X160373534Y-93220000D03*
%TD*%
D12*
%TO.P,R3,1*%
%TO.N,USB-C CC1*%
X212262500Y-206300000D03*
%TO.P,R3,2*%
%TO.N,GND*%
X210437500Y-206300000D03*
%TD*%
D16*
%TO.P,C36,1*%
%TO.N,GND*%
X248770000Y-205747500D03*
%TO.P,C36,2*%
%TO.N,+5V*%
X248770000Y-207472500D03*
%TD*%
D17*
%TO.P,R5,1*%
%TO.N,Net-(R5-Pad1)*%
X190304924Y-184770000D03*
%TO.P,R5,2*%
%TO.N,IO0*%
X192129924Y-184770000D03*
%TD*%
D29*
%TO.P,U2,1,DCD*%
%TO.N,unconnected-(U2-Pad1)*%
X232888730Y-185624879D03*
%TO.P,U2,2,RI*%
%TO.N,unconnected-(U2-Pad2)*%
X233389111Y-185624879D03*
%TO.P,U2,3,GND*%
%TO.N,GND*%
X233889492Y-185624879D03*
%TO.P,U2,4,D+*%
%TO.N,USB-C DATA +*%
X234389873Y-185624879D03*
%TO.P,U2,5,D-*%
%TO.N,USB-C DATA -*%
X234890254Y-185624879D03*
%TO.P,U2,6,VDD*%
%TO.N,+3V3*%
X235390635Y-185624879D03*
%TO.P,U2,7,REGIN*%
X235891016Y-185624879D03*
D30*
%TO.P,U2,8,VBUS*%
%TO.N,+5V*%
X236890000Y-184626149D03*
%TO.P,U2,9,~{RST}*%
%TO.N,unconnected-(U2-Pad9)*%
X236890000Y-184125768D03*
%TO.P,U2,10,NC*%
%TO.N,unconnected-(U2-Pad10)*%
X236890000Y-183625387D03*
%TO.P,U2,11,~{SUSPEND}*%
%TO.N,unconnected-(U2-Pad11)*%
X236890000Y-183125006D03*
%TO.P,U2,12,SUSPEND*%
%TO.N,unconnected-(U2-Pad12)*%
X236890000Y-182624625D03*
%TO.P,U2,13,NC*%
%TO.N,unconnected-(U2-Pad13)*%
X236890000Y-182124244D03*
%TO.P,U2,14,NC*%
%TO.N,unconnected-(U2-Pad14)*%
X236890000Y-181623863D03*
D29*
%TO.P,U2,15,NC*%
%TO.N,unconnected-(U2-Pad15)*%
X235891016Y-180624879D03*
%TO.P,U2,16,NC*%
%TO.N,unconnected-(U2-Pad16)*%
X235390635Y-180624879D03*
%TO.P,U2,17,NC*%
%TO.N,unconnected-(U2-Pad17)*%
X234890254Y-180624879D03*
%TO.P,U2,18,NC*%
%TO.N,unconnected-(U2-Pad18)*%
X234389873Y-180624879D03*
%TO.P,U2,19,NC*%
%TO.N,unconnected-(U2-Pad19)*%
X233889492Y-180624879D03*
%TO.P,U2,20,NC*%
%TO.N,unconnected-(U2-Pad20)*%
X233389111Y-180624879D03*
%TO.P,U2,21,NC*%
%TO.N,unconnected-(U2-Pad21)*%
X232888730Y-180624879D03*
D30*
%TO.P,U2,22,NC*%
%TO.N,unconnected-(U2-Pad22)*%
X231890000Y-181623863D03*
%TO.P,U2,23,CTS*%
%TO.N,unconnected-(U2-Pad23)*%
X231890000Y-182124244D03*
%TO.P,U2,24,RTS*%
%TO.N,unconnected-(U2-Pad24)*%
X231890000Y-182624625D03*
%TO.P,U2,25,RXD*%
%TO.N,TXD*%
X231890000Y-183125006D03*
%TO.P,U2,26,TXD*%
%TO.N,RXD*%
X231890000Y-183625387D03*
%TO.P,U2,27,DSR*%
%TO.N,RTS*%
X231890000Y-184125768D03*
%TO.P,U2,28,DTR*%
%TO.N,DTR*%
X231890000Y-184626149D03*
D31*
%TO.P,U2,29,GND_PAD*%
%TO.N,unconnected-(U2-Pad29)*%
X234389873Y-183125006D03*
%TD*%
D13*
%TO.P,LED18,1,VDD*%
%TO.N,+5V*%
X255573788Y-75590000D03*
%TO.P,LED18,2,DO*%
%TO.N,Net-(LED18-Pad2)*%
X252574042Y-75590000D03*
%TO.P,LED18,3,DI*%
%TO.N,Net-(LED17-Pad2)*%
X255573788Y-80590000D03*
%TO.P,LED18,4,GND*%
%TO.N,GND*%
X252574042Y-80590000D03*
%TD*%
%TO.P,LED7,1,VDD*%
%TO.N,+5V*%
X141190000Y-154450000D03*
%TO.P,LED7,2,DO*%
%TO.N,Net-(LED7-Pad2)*%
X144189746Y-154450000D03*
%TO.P,LED7,3,DI*%
%TO.N,Net-(LED6-Pad2)*%
X141190000Y-149450000D03*
%TO.P,LED7,4,GND*%
%TO.N,GND*%
X144189746Y-149450000D03*
%TD*%
%TO.P,LED30,1,VDD*%
%TO.N,+5V*%
X232110000Y-213120000D03*
%TO.P,LED30,2,DO*%
%TO.N,unconnected-(LED30-Pad2)*%
X229110254Y-213120000D03*
%TO.P,LED30,3,DI*%
%TO.N,Net-(LED29-Pad2)*%
X232110000Y-218120000D03*
%TO.P,LED30,4,GND*%
%TO.N,GND*%
X229110254Y-218120000D03*
%TD*%
%TO.P,LED3,1,VDD*%
%TO.N,+5V*%
X170413788Y-204840000D03*
%TO.P,LED3,2,DO*%
%TO.N,Net-(LED3-Pad2)*%
X173413534Y-204840000D03*
%TO.P,LED3,3,DI*%
%TO.N,Net-(LED2-Pad2)*%
X170413788Y-199840000D03*
%TO.P,LED3,4,GND*%
%TO.N,GND*%
X173413534Y-199840000D03*
%TD*%
D14*
%TO.P,C27,1*%
%TO.N,GND*%
X271210000Y-94892500D03*
%TO.P,C27,2*%
%TO.N,+5V*%
X271210000Y-93167500D03*
%TD*%
D13*
%TO.P,LED23,1,VDD*%
%TO.N,+5V*%
X292540000Y-137510000D03*
%TO.P,LED23,2,DO*%
%TO.N,Net-(LED23-Pad2)*%
X289540254Y-137510000D03*
%TO.P,LED23,3,DI*%
%TO.N,Net-(LED22-Pad2)*%
X292540000Y-142510000D03*
%TO.P,LED23,4,GND*%
%TO.N,GND*%
X289540254Y-142510000D03*
%TD*%
D28*
%TO.P,SW1,1,1*%
%TO.N,GND*%
X184340076Y-171400000D03*
X188139924Y-171400000D03*
%TO.P,SW1,2,2*%
%TO.N,Net-(R4-Pad1)*%
X184340076Y-172900128D03*
X188139924Y-172900128D03*
%TD*%
D13*
%TO.P,LED17,1,VDD*%
%TO.N,+5V*%
X241863788Y-69390000D03*
%TO.P,LED17,2,DO*%
%TO.N,Net-(LED17-Pad2)*%
X238864042Y-69390000D03*
%TO.P,LED17,3,DI*%
%TO.N,Net-(LED16-Pad2)*%
X241863788Y-74390000D03*
%TO.P,LED17,4,GND*%
%TO.N,GND*%
X238864042Y-74390000D03*
%TD*%
D32*
%TO.P,U1,1,GND*%
%TO.N,GND*%
X205697900Y-169614850D03*
%TO.P,U1,2,3V3*%
%TO.N,+3V3*%
X205697900Y-170884850D03*
%TO.P,U1,3,EN*%
%TO.N,RESET*%
X205697900Y-172154850D03*
%TO.P,U1,4,SENSOR_VP*%
%TO.N,unconnected-(U1-Pad4)*%
X205697900Y-173424850D03*
%TO.P,U1,5,SENSOR_VN*%
%TO.N,unconnected-(U1-Pad5)*%
X205697900Y-174694850D03*
%TO.P,U1,6,I34*%
%TO.N,unconnected-(U1-Pad6)*%
X205697900Y-175964850D03*
%TO.P,U1,7,I35*%
%TO.N,unconnected-(U1-Pad7)*%
X205697900Y-177234850D03*
%TO.P,U1,8,IO32*%
%TO.N,unconnected-(U1-Pad8)*%
X205697900Y-178504850D03*
%TO.P,U1,9,IO33*%
%TO.N,IO33{slash}MAINBUTTON*%
X205697900Y-179774850D03*
%TO.P,U1,10,IO25*%
%TO.N,unconnected-(U1-Pad10)*%
X205697900Y-181044850D03*
%TO.P,U1,11,IO26*%
%TO.N,unconnected-(U1-Pad11)*%
X205697900Y-182314850D03*
%TO.P,U1,12,IO27*%
%TO.N,unconnected-(U1-Pad12)*%
X205697900Y-183584850D03*
%TO.P,U1,13,IO14*%
%TO.N,unconnected-(U1-Pad13)*%
X205697900Y-184854850D03*
%TO.P,U1,14,IO12*%
%TO.N,unconnected-(U1-Pad14)*%
X205697900Y-186124850D03*
D33*
%TO.P,U1,15,GND*%
%TO.N,GND*%
X208482900Y-187124850D03*
%TO.P,U1,16,IO13*%
%TO.N,unconnected-(U1-Pad16)*%
X209752900Y-187124850D03*
%TO.P,U1,17,NC*%
%TO.N,unconnected-(U1-Pad17)*%
X211022900Y-187124850D03*
%TO.P,U1,18,NC*%
%TO.N,unconnected-(U1-Pad18)*%
X212292900Y-187124850D03*
%TO.P,U1,19,NC*%
%TO.N,unconnected-(U1-Pad19)*%
X213562900Y-187124850D03*
%TO.P,U1,20,NC*%
%TO.N,unconnected-(U1-Pad20)*%
X214832900Y-187124850D03*
%TO.P,U1,21,NC*%
%TO.N,unconnected-(U1-Pad21)*%
X216102900Y-187124850D03*
%TO.P,U1,22,NC*%
%TO.N,unconnected-(U1-Pad22)*%
X217372900Y-187124850D03*
%TO.P,U1,23,IO15*%
%TO.N,unconnected-(U1-Pad23)*%
X218642900Y-187124850D03*
%TO.P,U1,24,IO2*%
%TO.N,unconnected-(U1-Pad24)*%
X219912900Y-187124850D03*
D32*
%TO.P,U1,25,IO0*%
%TO.N,IO0*%
X222697900Y-186124850D03*
%TO.P,U1,26,IO4*%
%TO.N,unconnected-(U1-Pad26)*%
X222697900Y-184854850D03*
%TO.P,U1,27,IO16*%
%TO.N,IO16{slash}LED1*%
X222697900Y-183584850D03*
%TO.P,U1,28,IO17*%
%TO.N,unconnected-(U1-Pad28)*%
X222697900Y-182314850D03*
%TO.P,U1,29,IO5*%
%TO.N,unconnected-(U1-Pad29)*%
X222697900Y-181044850D03*
%TO.P,U1,30,IO18*%
%TO.N,unconnected-(U1-Pad30)*%
X222697900Y-179774850D03*
%TO.P,U1,31,IO19*%
%TO.N,unconnected-(U1-Pad31)*%
X222697900Y-178504850D03*
%TO.P,U1,32,NC1*%
%TO.N,unconnected-(U1-Pad32)*%
X222697900Y-177234850D03*
%TO.P,U1,33,IO21*%
%TO.N,unconnected-(U1-Pad33)*%
X222697900Y-175964850D03*
%TO.P,U1,34,RXD0*%
%TO.N,RXD*%
X222697900Y-174694850D03*
%TO.P,U1,35,TXD0*%
%TO.N,TXD*%
X222697900Y-173424850D03*
%TO.P,U1,36,IO22*%
%TO.N,unconnected-(U1-Pad36)*%
X222697900Y-172154850D03*
%TO.P,U1,37,IO23*%
%TO.N,unconnected-(U1-Pad37)*%
X222697900Y-170884850D03*
%TO.P,U1,38,GND*%
%TO.N,GND*%
X222697900Y-169614850D03*
D34*
%TO.P,U1,39,GND*%
X213197900Y-175279850D03*
X211362900Y-178949850D03*
X215032900Y-178949850D03*
X211362900Y-175279850D03*
X211362900Y-177114850D03*
X215032900Y-177114850D03*
X213197900Y-177114850D03*
X213197900Y-178949850D03*
X215032900Y-175279850D03*
%TD*%
D16*
%TO.P,C4,1*%
%TO.N,GND*%
X189030000Y-208607500D03*
%TO.P,C4,2*%
%TO.N,+5V*%
X189030000Y-210332500D03*
%TD*%
D13*
%TO.P,LED1,1,VDD*%
%TO.N,+5V*%
X197523788Y-217650000D03*
%TO.P,LED1,2,DO*%
%TO.N,Net-(LED1-Pad2)*%
X200523534Y-217650000D03*
%TO.P,LED1,3,DI*%
%TO.N,LED DATA OUT*%
X197523788Y-212650000D03*
%TO.P,LED1,4,GND*%
%TO.N,GND*%
X200523534Y-212650000D03*
%TD*%
%TO.P,LED12,1,VDD*%
%TO.N,+5V*%
X167870000Y-87640000D03*
%TO.P,LED12,2,DO*%
%TO.N,Net-(LED12-Pad2)*%
X170869746Y-87640000D03*
%TO.P,LED12,3,DI*%
%TO.N,Net-(LED11-Pad2)*%
X167870000Y-82640000D03*
%TO.P,LED12,4,GND*%
%TO.N,GND*%
X170869746Y-82640000D03*
%TD*%
D28*
%TO.P,SW2,1,1*%
%TO.N,GND*%
X184400076Y-183300000D03*
X188199924Y-183300000D03*
%TO.P,SW2,2,2*%
%TO.N,Net-(R5-Pad1)*%
X188199924Y-184800128D03*
X184400076Y-184800128D03*
%TD*%
D16*
%TO.P,C3,1*%
%TO.N,GND*%
X203243788Y-213667500D03*
%TO.P,C3,2*%
%TO.N,+5V*%
X203243788Y-215392500D03*
%TD*%
D13*
%TO.P,LED19,1,VDD*%
%TO.N,+5V*%
X267703788Y-84410000D03*
%TO.P,LED19,2,DO*%
%TO.N,Net-(LED19-Pad2)*%
X264704042Y-84410000D03*
%TO.P,LED19,3,DI*%
%TO.N,Net-(LED18-Pad2)*%
X267703788Y-89410000D03*
%TO.P,LED19,4,GND*%
%TO.N,GND*%
X264704042Y-89410000D03*
%TD*%
%TO.P,LED27,1,VDD*%
%TO.N,+5V*%
X271380000Y-192000000D03*
%TO.P,LED27,2,DO*%
%TO.N,Net-(LED27-Pad2)*%
X268380254Y-192000000D03*
%TO.P,LED27,3,DI*%
%TO.N,Net-(LED26-Pad2)*%
X271380000Y-197000000D03*
%TO.P,LED27,4,GND*%
%TO.N,GND*%
X268380254Y-197000000D03*
%TD*%
D16*
%TO.P,C6,1*%
%TO.N,GND*%
X166020000Y-195927500D03*
%TO.P,C6,2*%
%TO.N,+5V*%
X166020000Y-197652500D03*
%TD*%
D24*
%TO.P,C7,1*%
%TO.N,GND*%
X157652500Y-185750000D03*
%TO.P,C7,2*%
%TO.N,+5V*%
X155927500Y-185750000D03*
%TD*%
D13*
%TO.P,LED24,1,VDD*%
%TO.N,+5V*%
X291533788Y-152380000D03*
%TO.P,LED24,2,DO*%
%TO.N,Net-(LED24-Pad2)*%
X288534042Y-152380000D03*
%TO.P,LED24,3,DI*%
%TO.N,Net-(LED23-Pad2)*%
X291533788Y-157380000D03*
%TO.P,LED24,4,GND*%
%TO.N,GND*%
X288534042Y-157380000D03*
%TD*%
D10*
%TO.P,C15,2*%
%TO.N,+3V3*%
X236212500Y-196550000D03*
%TO.P,C15,1*%
%TO.N,GND*%
X234487500Y-196550000D03*
%TD*%
D24*
%TO.P,C10,1*%
%TO.N,GND*%
X144122500Y-144730000D03*
%TO.P,C10,2*%
%TO.N,+5V*%
X142397500Y-144730000D03*
%TD*%
%TO.P,C20,1*%
%TO.N,GND*%
X174902500Y-79670000D03*
%TO.P,C20,2*%
%TO.N,+5V*%
X173177500Y-79670000D03*
%TD*%
D13*
%TO.P,LED21,1,VDD*%
%TO.N,+5V*%
X285583788Y-108440000D03*
%TO.P,LED21,2,DO*%
%TO.N,Net-(LED21-Pad2)*%
X282584042Y-108440000D03*
%TO.P,LED21,3,DI*%
%TO.N,Net-(LED20-Pad2)*%
X285583788Y-113440000D03*
%TO.P,LED21,4,GND*%
%TO.N,GND*%
X282584042Y-113440000D03*
%TD*%
D14*
%TO.P,C1,1*%
%TO.N,+3V3*%
X200655600Y-171438800D03*
%TO.P,C1,2*%
%TO.N,GND*%
X200655600Y-169713800D03*
%TD*%
D13*
%TO.P,LED14,1,VDD*%
%TO.N,+5V*%
X194313788Y-73730000D03*
%TO.P,LED14,2,DO*%
%TO.N,Net-(LED14-Pad2)*%
X197313534Y-73730000D03*
%TO.P,LED14,3,DI*%
%TO.N,Net-(LED13-Pad2)*%
X194313788Y-68730000D03*
%TO.P,LED14,4,GND*%
%TO.N,GND*%
X197313534Y-68730000D03*
%TD*%
%TO.P,LED5,1,VDD*%
%TO.N,+5V*%
X150710000Y-182710000D03*
%TO.P,LED5,2,DO*%
%TO.N,Net-(LED5-Pad2)*%
X153709746Y-182710000D03*
%TO.P,LED5,3,DI*%
%TO.N,Net-(LED4-Pad2)*%
X150710000Y-177710000D03*
%TO.P,LED5,4,GND*%
%TO.N,GND*%
X153709746Y-177710000D03*
%TD*%
D10*
%TO.P,C12,1*%
%TO.N,GND*%
X234237500Y-190680000D03*
%TO.P,C12,2*%
%TO.N,+3V3*%
X235962500Y-190680000D03*
%TD*%
%TO.P,C33,1*%
%TO.N,GND*%
X280747500Y-176130000D03*
%TO.P,C33,2*%
%TO.N,+5V*%
X282472500Y-176130000D03*
%TD*%
D24*
%TO.P,C17,1*%
%TO.N,GND*%
X150162500Y-115630000D03*
%TO.P,C17,2*%
%TO.N,+5V*%
X148437500Y-115630000D03*
%TD*%
D17*
%TO.P,R7,1*%
%TO.N,IO0*%
X192167500Y-183050000D03*
%TO.P,R7,2*%
%TO.N,+3V3*%
X193992500Y-183050000D03*
%TD*%
D24*
%TO.P,C21,1*%
%TO.N,GND*%
X195812500Y-76270000D03*
%TO.P,C21,2*%
%TO.N,+5V*%
X194087500Y-76270000D03*
%TD*%
D13*
%TO.P,LED25,1,VDD*%
%TO.N,+5V*%
X287570000Y-166870000D03*
%TO.P,LED25,2,DO*%
%TO.N,Net-(LED25-Pad2)*%
X284570254Y-166870000D03*
%TO.P,LED25,3,DI*%
%TO.N,Net-(LED24-Pad2)*%
X287570000Y-171870000D03*
%TO.P,LED25,4,GND*%
%TO.N,GND*%
X284570254Y-171870000D03*
%TD*%
D35*
%TO.N,+5V*%
X238313851Y-184626149D03*
X193660000Y-211070000D03*
X185420000Y-199830000D03*
%TO.N,LED DATA OUT*%
X199080000Y-201980000D03*
X196630000Y-211040000D03*
%TO.N,IO16{slash}LED1*%
X197170000Y-199830000D03*
X225280000Y-184650000D03*
%TO.N,+3V3*%
X197520000Y-183060000D03*
%TO.N,GND*%
X201000000Y-175800000D03*
%TO.N,RESET*%
X203230000Y-172160000D03*
X225900000Y-183070000D03*
%TO.N,+3V3*%
X197890000Y-171410000D03*
%TO.N,GND*%
X197960000Y-169510000D03*
%TO.N,+3V3*%
X237390000Y-186940000D03*
%TO.N,GND*%
X231960000Y-186980000D03*
%TO.N,USB-C DATA +*%
X234390000Y-186870000D03*
%TO.N,USB-C DATA -*%
X234920000Y-187820000D03*
%TO.N,VBUS*%
X218690000Y-212320000D03*
X211340000Y-212810000D03*
%TO.N,+5V*%
X234350000Y-213820000D03*
X225900000Y-204920000D03*
X221140000Y-204920000D03*
%TO.N,Net-(LED1-Pad2)*%
X201830000Y-218940000D03*
X181010000Y-208290000D03*
%TO.N,Net-(LED2-Pad2)*%
X187570000Y-213880000D03*
X168730000Y-198910000D03*
%TO.N,Net-(LED3-Pad2)*%
X159260000Y-188370000D03*
X174330000Y-206270000D03*
%TO.N,Net-(LED4-Pad2)*%
X162880000Y-196170000D03*
X149710000Y-176520000D03*
%TO.N,Net-(LED5-Pad2)*%
X144940000Y-162820000D03*
X155270000Y-183540000D03*
%TO.N,Net-(LED6-Pad2)*%
X140970000Y-147870000D03*
X148400000Y-169950000D03*
%TO.N,Net-(LED7-Pad2)*%
X140757464Y-133147464D03*
X144830000Y-155880000D03*
%TO.N,Net-(LED8-Pad2)*%
X143890000Y-118250000D03*
X143890000Y-140870000D03*
%TO.N,Net-(LED10-Pad3)*%
X146520000Y-126250000D03*
X149060000Y-104340000D03*
%TO.N,Net-(LED10-Pad2)*%
X156330000Y-92200000D03*
X151040000Y-112020000D03*
%TO.N,Net-(LED11-Pad2)*%
X166130000Y-82440000D03*
X159350000Y-99330000D03*
%TO.N,Net-(LED12-Pad2)*%
X178630000Y-74040000D03*
X169680000Y-88730000D03*
%TO.N,Net-(LED13-Pad2)*%
X182220000Y-80370000D03*
X192720000Y-68390000D03*
%TO.N,Net-(LED14-Pad2)*%
X212130000Y-72140000D03*
X196145000Y-74585000D03*
%TO.N,Net-(LED15-Pad2)*%
X227210000Y-72320000D03*
X207450000Y-65720000D03*
%TO.N,Net-(LED16-Pad2)*%
X244370000Y-74760000D03*
X222320000Y-66640000D03*
%TO.N,Net-(LED17-Pad2)*%
X256284485Y-82745515D03*
X236950000Y-69390000D03*
%TO.N,Net-(LED18-Pad2)*%
X250310000Y-75340000D03*
X268180000Y-91080000D03*
%TO.N,Net-(LED19-Pad2)*%
X262850000Y-83150000D03*
X277010000Y-103600000D03*
%TO.N,Net-(LED20-Pad2)*%
X286710000Y-115170000D03*
X272980000Y-94800000D03*
%TO.N,Net-(LED21-Pad2)*%
X281450000Y-106900000D03*
X288890000Y-129100000D03*
%TO.N,Net-(LED22-Pad2)*%
X288410000Y-120600000D03*
X293360500Y-144120000D03*
%TO.N,Net-(LED23-Pad2)*%
X290470000Y-159450000D03*
X289540000Y-135490000D03*
%TO.N,Net-(LED24-Pad2)*%
X287670000Y-173600000D03*
X289060000Y-150520000D03*
%TO.N,Net-(LED25-Pad2)*%
X280890000Y-187320000D03*
X286210000Y-165060000D03*
%TO.N,Net-(LED26-Pad2)*%
X279290000Y-178500000D03*
X272870000Y-198080000D03*
%TO.N,Net-(LED27-Pad2)*%
X269710000Y-190410000D03*
X260920000Y-207840000D03*
%TO.N,Net-(LED28-Pad2)*%
X247900000Y-214710000D03*
X258280000Y-200480000D03*
%TO.N,Net-(LED29-Pad2)*%
X245210000Y-207260000D03*
X233560000Y-219150000D03*
%TO.N,USB-C DATA -*%
X214400000Y-211210000D03*
%TO.N,USB-C DATA +*%
X212710000Y-211070000D03*
X213910000Y-212580000D03*
%TD*%
D36*
%TO.N,GND*%
X219660000Y-215210000D02*
X218470000Y-216400000D01*
X223440000Y-211430000D02*
X219660000Y-215210000D01*
X219660000Y-215210000D02*
X218502444Y-216367556D01*
X218502444Y-216367556D02*
X217549521Y-216367556D01*
X218470000Y-216400000D02*
X218470000Y-217110000D01*
D37*
%TO.N,VBUS*%
X216560051Y-214499964D02*
X216550346Y-214509669D01*
X216550346Y-214509669D02*
X216550346Y-215710000D01*
D38*
%TO.N,USB-C CC2*%
X215412500Y-208070000D02*
X215540000Y-208197500D01*
X215540000Y-212777256D02*
X215910064Y-213147320D01*
X215910064Y-213147320D02*
X215910064Y-214499964D01*
X215900023Y-214489923D02*
X215900023Y-216367556D01*
X215910064Y-214499964D02*
X215900023Y-214489923D01*
X215540000Y-208197500D02*
X215540000Y-212777256D01*
D39*
%TO.N,USB-C DATA +*%
X214910064Y-214159936D02*
X214910064Y-213600814D01*
X214910064Y-214499964D02*
X214910064Y-214159936D01*
X214910064Y-214159936D02*
X214900023Y-214169977D01*
X214900023Y-214169977D02*
X214900023Y-216367556D01*
%TO.N,USB-C DATA -*%
X214409936Y-214320064D02*
X214409936Y-213069323D01*
X214409936Y-214499964D02*
X214409936Y-214320064D01*
X214409936Y-214320064D02*
X214399895Y-214330105D01*
X214399895Y-214330105D02*
X214399895Y-216367556D01*
%TO.N,USB-C DATA +*%
X213910064Y-214390064D02*
X213910064Y-212580064D01*
X213910064Y-214499964D02*
X213910064Y-214390064D01*
X213910064Y-214390064D02*
X213900023Y-214400105D01*
X213900023Y-214400105D02*
X213900023Y-216367556D01*
%TO.N,USB-C DATA -*%
X213409936Y-214499964D02*
X213399895Y-214510005D01*
X213399895Y-214510005D02*
X213399895Y-216367556D01*
D38*
%TO.N,USB-C CC1*%
X212910064Y-214499964D02*
X212900023Y-214510005D01*
X212900023Y-214510005D02*
X212900023Y-216367556D01*
D37*
%TO.N,VBUS*%
X211759949Y-214499964D02*
X211749572Y-214510341D01*
X211749572Y-214510341D02*
X211749572Y-215650428D01*
D38*
%TO.N,GND*%
X210960102Y-214499964D02*
X210950061Y-214510005D01*
X210950061Y-214510005D02*
X210950061Y-216367556D01*
%TO.N,+5V*%
X236890000Y-184626149D02*
X238313851Y-184626149D01*
X238320000Y-184620000D02*
X238313851Y-184626149D01*
D36*
X190206288Y-210332500D02*
X192296894Y-212423106D01*
X192296894Y-212423106D02*
X197523788Y-217650000D01*
D38*
X193660000Y-211070000D02*
X193650000Y-211070000D01*
X193650000Y-211070000D02*
X192296894Y-212423106D01*
X185452500Y-199862500D02*
X185420000Y-199830000D01*
X187460000Y-199862500D02*
X185452500Y-199862500D01*
D36*
%TO.N,GND*%
X173413534Y-199840000D02*
X171851767Y-198278233D01*
X171851767Y-198278233D02*
X169501034Y-195927500D01*
D38*
X171992500Y-198137500D02*
X171851767Y-198278233D01*
X187460000Y-198137500D02*
X171992500Y-198137500D01*
%TO.N,LED DATA OUT*%
X199080000Y-201980000D02*
X199080000Y-200382500D01*
X199080000Y-200382500D02*
X199070000Y-200372500D01*
X197523788Y-211933788D02*
X196630000Y-211040000D01*
X197523788Y-212650000D02*
X197523788Y-211933788D01*
%TO.N,GND*%
X189664055Y-197865346D02*
X195514195Y-197865346D01*
X195514195Y-197865346D02*
X194768894Y-197865346D01*
X194694383Y-198904383D02*
X194955321Y-199165321D01*
X194768894Y-197865346D02*
X194694383Y-197939857D01*
X194694383Y-197939857D02*
X194694383Y-198904383D01*
X194955321Y-199165321D02*
X195514195Y-199165321D01*
X195514195Y-195915384D02*
X195514195Y-197865346D01*
X189664055Y-195915384D02*
X189664055Y-198094055D01*
X189664055Y-198094055D02*
X189664055Y-199165321D01*
X187460000Y-198137500D02*
X189620610Y-198137500D01*
X189620610Y-198137500D02*
X189664055Y-198094055D01*
%TO.N,+5V*%
X187460000Y-199862500D02*
X189616863Y-199862500D01*
X189616863Y-199862500D02*
X189664055Y-199815308D01*
%TO.N,Net-(R1-Pad2)*%
X195514195Y-198515333D02*
X199037833Y-198515333D01*
X199037833Y-198515333D02*
X199070000Y-198547500D01*
%TO.N,IO16{slash}LED1*%
X195514195Y-199815308D02*
X197155308Y-199815308D01*
X197155308Y-199815308D02*
X197170000Y-199830000D01*
X224214850Y-183584850D02*
X225280000Y-184650000D01*
X222697900Y-183584850D02*
X224214850Y-183584850D01*
%TO.N,+3V3*%
X197520000Y-183060000D02*
X194002500Y-183060000D01*
X194002500Y-183060000D02*
X193992500Y-183050000D01*
%TO.N,IO0*%
X192167500Y-183050000D02*
X192167500Y-184732424D01*
X192167500Y-184732424D02*
X192129924Y-184770000D01*
X192129924Y-184770000D02*
X197940000Y-184770000D01*
X197940000Y-184770000D02*
X202500000Y-189330000D01*
%TO.N,IO33{slash}MAINBUTTON*%
X202030128Y-178920128D02*
X202920000Y-179810000D01*
X188179924Y-178920128D02*
X202030128Y-178920128D01*
X202920000Y-179810000D02*
X202955150Y-179774850D01*
X202955150Y-179774850D02*
X205697900Y-179774850D01*
%TO.N,RESET*%
X192102500Y-172830064D02*
X201492564Y-172830064D01*
X201492564Y-172830064D02*
X202570000Y-173907500D01*
%TO.N,GND*%
X188139924Y-171400000D02*
X190029924Y-169510000D01*
X190029924Y-169510000D02*
X197960000Y-169510000D01*
%TO.N,Net-(R4-Pad1)*%
X190277500Y-172830064D02*
X188209988Y-172830064D01*
X188209988Y-172830064D02*
X188139924Y-172900128D01*
%TO.N,RESET*%
X192107500Y-171090128D02*
X192107500Y-172825064D01*
X192107500Y-172825064D02*
X192102500Y-172830064D01*
%TO.N,+3V3*%
X193932500Y-171090128D02*
X197570128Y-171090128D01*
X197570128Y-171090128D02*
X197890000Y-171410000D01*
%TO.N,RESET*%
X202570000Y-173907500D02*
X202570000Y-172820000D01*
X202570000Y-172820000D02*
X203230000Y-172160000D01*
D40*
%TO.N,GND*%
X201000000Y-175800000D02*
X202402500Y-175800000D01*
X202402500Y-175800000D02*
X202570000Y-175632500D01*
D38*
X219110000Y-193182500D02*
X219110000Y-197082500D01*
X219110000Y-197082500D02*
X219090000Y-197102500D01*
%TO.N,IO0*%
X219350000Y-189330000D02*
X220321772Y-189330000D01*
X219350000Y-189330000D02*
X219350000Y-191217500D01*
X202500000Y-189330000D02*
X219350000Y-189330000D01*
X219350000Y-191217500D02*
X219110000Y-191457500D01*
X220321772Y-189330000D02*
X222697900Y-186953872D01*
X222697900Y-186953872D02*
X222697900Y-186124850D01*
%TO.N,Net-(R5-Pad1)*%
X188199924Y-184800128D02*
X190274796Y-184800128D01*
X184400076Y-184800128D02*
X188199924Y-184800128D01*
%TO.N,GND*%
X184400076Y-183300000D02*
X188199924Y-183300000D01*
X184299936Y-183300000D02*
X182900000Y-181900064D01*
X182900000Y-181900064D02*
X182900000Y-178600076D01*
X184400076Y-183300000D02*
X184299936Y-183300000D01*
X184080076Y-177420000D02*
X184380076Y-177420000D01*
X182900000Y-178600076D02*
X184080076Y-177420000D01*
X184380076Y-177420000D02*
X188179924Y-177420000D01*
%TO.N,IO33{slash}MAINBUTTON*%
X184380076Y-178920128D02*
X188179924Y-178920128D01*
%TO.N,GND*%
X183245425Y-176305489D02*
X182830000Y-175890064D01*
X183265565Y-176305489D02*
X183245425Y-176305489D01*
X184040076Y-171400000D02*
X184340076Y-171400000D01*
X182830000Y-172610076D02*
X184040076Y-171400000D01*
X184380076Y-177420000D02*
X183265565Y-176305489D01*
X182830000Y-175890064D02*
X182830000Y-172610076D01*
%TO.N,IO33{slash}MAINBUTTON*%
X205682686Y-179790064D02*
X205697900Y-179774850D01*
%TO.N,Net-(R4-Pad1)*%
X184340076Y-172900128D02*
X188139924Y-172900128D01*
%TO.N,GND*%
X188139924Y-171400000D02*
X188530064Y-171400000D01*
X184340076Y-171400000D02*
X188139924Y-171400000D01*
D40*
X197960000Y-169510000D02*
X200451800Y-169510000D01*
X200451800Y-169510000D02*
X200655600Y-169713800D01*
%TO.N,+3V3*%
X200655600Y-171438800D02*
X201209550Y-170884850D01*
X201209550Y-170884850D02*
X205697900Y-170884850D01*
D38*
%TO.N,RESET*%
X203230000Y-172160000D02*
X205692750Y-172160000D01*
X205692750Y-172160000D02*
X205697900Y-172154850D01*
X227730166Y-183070000D02*
X225900000Y-183070000D01*
X228937035Y-184276869D02*
X227730166Y-183070000D01*
%TO.N,GND*%
X211362900Y-178949850D02*
X208482900Y-181829850D01*
X208482900Y-181829850D02*
X208482900Y-187124850D01*
X215032900Y-175279850D02*
X215280150Y-175279850D01*
X215280150Y-175279850D02*
X220945150Y-169614850D01*
X220945150Y-169614850D02*
X222697900Y-169614850D01*
X211362900Y-175279850D02*
X211362900Y-174364850D01*
X211362900Y-174364850D02*
X206612900Y-169614850D01*
X206612900Y-169614850D02*
X205697900Y-169614850D01*
X213197900Y-175279850D02*
X213197900Y-177114850D01*
X211362900Y-177114850D02*
X211362900Y-175279850D01*
X211362900Y-178949850D02*
X211362900Y-177114850D01*
X213197900Y-178949850D02*
X211362900Y-178949850D01*
X215032900Y-178949850D02*
X213197900Y-178949850D01*
X215032900Y-177114850D02*
X215032900Y-178949850D01*
X215032900Y-175279850D02*
X215032900Y-177114850D01*
X213197900Y-175279850D02*
X215032900Y-175279850D01*
X211362900Y-175279850D02*
X213197900Y-175279850D01*
D40*
%TO.N,+3V3*%
X200626800Y-171410000D02*
X200655600Y-171438800D01*
X197890000Y-171410000D02*
X200626800Y-171410000D01*
X235891016Y-186941016D02*
X237388984Y-186941016D01*
X237388984Y-186941016D02*
X237390000Y-186940000D01*
X235891016Y-185624879D02*
X235891016Y-186941016D01*
X235891016Y-186941016D02*
X235891016Y-190608516D01*
D38*
%TO.N,GND*%
X231965489Y-186974511D02*
X231960000Y-186980000D01*
D40*
X233665489Y-186974511D02*
X231965489Y-186974511D01*
X233665489Y-190107989D02*
X233665489Y-186974511D01*
D38*
X233665489Y-186974511D02*
X233665489Y-186574511D01*
%TO.N,RXD*%
X231890000Y-183625387D02*
X230755387Y-183625387D01*
X226400000Y-179270000D02*
X226400000Y-174810000D01*
X230755387Y-183625387D02*
X226400000Y-179270000D01*
X226400000Y-174810000D02*
X226284850Y-174694850D01*
X226284850Y-174694850D02*
X222697900Y-174694850D01*
%TO.N,TXD*%
X227450000Y-179423652D02*
X227450000Y-173430000D01*
X227444850Y-173424850D02*
X222697900Y-173424850D01*
X231151354Y-183125006D02*
X227450000Y-179423652D01*
X231890000Y-183125006D02*
X231151354Y-183125006D01*
X227450000Y-173430000D02*
X227444850Y-173424850D01*
D41*
%TO.N,GND*%
X234487500Y-196550000D02*
X234487500Y-190930000D01*
X234487500Y-190930000D02*
X234237500Y-190680000D01*
%TO.N,+3V3*%
X236212500Y-196550000D02*
X236212500Y-190930000D01*
X236212500Y-190930000D02*
X235962500Y-190680000D01*
D38*
%TO.N,DTR*%
X231890000Y-184626149D02*
X230939306Y-185576843D01*
X230939306Y-185576843D02*
X228937035Y-185576843D01*
%TO.N,RTS*%
X231890000Y-184125768D02*
X230247153Y-184125768D01*
X229446065Y-184926856D02*
X228937035Y-184926856D01*
X230247153Y-184125768D02*
X229446065Y-184926856D01*
X227037111Y-184276869D02*
X227778018Y-184276869D01*
X227778018Y-184276869D02*
X228428005Y-184926856D01*
X228428005Y-184926856D02*
X228937035Y-184926856D01*
%TO.N,DTR*%
X227037111Y-184926856D02*
X227546141Y-184926856D01*
X227546141Y-184926856D02*
X228196128Y-185576843D01*
X228196128Y-185576843D02*
X228937035Y-185576843D01*
%TO.N,IO0*%
X227037111Y-185576843D02*
X226489104Y-186124850D01*
X226489104Y-186124850D02*
X222697900Y-186124850D01*
%TO.N,+3V3*%
X235891016Y-190608516D02*
X235962500Y-190680000D01*
X235891016Y-185624879D02*
X235390635Y-185624879D01*
%TO.N,GND*%
X233665489Y-186574511D02*
X233750000Y-186490000D01*
X233750000Y-186479390D02*
X233889492Y-186339898D01*
D40*
X234237500Y-190680000D02*
X233665489Y-190107989D01*
D38*
X233750000Y-186490000D02*
X233750000Y-186479390D01*
X233889492Y-186339898D02*
X233889492Y-185624879D01*
D39*
%TO.N,USB-C DATA +*%
X234389873Y-185624879D02*
X234389873Y-186869873D01*
X234389873Y-186869873D02*
X234390000Y-186870000D01*
%TO.N,USB-C DATA -*%
X234890254Y-185624879D02*
X234890254Y-186380995D01*
X234890254Y-186380995D02*
X235089511Y-186580252D01*
X235089511Y-186580252D02*
X235089511Y-187650489D01*
X235089511Y-187650489D02*
X234920000Y-187820000D01*
D38*
%TO.N,GND*%
X210437500Y-206300000D02*
X210437500Y-213977362D01*
X210437500Y-213977362D02*
X210960102Y-214499964D01*
D37*
%TO.N,VBUS*%
X218690000Y-212320000D02*
X218690000Y-210713442D01*
X218690000Y-210713442D02*
X219000000Y-210403442D01*
X211360000Y-212810000D02*
X211340000Y-212810000D01*
X211759949Y-213209949D02*
X211360000Y-212810000D01*
X211759949Y-214499964D02*
X211759949Y-213209949D01*
D36*
%TO.N,GND*%
X223450000Y-198420000D02*
X223450000Y-199670000D01*
X223450000Y-199670000D02*
X223450000Y-209805410D01*
D38*
X228450000Y-199697500D02*
X223477500Y-199697500D01*
X223477500Y-199697500D02*
X223450000Y-199670000D01*
D41*
%TO.N,+3V3*%
X237784900Y-202000000D02*
X232115100Y-202000000D01*
X237784900Y-202000000D02*
X237784900Y-198122400D01*
X237784900Y-198122400D02*
X236212500Y-196550000D01*
%TO.N,GND*%
X232115100Y-199700025D02*
X232115100Y-198922400D01*
X232115100Y-198922400D02*
X234487500Y-196550000D01*
D38*
X228450000Y-199697500D02*
X228452525Y-199700025D01*
D41*
X228452525Y-199700025D02*
X232115100Y-199700025D01*
%TO.N,+5V*%
X228450000Y-202460000D02*
X230290000Y-204300000D01*
X228450000Y-201422500D02*
X228450000Y-202460000D01*
X230290000Y-204300000D02*
X230290025Y-204299975D01*
X230290025Y-204299975D02*
X232115100Y-204299975D01*
X228450000Y-201422500D02*
X228450000Y-202370000D01*
X228450000Y-202370000D02*
X225900000Y-204920000D01*
D36*
%TO.N,GND*%
X223450000Y-197120000D02*
X223450000Y-198420000D01*
D38*
X223472500Y-198397500D02*
X223450000Y-198420000D01*
D36*
X223440000Y-211430000D02*
X225780000Y-211430000D01*
X225780000Y-211430000D02*
X226130000Y-211080000D01*
%TO.N,+5V*%
X234350000Y-213820000D02*
X232810000Y-213820000D01*
X232810000Y-213820000D02*
X232110000Y-213120000D01*
X219090000Y-204930000D02*
X219090000Y-206606558D01*
X219090000Y-202177500D02*
X219090000Y-204930000D01*
X219090000Y-204930000D02*
X221130000Y-204930000D01*
X221130000Y-204930000D02*
X221140000Y-204920000D01*
D38*
%TO.N,GND*%
X211577500Y-205160000D02*
X213240000Y-205160000D01*
X213240000Y-205160000D02*
X213587500Y-205507500D01*
X210437500Y-206300000D02*
X211577500Y-205160000D01*
X213587500Y-205507500D02*
X213587500Y-208070000D01*
%TO.N,USB-C CC1*%
X211985489Y-210444511D02*
X212290000Y-210140000D01*
X212910064Y-213169685D02*
X211985489Y-212245110D01*
X211985489Y-212245110D02*
X211985489Y-210444511D01*
X212910064Y-214499964D02*
X212910064Y-213169685D01*
X212290000Y-210140000D02*
X212290000Y-206327500D01*
X212290000Y-206327500D02*
X212262500Y-206300000D01*
D36*
%TO.N,GND*%
X173450000Y-82640000D02*
X174902500Y-81187500D01*
X279251232Y-176130000D02*
X275670000Y-179711232D01*
X252020000Y-206630000D02*
X251100000Y-205710000D01*
X235340000Y-210257500D02*
X226952500Y-210257500D01*
X150862500Y-173330000D02*
X150862500Y-167368966D01*
X276049854Y-185290000D02*
X273047500Y-188292354D01*
X261600000Y-199200000D02*
X256631232Y-199200000D01*
X240037754Y-210257500D02*
X235340000Y-210257500D01*
X282584042Y-113440000D02*
X282584042Y-114606542D01*
X174902500Y-81187500D02*
X174902500Y-79670000D01*
X146582500Y-151842754D02*
X144189746Y-149450000D01*
X203337500Y-197102500D02*
X219090000Y-197102500D01*
X265230000Y-193849746D02*
X268380254Y-197000000D01*
X220844042Y-67700000D02*
X224194042Y-71050000D01*
X165570146Y-93220000D02*
X167562500Y-91227646D01*
X154820000Y-105750000D02*
X157322500Y-103247500D01*
X277512500Y-106952500D02*
X279010000Y-106952500D01*
X288534042Y-157380000D02*
X286437500Y-159476542D01*
X195812500Y-76270000D02*
X197422556Y-76270000D01*
X283250000Y-171870000D02*
X280747500Y-174372500D01*
X261680000Y-197000000D02*
X261600000Y-197080000D01*
X268930000Y-188430000D02*
X265230000Y-192130000D01*
X273047500Y-188430000D02*
X268930000Y-188430000D01*
X174902500Y-79670000D02*
X177020000Y-79670000D01*
X257296542Y-85312500D02*
X259750000Y-85312500D01*
X282584042Y-114606542D02*
X286217500Y-118240000D01*
X160373534Y-93220000D02*
X165570146Y-93220000D01*
X277740254Y-185290000D02*
X276049854Y-185290000D01*
X254510000Y-206650000D02*
X256830254Y-206650000D01*
X185940000Y-74450000D02*
X185870000Y-74380000D01*
X209144042Y-70470000D02*
X211264042Y-68350000D01*
X177020000Y-79670000D02*
X179140000Y-81790000D01*
X289300000Y-148260000D02*
X286540000Y-151020000D01*
X289547500Y-148260000D02*
X289300000Y-148260000D01*
X226952500Y-210257500D02*
X226130000Y-211080000D01*
X189030000Y-208607500D02*
X188032500Y-207610000D01*
X146582500Y-158700000D02*
X146582500Y-151842754D01*
X203250000Y-197190000D02*
X203337500Y-197102500D01*
X166020000Y-195927500D02*
X166020000Y-193340254D01*
X231280000Y-70602500D02*
X232360000Y-69522500D01*
X158429746Y-185750000D02*
X157652500Y-185750000D01*
X260150000Y-84912500D02*
X260206542Y-84912500D01*
X271210000Y-94892500D02*
X271210000Y-96885958D01*
X260206542Y-84912500D02*
X264704042Y-89410000D01*
X229395310Y-70602500D02*
X231280000Y-70602500D01*
X259750000Y-85312500D02*
X260150000Y-84912500D01*
X144189746Y-149450000D02*
X144189746Y-144797246D01*
X271210000Y-96885958D02*
X274904042Y-100580000D01*
X160373534Y-95973534D02*
X160373534Y-93220000D01*
X177380000Y-203806466D02*
X173413534Y-199840000D01*
X275670000Y-185240000D02*
X275720000Y-185290000D01*
X279010000Y-106952500D02*
X279010000Y-109865958D01*
X217370000Y-68350000D02*
X218020000Y-67700000D01*
X195870000Y-76327500D02*
X195812500Y-76270000D01*
X254490000Y-206630000D02*
X254510000Y-206650000D01*
X188032500Y-207610000D02*
X186309746Y-207610000D01*
X248807500Y-205710000D02*
X248770000Y-205747500D01*
X232360000Y-69522500D02*
X233996542Y-69522500D01*
X241050000Y-211269746D02*
X243570254Y-213790000D01*
X150162500Y-115630000D02*
X154940000Y-110852500D01*
X224194042Y-71050000D02*
X225984042Y-69260000D01*
X205366542Y-66942500D02*
X209144042Y-70720000D01*
X162469746Y-189790000D02*
X158429746Y-185750000D01*
X240976542Y-76502500D02*
X245850000Y-76502500D01*
X275670000Y-179711232D02*
X275670000Y-185240000D01*
X285540000Y-118960000D02*
X285540000Y-125645958D01*
X203250000Y-213661288D02*
X203250000Y-197190000D01*
X198513045Y-75179511D02*
X198513045Y-69929511D01*
X241050000Y-207330000D02*
X241050000Y-211269746D01*
X279010000Y-109865958D02*
X282584042Y-113440000D01*
X243961232Y-205750000D02*
X242630000Y-205750000D01*
X287554042Y-127660000D02*
X287554042Y-130476542D01*
X284337500Y-164760000D02*
X283090000Y-164760000D01*
X150862500Y-167368966D02*
X147533534Y-164040000D01*
X211264042Y-68350000D02*
X217370000Y-68350000D01*
X254490000Y-206630000D02*
X252020000Y-206630000D01*
X166020000Y-193340254D02*
X162469746Y-189790000D01*
X261600000Y-197080000D02*
X261600000Y-199200000D01*
X157322500Y-103247500D02*
X157322500Y-101870000D01*
X203010000Y-66942500D02*
X205366542Y-66942500D01*
X153709746Y-177710000D02*
X153709746Y-176177246D01*
X286540000Y-151020000D02*
X286540000Y-155385958D01*
X254490000Y-201341232D02*
X254490000Y-206630000D01*
X252574042Y-80590000D02*
X257296542Y-85312500D01*
D37*
X218470000Y-217110000D02*
X218470000Y-221290086D01*
D36*
X288610000Y-132050000D02*
X287530000Y-133130000D01*
X197313534Y-68730000D02*
X201222500Y-68730000D01*
X238864042Y-74390000D02*
X240976542Y-76502500D01*
X157652500Y-181652754D02*
X153709746Y-177710000D01*
X144189746Y-144797246D02*
X144122500Y-144730000D01*
X149370000Y-126510000D02*
X149370000Y-122556466D01*
X274904042Y-100580000D02*
X274904042Y-104344042D01*
X162320000Y-97920000D02*
X160373534Y-95973534D01*
X153709746Y-176177246D02*
X150862500Y-173330000D01*
X233996542Y-69522500D02*
X238864042Y-74390000D01*
X146710000Y-135650000D02*
X145470000Y-134410000D01*
X283090000Y-164760000D02*
X283090000Y-170389746D01*
X198513045Y-69929511D02*
X197313534Y-68730000D01*
X286217500Y-118282500D02*
X285540000Y-118960000D01*
X283090000Y-170389746D02*
X284570254Y-171870000D01*
X146513534Y-119700000D02*
X150162500Y-116051034D01*
X246960000Y-75392500D02*
X247376542Y-75392500D01*
X223432500Y-197102500D02*
X223450000Y-197120000D01*
X157652500Y-185750000D02*
X157652500Y-181652754D01*
X287530000Y-140499746D02*
X289540254Y-142510000D01*
X146710000Y-139830000D02*
X146710000Y-135650000D01*
X286540000Y-155385958D02*
X288534042Y-157380000D01*
D37*
X209829918Y-221290086D02*
X209829918Y-217110000D01*
D36*
X248770000Y-205747500D02*
X243963732Y-205747500D01*
X189030000Y-208607500D02*
X196481034Y-208607500D01*
X275720000Y-185290000D02*
X277740254Y-185290000D01*
D37*
X218470000Y-221290086D02*
X209829918Y-221290086D01*
D36*
X274904042Y-104344042D02*
X277512500Y-106952500D01*
X186309746Y-207610000D02*
X184787246Y-206087500D01*
X145470000Y-134410000D02*
X145450000Y-134430000D01*
X144122500Y-142417500D02*
X146710000Y-139830000D01*
X150162500Y-116051034D02*
X150162500Y-115630000D01*
X157322500Y-101870000D02*
X159372556Y-101870000D01*
X145450000Y-134430000D02*
X143843534Y-134430000D01*
X268380254Y-197000000D02*
X261680000Y-197000000D01*
X147533534Y-159651034D02*
X146582500Y-158700000D01*
X251100000Y-205710000D02*
X248807500Y-205710000D01*
X218020000Y-67700000D02*
X220844042Y-67700000D01*
X209144042Y-70720000D02*
X209144042Y-70470000D01*
X173450000Y-82640000D02*
X170869746Y-82640000D01*
X197422556Y-76270000D02*
X198513045Y-75179511D01*
X185940000Y-79492556D02*
X185940000Y-74450000D01*
X185940000Y-74450000D02*
X189670000Y-78180000D01*
X149370000Y-122556466D02*
X146513534Y-119700000D01*
X242630000Y-205750000D02*
X241050000Y-207330000D01*
X289540254Y-142510000D02*
X289540254Y-148252754D01*
X284570254Y-171870000D02*
X283250000Y-171870000D01*
X289127500Y-132050000D02*
X288610000Y-132050000D01*
X143843534Y-134430000D02*
X143843534Y-133716466D01*
D37*
X218092301Y-217110000D02*
X217349857Y-216367556D01*
D36*
X173470000Y-87688768D02*
X173470000Y-82620000D01*
X144122500Y-144730000D02*
X144122500Y-142417500D01*
X285540000Y-125645958D02*
X287554042Y-127660000D01*
X247376542Y-75392500D02*
X252574042Y-80590000D01*
X219090000Y-197102500D02*
X223432500Y-197102500D01*
X289540254Y-148252754D02*
X289547500Y-148260000D01*
X287554042Y-130476542D02*
X289127500Y-132050000D01*
X154940000Y-110852500D02*
X154940000Y-105750000D01*
X147713045Y-128099455D02*
X147780545Y-128099455D01*
X184787246Y-206087500D02*
X177380000Y-206087500D01*
X147533534Y-164040000D02*
X147533534Y-159651034D01*
X167562500Y-91227646D02*
X167562500Y-91090000D01*
X202226288Y-212650000D02*
X203243788Y-213667500D01*
X189670000Y-78180000D02*
X195870000Y-78180000D01*
X270186542Y-94892500D02*
X271210000Y-94892500D01*
X162320000Y-98922556D02*
X162320000Y-97920000D01*
X152113534Y-105750000D02*
X154820000Y-105750000D01*
X170068768Y-91090000D02*
X173470000Y-87688768D01*
X167562500Y-91090000D02*
X170068768Y-91090000D01*
X196481034Y-208607500D02*
X200523534Y-212650000D01*
X185870000Y-74380000D02*
X183403534Y-74380000D01*
X147780545Y-128099455D02*
X149370000Y-126510000D01*
X143843534Y-133716466D02*
X146332500Y-131227500D01*
X241050000Y-211269746D02*
X240037754Y-210257500D01*
X256631232Y-199200000D02*
X254490000Y-201341232D01*
X146332500Y-129480000D02*
X147713045Y-128099455D01*
X243963732Y-205747500D02*
X243961232Y-205750000D01*
X201222500Y-68730000D02*
X203010000Y-66942500D01*
X173470000Y-82620000D02*
X173450000Y-82640000D01*
X177380000Y-206087500D02*
X177380000Y-203806466D01*
X169501034Y-195927500D02*
X166020000Y-195927500D01*
X223450000Y-209805410D02*
X223440000Y-209815410D01*
X228052810Y-69260000D02*
X229395310Y-70602500D01*
X286437500Y-159476542D02*
X286437500Y-162660000D01*
X200523534Y-212650000D02*
X202226288Y-212650000D01*
X264704042Y-89410000D02*
X270186542Y-94892500D01*
X146332500Y-131227500D02*
X146332500Y-129480000D01*
X286217500Y-118240000D02*
X286217500Y-118282500D01*
X225984042Y-69260000D02*
X228052810Y-69260000D01*
X203243788Y-213667500D02*
X203250000Y-213661288D01*
X195870000Y-78180000D02*
X195870000Y-76327500D01*
X183642556Y-81790000D02*
X185940000Y-79492556D01*
X280747500Y-176130000D02*
X279251232Y-176130000D01*
X273047500Y-188292354D02*
X273047500Y-188430000D01*
X280747500Y-174372500D02*
X280747500Y-176130000D01*
X287530000Y-133130000D02*
X287530000Y-140499746D01*
X179140000Y-81790000D02*
X183642556Y-81790000D01*
X265230000Y-192130000D02*
X265230000Y-193849746D01*
X154940000Y-105750000D02*
X152113534Y-105750000D01*
X159372556Y-101870000D02*
X162320000Y-98922556D01*
X245850000Y-76502500D02*
X246960000Y-75392500D01*
X226130000Y-215139746D02*
X229110254Y-218120000D01*
X223440000Y-209815410D02*
X223440000Y-211430000D01*
X226130000Y-211080000D02*
X226130000Y-215139746D01*
X286437500Y-162660000D02*
X284337500Y-164760000D01*
D37*
X210207617Y-217110000D02*
X210950061Y-216367556D01*
D36*
%TO.N,+5V*%
X149137500Y-173330000D02*
X148823788Y-173330000D01*
X202522020Y-65705480D02*
X203010000Y-65217500D01*
X173170000Y-77940000D02*
X178963788Y-77940000D01*
X149940000Y-101870000D02*
X155597500Y-101870000D01*
X291533788Y-152380000D02*
X293320000Y-154166212D01*
X259830000Y-201650000D02*
X258320000Y-203160000D01*
X149113788Y-110750000D02*
X147470000Y-109106212D01*
X148437500Y-115630000D02*
X148437500Y-111426288D01*
X269880000Y-193500000D02*
X269880000Y-198790000D01*
X203243788Y-215392500D02*
X205267500Y-215392500D01*
X178963788Y-77940000D02*
X180403788Y-79380000D01*
X267770000Y-84410000D02*
X272080000Y-88720000D01*
X194087500Y-73956288D02*
X194313788Y-73730000D01*
X262010000Y-81380000D02*
X264673788Y-81380000D01*
X210694277Y-64270489D02*
X210694277Y-64264277D01*
X294460000Y-145072500D02*
X291272500Y-148260000D01*
X158890000Y-96703788D02*
X158890000Y-91570000D01*
X271210000Y-93167500D02*
X275491288Y-93167500D01*
X272080000Y-88720000D02*
X272080000Y-92297500D01*
X294460000Y-139430000D02*
X294460000Y-145072500D01*
X142397500Y-144730000D02*
X142397500Y-140983712D01*
X195810000Y-67020000D02*
X200270000Y-67020000D01*
X264673788Y-81380000D02*
X267703788Y-84410000D01*
X241863788Y-69390000D02*
X244322500Y-69390000D01*
X141610000Y-122796212D02*
X141610000Y-118280000D01*
X292240000Y-130662500D02*
X290852500Y-132050000D01*
X167870000Y-87640000D02*
X169390000Y-86120000D01*
X246960000Y-73667500D02*
X250812500Y-73667500D01*
X158890000Y-91570000D02*
X159370000Y-91090000D01*
X205670000Y-202180000D02*
X205672500Y-202177500D01*
X205267500Y-215392500D02*
X205670000Y-214990000D01*
X159470000Y-194790000D02*
X155927500Y-191247500D01*
X169390000Y-86120000D02*
X169390000Y-81130000D01*
X144760000Y-115630000D02*
X148437500Y-115630000D01*
X141610000Y-118280000D02*
X142110000Y-118280000D01*
X217765000Y-65720000D02*
X218020000Y-65975000D01*
X263320000Y-199205000D02*
X263320000Y-201650000D01*
X209490000Y-63600000D02*
X209080000Y-64010000D01*
X289120000Y-162660000D02*
X288162500Y-162660000D01*
X166020000Y-197652500D02*
X162332500Y-197652500D01*
X291272500Y-152118712D02*
X291533788Y-152380000D01*
X199781288Y-215392500D02*
X203243788Y-215392500D01*
X253223788Y-73240000D02*
X255573788Y-75590000D01*
X277903788Y-95580000D02*
X279900000Y-97576212D01*
X288540000Y-117642500D02*
X287942500Y-118240000D01*
X173386288Y-207812500D02*
X170413788Y-204840000D01*
X279540489Y-181489511D02*
X279540489Y-183159511D01*
X147470000Y-104340000D02*
X149940000Y-101870000D01*
X288162500Y-166277500D02*
X287570000Y-166870000D01*
X212143788Y-65720000D02*
X217765000Y-65720000D01*
X245370489Y-209989511D02*
X245370489Y-212099511D01*
X287942500Y-118240000D02*
X288400000Y-118240000D01*
X209080000Y-64010000D02*
X206960000Y-64010000D01*
X205670000Y-214990000D02*
X205670000Y-202180000D01*
X150710000Y-182710000D02*
X148450000Y-180450000D01*
X142397500Y-140983712D02*
X140843788Y-139430000D01*
X274772500Y-188607500D02*
X271380000Y-192000000D01*
X291272500Y-148260000D02*
X291272500Y-152118712D01*
X245370489Y-212099511D02*
X245040000Y-212430000D01*
X283990000Y-176130000D02*
X282472500Y-176130000D01*
X247887500Y-207472500D02*
X246570000Y-208790000D01*
X290553788Y-120393788D02*
X290553788Y-122660000D01*
X210694277Y-64264277D02*
X210030000Y-63600000D01*
X218020000Y-65975000D02*
X220785000Y-65975000D01*
X181860000Y-72580000D02*
X190397500Y-72580000D01*
X165837500Y-91090000D02*
X165837500Y-89672500D01*
X271380000Y-192000000D02*
X269880000Y-193500000D01*
X141190000Y-154450000D02*
X139640000Y-152900000D01*
X170850000Y-79670000D02*
X173177500Y-79670000D01*
X222800000Y-63960000D02*
X225103788Y-63960000D01*
X290553788Y-122660000D02*
X292240000Y-124346212D01*
X279540489Y-183159511D02*
X279180000Y-183520000D01*
X169390000Y-81130000D02*
X170850000Y-79670000D01*
X170413788Y-204840000D02*
X166020000Y-200446212D01*
X142870000Y-129480000D02*
X144607500Y-129480000D01*
X139000000Y-133350000D02*
X142870000Y-129480000D01*
X246570000Y-208790000D02*
X245370489Y-209989511D01*
X194313788Y-73730000D02*
X195810000Y-72233788D01*
X153750000Y-185750000D02*
X150710000Y-182710000D01*
X272080000Y-92297500D02*
X271210000Y-93167500D01*
X157373788Y-98220000D02*
X158890000Y-96703788D01*
X279180000Y-183520000D02*
X279180000Y-186810000D01*
X233247500Y-211982500D02*
X232110000Y-213120000D01*
X251240000Y-73240000D02*
X253223788Y-73240000D01*
X235422500Y-67797500D02*
X235870000Y-67350000D01*
X258320000Y-203160000D02*
X258320000Y-208330000D01*
X220785000Y-65975000D02*
X222800000Y-63960000D01*
X245040000Y-212430000D02*
X245040000Y-215440000D01*
X155927500Y-191247500D02*
X155927500Y-185750000D01*
X148437500Y-111426288D02*
X149113788Y-110750000D01*
X230612500Y-66050000D02*
X232360000Y-67797500D01*
X288162500Y-162660000D02*
X288162500Y-166277500D01*
X279900000Y-104337500D02*
X279010000Y-105227500D01*
X227193788Y-66050000D02*
X230612500Y-66050000D01*
X177380000Y-207812500D02*
X173386288Y-207812500D01*
X185587500Y-210332500D02*
X183310000Y-212610000D01*
X144857500Y-158700000D02*
X144857500Y-158117500D01*
X277640000Y-188430000D02*
X274772500Y-188430000D01*
X280740000Y-180290000D02*
X279540489Y-181489511D01*
X225103788Y-63960000D02*
X227193788Y-66050000D01*
X286050000Y-174070000D02*
X283990000Y-176130000D01*
X155597500Y-101870000D02*
X155597500Y-99996288D01*
X148450000Y-174017500D02*
X149137500Y-173330000D01*
X141650000Y-161907500D02*
X144857500Y-158700000D01*
X235870000Y-67350000D02*
X239823788Y-67350000D01*
X250087500Y-208790000D02*
X248770000Y-207472500D01*
X235340000Y-211982500D02*
X233247500Y-211982500D01*
X286050000Y-168640000D02*
X286050000Y-174070000D01*
X165837500Y-89672500D02*
X167870000Y-87640000D01*
X287570000Y-167120000D02*
X286050000Y-168640000D01*
X147470000Y-109106212D02*
X147470000Y-104340000D01*
X181860000Y-77923788D02*
X181860000Y-72580000D01*
X263355000Y-199230000D02*
X263325000Y-199200000D01*
X275491288Y-93167500D02*
X277903788Y-95580000D01*
X263320000Y-201650000D02*
X259830000Y-201650000D01*
X139640000Y-152900000D02*
X139640000Y-147487500D01*
X282472500Y-178557500D02*
X280740000Y-180290000D01*
X144857500Y-158117500D02*
X141190000Y-154450000D01*
X239823788Y-67350000D02*
X241863788Y-69390000D01*
X140843788Y-139430000D02*
X139000000Y-137586212D01*
X197523788Y-217650000D02*
X199781288Y-215392500D01*
X290852500Y-132050000D02*
X290852500Y-132082500D01*
X279180000Y-186810000D02*
X279220000Y-186850000D01*
X219090000Y-206606558D02*
X219000000Y-206696558D01*
X148450000Y-180450000D02*
X148450000Y-174017500D01*
X173177500Y-79532354D02*
X173170000Y-79524854D01*
X144607500Y-129480000D02*
X144607500Y-125793712D01*
X195810000Y-72233788D02*
X195810000Y-67020000D01*
X141650000Y-166156212D02*
X141650000Y-161907500D01*
X269880000Y-198790000D02*
X269440000Y-199230000D01*
X288400000Y-118240000D02*
X290553788Y-120393788D01*
X248770000Y-207472500D02*
X247887500Y-207472500D01*
X292240000Y-124346212D02*
X292240000Y-130662500D01*
X287570000Y-166870000D02*
X287570000Y-167120000D01*
X269440000Y-199230000D02*
X263355000Y-199230000D01*
X232360000Y-67797500D02*
X235422500Y-67797500D01*
X260150000Y-80166212D02*
X260150000Y-83187500D01*
X190397500Y-72580000D02*
X194087500Y-76270000D01*
X180403788Y-79380000D02*
X181860000Y-77923788D01*
X279220000Y-186850000D02*
X277640000Y-188430000D01*
X210030000Y-63600000D02*
X209490000Y-63600000D01*
X244550000Y-215930000D02*
X239287500Y-215930000D01*
X189030000Y-210332500D02*
X185587500Y-210332500D01*
X189030000Y-210332500D02*
X190206288Y-210332500D01*
X159370000Y-91090000D02*
X165837500Y-91090000D01*
X282371288Y-105227500D02*
X285583788Y-108440000D01*
X139640000Y-147487500D02*
X142397500Y-144730000D01*
X250812500Y-73667500D02*
X251240000Y-73240000D01*
X166020000Y-200446212D02*
X166020000Y-197652500D01*
X244322500Y-69390000D02*
X244322500Y-71030000D01*
X293320000Y-154166212D02*
X293320000Y-158460000D01*
X143513788Y-124700000D02*
X141610000Y-122796212D01*
X292540000Y-133770000D02*
X292540000Y-137510000D01*
X279900000Y-97576212D02*
X279900000Y-104337500D01*
X205752500Y-65217500D02*
X203010000Y-65217500D01*
X194087500Y-76270000D02*
X194087500Y-73956288D01*
X245040000Y-215440000D02*
X244550000Y-215930000D01*
X246570000Y-208790000D02*
X246570000Y-208507500D01*
X263325000Y-199200000D02*
X263320000Y-199205000D01*
X244322500Y-71030000D02*
X246960000Y-73667500D01*
X267703788Y-84410000D02*
X267770000Y-84410000D01*
X205672500Y-202177500D02*
X219090000Y-202177500D01*
X290852500Y-132082500D02*
X292540000Y-133770000D01*
X292540000Y-137510000D02*
X294460000Y-139430000D01*
X255573788Y-75590000D02*
X260150000Y-80166212D01*
X182177500Y-212610000D02*
X177380000Y-207812500D01*
X288540000Y-111396212D02*
X288540000Y-117642500D01*
X258320000Y-208330000D02*
X257860000Y-208790000D01*
X155927500Y-185750000D02*
X153750000Y-185750000D01*
X206960000Y-64010000D02*
X205752500Y-65217500D01*
X260150000Y-83187500D02*
X260377011Y-82960489D01*
X173170000Y-79524854D02*
X173170000Y-77940000D01*
X139000000Y-137586212D02*
X139000000Y-133350000D01*
X212143788Y-65720000D02*
X210694277Y-64270489D01*
X202496540Y-65680000D02*
X202522020Y-65705480D01*
X293320000Y-158460000D02*
X289120000Y-162660000D01*
X285583788Y-108440000D02*
X288540000Y-111396212D01*
X274772500Y-188430000D02*
X274772500Y-188607500D01*
X277903788Y-95143788D02*
X277903788Y-95580000D01*
X239287500Y-215930000D02*
X235340000Y-211982500D01*
X155597500Y-99996288D02*
X157373788Y-98220000D01*
X144607500Y-125793712D02*
X143513788Y-124700000D01*
X260429511Y-82960489D02*
X262010000Y-81380000D01*
X279010000Y-105227500D02*
X282371288Y-105227500D01*
X282472500Y-176130000D02*
X282472500Y-178557500D01*
X183310000Y-212610000D02*
X182177500Y-212610000D01*
X200270000Y-67020000D02*
X201610000Y-65680000D01*
X201610000Y-65680000D02*
X202496540Y-65680000D01*
X257860000Y-208790000D02*
X250087500Y-208790000D01*
X260377011Y-82960489D02*
X260429511Y-82960489D01*
X144533788Y-169040000D02*
X141650000Y-166156212D01*
X142110000Y-118280000D02*
X144760000Y-115630000D01*
X162332500Y-197652500D02*
X159470000Y-194790000D01*
X148823788Y-173330000D02*
X144533788Y-169040000D01*
X173177500Y-79670000D02*
X173177500Y-79532354D01*
D37*
%TO.N,VBUS*%
X216560051Y-212843391D02*
X216560051Y-214499964D01*
X216560051Y-212843391D02*
X219000000Y-210403442D01*
D38*
%TO.N,Net-(LED1-Pad2)*%
X181010000Y-208290000D02*
X181690000Y-207610000D01*
X181690000Y-207610000D02*
X183310000Y-207610000D01*
X200540000Y-217650000D02*
X201830000Y-218940000D01*
X200523534Y-217650000D02*
X200540000Y-217650000D01*
%TO.N,Net-(LED2-Pad2)*%
X168730000Y-198910000D02*
X169483788Y-198910000D01*
X186309746Y-212619746D02*
X187570000Y-213880000D01*
X169483788Y-198910000D02*
X170413788Y-199840000D01*
X186309746Y-212610000D02*
X186309746Y-212619746D01*
%TO.N,Net-(LED3-Pad2)*%
X174110000Y-206270000D02*
X174330000Y-206270000D01*
X174060000Y-206220000D02*
X174110000Y-206270000D01*
X159260000Y-188370000D02*
X159260000Y-189580000D01*
X173413534Y-204840000D02*
X173413534Y-205573534D01*
X173413534Y-205573534D02*
X174060000Y-206220000D01*
X159260000Y-189580000D02*
X159470000Y-189790000D01*
%TO.N,Net-(LED4-Pad2)*%
X162469746Y-194790000D02*
X162469746Y-195759746D01*
X149710000Y-176710000D02*
X150710000Y-177710000D01*
X162469746Y-195759746D02*
X162880000Y-196170000D01*
X149710000Y-176520000D02*
X149710000Y-176710000D01*
%TO.N,Net-(LED5-Pad2)*%
X144533788Y-163226212D02*
X144940000Y-162820000D01*
X144533788Y-164040000D02*
X144533788Y-163226212D01*
X153709746Y-182710000D02*
X154440000Y-182710000D01*
X154440000Y-182710000D02*
X155270000Y-183540000D01*
%TO.N,Net-(LED6-Pad2)*%
X140970000Y-149230000D02*
X141190000Y-149450000D01*
X140970000Y-147870000D02*
X140970000Y-149230000D01*
X147533534Y-169040000D02*
X147533534Y-169083534D01*
X147533534Y-169083534D02*
X148400000Y-169950000D01*
%TO.N,Net-(LED7-Pad2)*%
X140757464Y-134343676D02*
X140843788Y-134430000D01*
X144189746Y-154450000D02*
X144189746Y-155239746D01*
X144189746Y-155239746D02*
X144830000Y-155880000D01*
X140757464Y-133147464D02*
X140757464Y-134343676D01*
%TO.N,Net-(LED8-Pad2)*%
X143843534Y-139430000D02*
X143843534Y-140713534D01*
X143843534Y-140713534D02*
X143860000Y-140730000D01*
X143890000Y-140760000D02*
X143890000Y-140870000D01*
X143860000Y-140730000D02*
X143890000Y-140760000D01*
X143890000Y-119323788D02*
X143513788Y-119700000D01*
X143890000Y-118250000D02*
X143890000Y-119323788D01*
%TO.N,Net-(LED10-Pad3)*%
X146513534Y-126243534D02*
X146520000Y-126250000D01*
X146513534Y-124700000D02*
X146513534Y-126243534D01*
X149113788Y-105750000D02*
X149113788Y-104393788D01*
X149113788Y-104393788D02*
X149060000Y-104340000D01*
%TO.N,Net-(LED10-Pad2)*%
X157373788Y-93220000D02*
X157350000Y-93220000D01*
X152113534Y-110750000D02*
X152113534Y-110946466D01*
X152113534Y-110946466D02*
X151040000Y-112020000D01*
X157350000Y-93220000D02*
X156330000Y-92200000D01*
%TO.N,Net-(LED11-Pad2)*%
X160373534Y-98306466D02*
X159350000Y-99330000D01*
X167670000Y-82440000D02*
X167870000Y-82640000D01*
X160373534Y-98220000D02*
X160373534Y-98306466D01*
X166130000Y-82440000D02*
X167670000Y-82440000D01*
%TO.N,Net-(LED12-Pad2)*%
X178630000Y-74040000D02*
X180063788Y-74040000D01*
X180063788Y-74040000D02*
X180403788Y-74380000D01*
X170869746Y-87640000D02*
X170830000Y-87640000D01*
X169920000Y-88550000D02*
X169740000Y-88730000D01*
X170830000Y-87640000D02*
X169920000Y-88550000D01*
X169740000Y-88730000D02*
X169680000Y-88730000D01*
%TO.N,Net-(LED13-Pad2)*%
X193060000Y-68730000D02*
X192720000Y-68390000D01*
X183210000Y-79380000D02*
X182220000Y-80370000D01*
X194313788Y-68730000D02*
X193060000Y-68730000D01*
X183403534Y-79380000D02*
X183210000Y-79380000D01*
%TO.N,Net-(LED14-Pad2)*%
X212130000Y-70733788D02*
X212143788Y-70720000D01*
X196020000Y-74710000D02*
X196145000Y-74585000D01*
X197313534Y-73730000D02*
X197000000Y-73730000D01*
X212130000Y-72140000D02*
X212130000Y-70733788D01*
X197000000Y-73730000D02*
X196145000Y-74585000D01*
%TO.N,Net-(LED15-Pad2)*%
X227193788Y-71050000D02*
X227193788Y-72303788D01*
X227193788Y-72303788D02*
X227210000Y-72320000D01*
X209144042Y-65720000D02*
X207450000Y-65720000D01*
%TO.N,Net-(LED16-Pad2)*%
X244000000Y-74390000D02*
X241863788Y-74390000D01*
X222910000Y-66050000D02*
X222320000Y-66640000D01*
X244370000Y-74760000D02*
X244000000Y-74390000D01*
X224194042Y-66050000D02*
X222910000Y-66050000D01*
%TO.N,Net-(LED17-Pad2)*%
X256284485Y-81300697D02*
X255573788Y-80590000D01*
X238864042Y-69390000D02*
X236950000Y-69390000D01*
X256284485Y-82745515D02*
X256284485Y-81300697D01*
X236920000Y-69360000D02*
X236950000Y-69390000D01*
X236890000Y-69360000D02*
X236920000Y-69360000D01*
%TO.N,Net-(LED18-Pad2)*%
X268180000Y-91080000D02*
X268180000Y-89886212D01*
X250560000Y-75590000D02*
X250310000Y-75340000D01*
X268180000Y-89886212D02*
X267703788Y-89410000D01*
X252574042Y-75590000D02*
X250560000Y-75590000D01*
%TO.N,Net-(LED19-Pad2)*%
X262970000Y-83150000D02*
X262850000Y-83150000D01*
X277010000Y-103600000D02*
X277903788Y-102706212D01*
X263000000Y-83180000D02*
X262970000Y-83150000D01*
X277903788Y-102706212D02*
X277903788Y-100580000D01*
X264230000Y-84410000D02*
X263000000Y-83180000D01*
X264704042Y-84410000D02*
X264230000Y-84410000D01*
%TO.N,Net-(LED20-Pad2)*%
X274904042Y-95580000D02*
X273760000Y-95580000D01*
X286710000Y-115170000D02*
X286710000Y-114566212D01*
X286710000Y-114566212D02*
X285583788Y-113440000D01*
X273760000Y-95580000D02*
X272980000Y-94800000D01*
%TO.N,Net-(LED21-Pad2)*%
X282584042Y-108440000D02*
X282584042Y-108034042D01*
X289113788Y-129100000D02*
X290553788Y-127660000D01*
X282584042Y-108034042D02*
X281450000Y-106900000D01*
X288890000Y-129100000D02*
X289113788Y-129100000D01*
%TO.N,Net-(LED22-Pad2)*%
X288310000Y-120710000D02*
X288410000Y-120610000D01*
X293360500Y-143330500D02*
X292540000Y-142510000D01*
X288410000Y-120610000D02*
X288410000Y-120600000D01*
X287554042Y-121465958D02*
X288310000Y-120710000D01*
X293360500Y-144120000D02*
X293360500Y-143330500D01*
X287554042Y-122660000D02*
X287554042Y-121465958D01*
%TO.N,Net-(LED23-Pad2)*%
X289580000Y-135530000D02*
X289540000Y-135490000D01*
X289540254Y-137510000D02*
X289540254Y-135669746D01*
X291533788Y-158386212D02*
X291533788Y-157380000D01*
X289540254Y-135669746D02*
X289580000Y-135630000D01*
X290470000Y-159450000D02*
X291533788Y-158386212D01*
X289580000Y-135630000D02*
X289580000Y-135530000D01*
%TO.N,Net-(LED24-Pad2)*%
X287670000Y-173600000D02*
X287670000Y-171970000D01*
X288534042Y-152380000D02*
X288534042Y-151045958D01*
X288534042Y-151045958D02*
X289060000Y-150520000D01*
X287670000Y-171970000D02*
X287570000Y-171870000D01*
%TO.N,Net-(LED25-Pad2)*%
X286170000Y-165060000D02*
X286210000Y-165060000D01*
X280890000Y-185440000D02*
X280740000Y-185290000D01*
X284570254Y-166870000D02*
X284570254Y-166659746D01*
X284570254Y-166659746D02*
X286070000Y-165160000D01*
X280890000Y-187320000D02*
X280890000Y-185440000D01*
X286070000Y-165160000D02*
X286170000Y-165060000D01*
%TO.N,Net-(LED26-Pad2)*%
X277740254Y-180290000D02*
X277740254Y-180049746D01*
X272460000Y-198080000D02*
X271380000Y-197000000D01*
X272870000Y-198080000D02*
X272460000Y-198080000D01*
X277740254Y-180049746D02*
X279290000Y-178500000D01*
%TO.N,Net-(LED27-Pad2)*%
X269530000Y-190550000D02*
X269670000Y-190410000D01*
X260920000Y-207740000D02*
X259830000Y-206650000D01*
X269670000Y-190410000D02*
X269710000Y-190410000D01*
X268380254Y-191699746D02*
X269530000Y-190550000D01*
X260920000Y-207840000D02*
X260920000Y-207740000D01*
X268380254Y-192000000D02*
X268380254Y-191699746D01*
%TO.N,Net-(LED28-Pad2)*%
X256830254Y-201650000D02*
X257110000Y-201650000D01*
X247490000Y-214710000D02*
X246570000Y-213790000D01*
X247900000Y-214710000D02*
X247490000Y-214710000D01*
X257110000Y-201650000D02*
X258280000Y-200480000D01*
%TO.N,Net-(LED29-Pad2)*%
X244960000Y-207360000D02*
X245060000Y-207260000D01*
X233560000Y-219150000D02*
X233140000Y-219150000D01*
X245060000Y-207260000D02*
X245210000Y-207260000D01*
X243570254Y-208749746D02*
X244960000Y-207360000D01*
X233140000Y-219150000D02*
X232110000Y-218120000D01*
X243570254Y-208790000D02*
X243570254Y-208749746D01*
D39*
%TO.N,USB-C DATA -*%
X213409936Y-214499964D02*
X213409936Y-213069195D01*
X214270000Y-211210000D02*
X214400000Y-211210000D01*
X213210489Y-212269511D02*
X214270000Y-211210000D01*
X214409936Y-213069323D02*
X214609511Y-212869748D01*
X214609511Y-212869748D02*
X214609511Y-211419511D01*
X213409936Y-213069195D02*
X213210489Y-212869748D01*
X214390000Y-211220000D02*
X214400000Y-211210000D01*
X213210489Y-212869748D02*
X213210489Y-212269511D01*
X214609511Y-211419511D02*
X214400000Y-211210000D01*
%TO.N,USB-C DATA +*%
X213910064Y-212580064D02*
X213910000Y-212580000D01*
X214910064Y-213600814D02*
X215099511Y-213411367D01*
X215099511Y-210729511D02*
X214770000Y-210400000D01*
X214770000Y-210400000D02*
X213380000Y-210400000D01*
X213380000Y-210400000D02*
X212710000Y-211070000D01*
X215099511Y-213411367D02*
X215099511Y-210729511D01*
%TD*%
M02*
