%TF.GenerationSoftware,KiCad,Pcbnew,(6.0.5-0)*%
%TF.CreationDate,2022-05-11T21:53:48+02:00*%
%TF.ProjectId,diodeplate,64696f64-6570-46c6-9174-652e6b696361,rev?*%
%TF.SameCoordinates,Original*%
%TF.FileFunction,Legend,Top*%
%TF.FilePolarity,Positive*%
%FSLAX46Y46*%
G04 Gerber Fmt 4.6, Leading zero omitted, Abs format (unit mm)*
G04 Created by KiCad (PCBNEW (6.0.5-0)) date 2022-05-11 21:53:48*
%MOMM*%
%LPD*%
G01*
G04 APERTURE LIST*
G04 Aperture macros list*
%AMRoundRect*
0 Rectangle with rounded corners*
0 $1 Rounding radius*
0 $2 $3 $4 $5 $6 $7 $8 $9 X,Y pos of 4 corners*
0 Add a 4 corners polygon primitive as box body*
4,1,4,$2,$3,$4,$5,$6,$7,$8,$9,$2,$3,0*
0 Add four circle primitives for the rounded corners*
1,1,$1+$1,$2,$3*
1,1,$1+$1,$4,$5*
1,1,$1+$1,$6,$7*
1,1,$1+$1,$8,$9*
0 Add four rect primitives between the rounded corners*
20,1,$1+$1,$2,$3,$4,$5,0*
20,1,$1+$1,$4,$5,$6,$7,0*
20,1,$1+$1,$6,$7,$8,$9,0*
20,1,$1+$1,$8,$9,$2,$3,0*%
G04 Aperture macros list end*
%ADD10C,0.150000*%
%ADD11C,0.120000*%
%ADD12C,0.254001*%
%ADD13C,0.151994*%
%ADD14C,0.152400*%
%ADD15C,0.059995*%
%ADD16C,0.200000*%
%ADD17C,0.300000*%
%ADD18C,0.127000*%
%ADD19RoundRect,0.237500X-0.300000X-0.237500X0.300000X-0.237500X0.300000X0.237500X-0.300000X0.237500X0*%
%ADD20RoundRect,0.237500X0.237500X-0.250000X0.237500X0.250000X-0.237500X0.250000X-0.237500X-0.250000X0*%
%ADD21RoundRect,0.237500X0.250000X0.237500X-0.250000X0.237500X-0.250000X-0.237500X0.250000X-0.237500X0*%
%ADD22R,1.000000X1.500000*%
%ADD23RoundRect,0.237500X0.237500X-0.300000X0.237500X0.300000X-0.237500X0.300000X-0.237500X-0.300000X0*%
%ADD24R,3.499213X1.406680*%
%ADD25RoundRect,0.237500X-0.237500X0.300000X-0.237500X-0.300000X0.237500X-0.300000X0.237500X0.300000X0*%
%ADD26RoundRect,0.237500X-0.250000X-0.237500X0.250000X-0.237500X0.250000X0.237500X-0.250000X0.237500X0*%
%ADD27O,1.200000X2.200000*%
%ADD28O,1.200000X1.800000*%
%ADD29R,0.300000X1.300000*%
%ADD30R,0.600000X1.300000*%
%ADD31C,0.700025*%
%ADD32R,2.470003X0.980010*%
%ADD33R,2.470003X3.600000*%
%ADD34RoundRect,0.237500X0.300000X0.237500X-0.300000X0.237500X-0.300000X-0.237500X0.300000X-0.237500X0*%
%ADD35R,0.600000X0.419990*%
%ADD36R,0.990602X0.304801*%
%ADD37RoundRect,0.250000X0.550000X-1.412500X0.550000X1.412500X-0.550000X1.412500X-0.550000X-1.412500X0*%
%ADD38R,1.500000X0.900000*%
%ADD39R,0.280010X0.900000*%
%ADD40R,0.900000X0.280010*%
%ADD41R,3.300000X3.300000*%
%ADD42R,2.000000X0.900000*%
%ADD43R,0.900000X2.000000*%
%ADD44R,1.330000X1.330000*%
G04 APERTURE END LIST*
D10*
%TO.C,C32*%
X286657142Y-161587142D02*
X286609523Y-161634761D01*
X286466666Y-161682380D01*
X286371428Y-161682380D01*
X286228571Y-161634761D01*
X286133333Y-161539523D01*
X286085714Y-161444285D01*
X286038095Y-161253809D01*
X286038095Y-161110952D01*
X286085714Y-160920476D01*
X286133333Y-160825238D01*
X286228571Y-160730000D01*
X286371428Y-160682380D01*
X286466666Y-160682380D01*
X286609523Y-160730000D01*
X286657142Y-160777619D01*
X286990476Y-160682380D02*
X287609523Y-160682380D01*
X287276190Y-161063333D01*
X287419047Y-161063333D01*
X287514285Y-161110952D01*
X287561904Y-161158571D01*
X287609523Y-161253809D01*
X287609523Y-161491904D01*
X287561904Y-161587142D01*
X287514285Y-161634761D01*
X287419047Y-161682380D01*
X287133333Y-161682380D01*
X287038095Y-161634761D01*
X286990476Y-161587142D01*
X287990476Y-160777619D02*
X288038095Y-160730000D01*
X288133333Y-160682380D01*
X288371428Y-160682380D01*
X288466666Y-160730000D01*
X288514285Y-160777619D01*
X288561904Y-160872857D01*
X288561904Y-160968095D01*
X288514285Y-161110952D01*
X287942857Y-161682380D01*
X288561904Y-161682380D01*
%TO.C,R1*%
X198092380Y-199626666D02*
X197616190Y-199960000D01*
X198092380Y-200198095D02*
X197092380Y-200198095D01*
X197092380Y-199817142D01*
X197140000Y-199721904D01*
X197187619Y-199674285D01*
X197282857Y-199626666D01*
X197425714Y-199626666D01*
X197520952Y-199674285D01*
X197568571Y-199721904D01*
X197616190Y-199817142D01*
X197616190Y-200198095D01*
X198092380Y-198674285D02*
X198092380Y-199245714D01*
X198092380Y-198960000D02*
X197092380Y-198960000D01*
X197235238Y-199055238D01*
X197330476Y-199150476D01*
X197378095Y-199245714D01*
%TO.C,R2*%
X214333333Y-209952380D02*
X214000000Y-209476190D01*
X213761904Y-209952380D02*
X213761904Y-208952380D01*
X214142857Y-208952380D01*
X214238095Y-209000000D01*
X214285714Y-209047619D01*
X214333333Y-209142857D01*
X214333333Y-209285714D01*
X214285714Y-209380952D01*
X214238095Y-209428571D01*
X214142857Y-209476190D01*
X213761904Y-209476190D01*
X214714285Y-209047619D02*
X214761904Y-209000000D01*
X214857142Y-208952380D01*
X215095238Y-208952380D01*
X215190476Y-209000000D01*
X215238095Y-209047619D01*
X215285714Y-209142857D01*
X215285714Y-209238095D01*
X215238095Y-209380952D01*
X214666666Y-209952380D01*
X215285714Y-209952380D01*
%TO.C,LED9*%
X143894740Y-116252380D02*
X143418549Y-116252380D01*
X143418549Y-115252380D01*
X144228073Y-115728571D02*
X144561407Y-115728571D01*
X144704264Y-116252380D02*
X144228073Y-116252380D01*
X144228073Y-115252380D01*
X144704264Y-115252380D01*
X145132835Y-116252380D02*
X145132835Y-115252380D01*
X145370930Y-115252380D01*
X145513788Y-115300000D01*
X145609026Y-115395238D01*
X145656645Y-115490476D01*
X145704264Y-115680952D01*
X145704264Y-115823809D01*
X145656645Y-116014285D01*
X145609026Y-116109523D01*
X145513788Y-116204761D01*
X145370930Y-116252380D01*
X145132835Y-116252380D01*
X146180454Y-116252380D02*
X146370930Y-116252380D01*
X146466168Y-116204761D01*
X146513788Y-116157142D01*
X146609026Y-116014285D01*
X146656645Y-115823809D01*
X146656645Y-115442857D01*
X146609026Y-115347619D01*
X146561407Y-115300000D01*
X146466168Y-115252380D01*
X146275692Y-115252380D01*
X146180454Y-115300000D01*
X146132835Y-115347619D01*
X146085216Y-115442857D01*
X146085216Y-115680952D01*
X146132835Y-115776190D01*
X146180454Y-115823809D01*
X146275692Y-115871428D01*
X146466168Y-115871428D01*
X146561407Y-115823809D01*
X146609026Y-115776190D01*
X146656645Y-115680952D01*
%TO.C,C28*%
X277937142Y-106732857D02*
X277984761Y-106780476D01*
X278032380Y-106923333D01*
X278032380Y-107018571D01*
X277984761Y-107161428D01*
X277889523Y-107256666D01*
X277794285Y-107304285D01*
X277603809Y-107351904D01*
X277460952Y-107351904D01*
X277270476Y-107304285D01*
X277175238Y-107256666D01*
X277080000Y-107161428D01*
X277032380Y-107018571D01*
X277032380Y-106923333D01*
X277080000Y-106780476D01*
X277127619Y-106732857D01*
X277127619Y-106351904D02*
X277080000Y-106304285D01*
X277032380Y-106209047D01*
X277032380Y-105970952D01*
X277080000Y-105875714D01*
X277127619Y-105828095D01*
X277222857Y-105780476D01*
X277318095Y-105780476D01*
X277460952Y-105828095D01*
X278032380Y-106399523D01*
X278032380Y-105780476D01*
X277460952Y-105209047D02*
X277413333Y-105304285D01*
X277365714Y-105351904D01*
X277270476Y-105399523D01*
X277222857Y-105399523D01*
X277127619Y-105351904D01*
X277080000Y-105304285D01*
X277032380Y-105209047D01*
X277032380Y-105018571D01*
X277080000Y-104923333D01*
X277127619Y-104875714D01*
X277222857Y-104828095D01*
X277270476Y-104828095D01*
X277365714Y-104875714D01*
X277413333Y-104923333D01*
X277460952Y-105018571D01*
X277460952Y-105209047D01*
X277508571Y-105304285D01*
X277556190Y-105351904D01*
X277651428Y-105399523D01*
X277841904Y-105399523D01*
X277937142Y-105351904D01*
X277984761Y-105304285D01*
X278032380Y-105209047D01*
X278032380Y-105018571D01*
X277984761Y-104923333D01*
X277937142Y-104875714D01*
X277841904Y-104828095D01*
X277651428Y-104828095D01*
X277556190Y-104875714D01*
X277508571Y-104923333D01*
X277460952Y-105018571D01*
%TO.C,F1*%
X214896567Y-208883333D02*
X214896567Y-209216666D01*
X215420376Y-209216666D02*
X214420376Y-209216666D01*
X214420376Y-208740476D01*
X215420376Y-207835714D02*
X215420376Y-208407142D01*
X215420376Y-208121428D02*
X214420376Y-208121428D01*
X214563234Y-208216666D01*
X214658472Y-208311904D01*
X214706091Y-208407142D01*
%TO.C,C26*%
X259077142Y-84692857D02*
X259124761Y-84740476D01*
X259172380Y-84883333D01*
X259172380Y-84978571D01*
X259124761Y-85121428D01*
X259029523Y-85216666D01*
X258934285Y-85264285D01*
X258743809Y-85311904D01*
X258600952Y-85311904D01*
X258410476Y-85264285D01*
X258315238Y-85216666D01*
X258220000Y-85121428D01*
X258172380Y-84978571D01*
X258172380Y-84883333D01*
X258220000Y-84740476D01*
X258267619Y-84692857D01*
X258267619Y-84311904D02*
X258220000Y-84264285D01*
X258172380Y-84169047D01*
X258172380Y-83930952D01*
X258220000Y-83835714D01*
X258267619Y-83788095D01*
X258362857Y-83740476D01*
X258458095Y-83740476D01*
X258600952Y-83788095D01*
X259172380Y-84359523D01*
X259172380Y-83740476D01*
X258172380Y-82883333D02*
X258172380Y-83073809D01*
X258220000Y-83169047D01*
X258267619Y-83216666D01*
X258410476Y-83311904D01*
X258600952Y-83359523D01*
X258981904Y-83359523D01*
X259077142Y-83311904D01*
X259124761Y-83264285D01*
X259172380Y-83169047D01*
X259172380Y-82978571D01*
X259124761Y-82883333D01*
X259077142Y-82835714D01*
X258981904Y-82788095D01*
X258743809Y-82788095D01*
X258648571Y-82835714D01*
X258600952Y-82883333D01*
X258553333Y-82978571D01*
X258553333Y-83169047D01*
X258600952Y-83264285D01*
X258648571Y-83311904D01*
X258743809Y-83359523D01*
%TO.C,C39*%
X220897142Y-192962857D02*
X220944761Y-193010476D01*
X220992380Y-193153333D01*
X220992380Y-193248571D01*
X220944761Y-193391428D01*
X220849523Y-193486666D01*
X220754285Y-193534285D01*
X220563809Y-193581904D01*
X220420952Y-193581904D01*
X220230476Y-193534285D01*
X220135238Y-193486666D01*
X220040000Y-193391428D01*
X219992380Y-193248571D01*
X219992380Y-193153333D01*
X220040000Y-193010476D01*
X220087619Y-192962857D01*
X219992380Y-192629523D02*
X219992380Y-192010476D01*
X220373333Y-192343809D01*
X220373333Y-192200952D01*
X220420952Y-192105714D01*
X220468571Y-192058095D01*
X220563809Y-192010476D01*
X220801904Y-192010476D01*
X220897142Y-192058095D01*
X220944761Y-192105714D01*
X220992380Y-192200952D01*
X220992380Y-192486666D01*
X220944761Y-192581904D01*
X220897142Y-192629523D01*
X220992380Y-191534285D02*
X220992380Y-191343809D01*
X220944761Y-191248571D01*
X220897142Y-191200952D01*
X220754285Y-191105714D01*
X220563809Y-191058095D01*
X220182857Y-191058095D01*
X220087619Y-191105714D01*
X220040000Y-191153333D01*
X219992380Y-191248571D01*
X219992380Y-191439047D01*
X220040000Y-191534285D01*
X220087619Y-191581904D01*
X220182857Y-191629523D01*
X220420952Y-191629523D01*
X220516190Y-191581904D01*
X220563809Y-191534285D01*
X220611428Y-191439047D01*
X220611428Y-191248571D01*
X220563809Y-191153333D01*
X220516190Y-191105714D01*
X220420952Y-191058095D01*
%TO.C,R4*%
X191023333Y-171852444D02*
X190690000Y-171376254D01*
X190451904Y-171852444D02*
X190451904Y-170852444D01*
X190832857Y-170852444D01*
X190928095Y-170900064D01*
X190975714Y-170947683D01*
X191023333Y-171042921D01*
X191023333Y-171185778D01*
X190975714Y-171281016D01*
X190928095Y-171328635D01*
X190832857Y-171376254D01*
X190451904Y-171376254D01*
X191880476Y-171185778D02*
X191880476Y-171852444D01*
X191642380Y-170804825D02*
X191404285Y-171519111D01*
X192023333Y-171519111D01*
%TO.C,C2*%
X189247142Y-199166666D02*
X189294761Y-199214285D01*
X189342380Y-199357142D01*
X189342380Y-199452380D01*
X189294761Y-199595238D01*
X189199523Y-199690476D01*
X189104285Y-199738095D01*
X188913809Y-199785714D01*
X188770952Y-199785714D01*
X188580476Y-199738095D01*
X188485238Y-199690476D01*
X188390000Y-199595238D01*
X188342380Y-199452380D01*
X188342380Y-199357142D01*
X188390000Y-199214285D01*
X188437619Y-199166666D01*
X188437619Y-198785714D02*
X188390000Y-198738095D01*
X188342380Y-198642857D01*
X188342380Y-198404761D01*
X188390000Y-198309523D01*
X188437619Y-198261904D01*
X188532857Y-198214285D01*
X188628095Y-198214285D01*
X188770952Y-198261904D01*
X189342380Y-198833333D01*
X189342380Y-198214285D01*
%TO.C,LED10*%
X149254761Y-103782380D02*
X148778571Y-103782380D01*
X148778571Y-102782380D01*
X149588095Y-103258571D02*
X149921428Y-103258571D01*
X150064285Y-103782380D02*
X149588095Y-103782380D01*
X149588095Y-102782380D01*
X150064285Y-102782380D01*
X150492857Y-103782380D02*
X150492857Y-102782380D01*
X150730952Y-102782380D01*
X150873809Y-102830000D01*
X150969047Y-102925238D01*
X151016666Y-103020476D01*
X151064285Y-103210952D01*
X151064285Y-103353809D01*
X151016666Y-103544285D01*
X150969047Y-103639523D01*
X150873809Y-103734761D01*
X150730952Y-103782380D01*
X150492857Y-103782380D01*
X152016666Y-103782380D02*
X151445238Y-103782380D01*
X151730952Y-103782380D02*
X151730952Y-102782380D01*
X151635714Y-102925238D01*
X151540476Y-103020476D01*
X151445238Y-103068095D01*
X152635714Y-102782380D02*
X152730952Y-102782380D01*
X152826190Y-102830000D01*
X152873809Y-102877619D01*
X152921428Y-102972857D01*
X152969047Y-103163333D01*
X152969047Y-103401428D01*
X152921428Y-103591904D01*
X152873809Y-103687142D01*
X152826190Y-103734761D01*
X152730952Y-103782380D01*
X152635714Y-103782380D01*
X152540476Y-103734761D01*
X152492857Y-103687142D01*
X152445238Y-103591904D01*
X152397619Y-103401428D01*
X152397619Y-103163333D01*
X152445238Y-102972857D01*
X152492857Y-102877619D01*
X152540476Y-102830000D01*
X152635714Y-102782380D01*
%TO.C,C25*%
X245887142Y-75172857D02*
X245934761Y-75220476D01*
X245982380Y-75363333D01*
X245982380Y-75458571D01*
X245934761Y-75601428D01*
X245839523Y-75696666D01*
X245744285Y-75744285D01*
X245553809Y-75791904D01*
X245410952Y-75791904D01*
X245220476Y-75744285D01*
X245125238Y-75696666D01*
X245030000Y-75601428D01*
X244982380Y-75458571D01*
X244982380Y-75363333D01*
X245030000Y-75220476D01*
X245077619Y-75172857D01*
X245077619Y-74791904D02*
X245030000Y-74744285D01*
X244982380Y-74649047D01*
X244982380Y-74410952D01*
X245030000Y-74315714D01*
X245077619Y-74268095D01*
X245172857Y-74220476D01*
X245268095Y-74220476D01*
X245410952Y-74268095D01*
X245982380Y-74839523D01*
X245982380Y-74220476D01*
X244982380Y-73315714D02*
X244982380Y-73791904D01*
X245458571Y-73839523D01*
X245410952Y-73791904D01*
X245363333Y-73696666D01*
X245363333Y-73458571D01*
X245410952Y-73363333D01*
X245458571Y-73315714D01*
X245553809Y-73268095D01*
X245791904Y-73268095D01*
X245887142Y-73315714D01*
X245934761Y-73363333D01*
X245982380Y-73458571D01*
X245982380Y-73696666D01*
X245934761Y-73791904D01*
X245887142Y-73839523D01*
%TO.C,C23*%
X216947142Y-67480357D02*
X216994761Y-67527976D01*
X217042380Y-67670833D01*
X217042380Y-67766071D01*
X216994761Y-67908928D01*
X216899523Y-68004166D01*
X216804285Y-68051785D01*
X216613809Y-68099404D01*
X216470952Y-68099404D01*
X216280476Y-68051785D01*
X216185238Y-68004166D01*
X216090000Y-67908928D01*
X216042380Y-67766071D01*
X216042380Y-67670833D01*
X216090000Y-67527976D01*
X216137619Y-67480357D01*
X216137619Y-67099404D02*
X216090000Y-67051785D01*
X216042380Y-66956547D01*
X216042380Y-66718452D01*
X216090000Y-66623214D01*
X216137619Y-66575595D01*
X216232857Y-66527976D01*
X216328095Y-66527976D01*
X216470952Y-66575595D01*
X217042380Y-67147023D01*
X217042380Y-66527976D01*
X216042380Y-66194642D02*
X216042380Y-65575595D01*
X216423333Y-65908928D01*
X216423333Y-65766071D01*
X216470952Y-65670833D01*
X216518571Y-65623214D01*
X216613809Y-65575595D01*
X216851904Y-65575595D01*
X216947142Y-65623214D01*
X216994761Y-65670833D01*
X217042380Y-65766071D01*
X217042380Y-66051785D01*
X216994761Y-66147023D01*
X216947142Y-66194642D01*
%TO.C,LED28*%
X256734761Y-211002380D02*
X256258571Y-211002380D01*
X256258571Y-210002380D01*
X257068095Y-210478571D02*
X257401428Y-210478571D01*
X257544285Y-211002380D02*
X257068095Y-211002380D01*
X257068095Y-210002380D01*
X257544285Y-210002380D01*
X257972857Y-211002380D02*
X257972857Y-210002380D01*
X258210952Y-210002380D01*
X258353809Y-210050000D01*
X258449047Y-210145238D01*
X258496666Y-210240476D01*
X258544285Y-210430952D01*
X258544285Y-210573809D01*
X258496666Y-210764285D01*
X258449047Y-210859523D01*
X258353809Y-210954761D01*
X258210952Y-211002380D01*
X257972857Y-211002380D01*
X258925238Y-210097619D02*
X258972857Y-210050000D01*
X259068095Y-210002380D01*
X259306190Y-210002380D01*
X259401428Y-210050000D01*
X259449047Y-210097619D01*
X259496666Y-210192857D01*
X259496666Y-210288095D01*
X259449047Y-210430952D01*
X258877619Y-211002380D01*
X259496666Y-211002380D01*
X260068095Y-210430952D02*
X259972857Y-210383333D01*
X259925238Y-210335714D01*
X259877619Y-210240476D01*
X259877619Y-210192857D01*
X259925238Y-210097619D01*
X259972857Y-210050000D01*
X260068095Y-210002380D01*
X260258571Y-210002380D01*
X260353809Y-210050000D01*
X260401428Y-210097619D01*
X260449047Y-210192857D01*
X260449047Y-210240476D01*
X260401428Y-210335714D01*
X260353809Y-210383333D01*
X260258571Y-210430952D01*
X260068095Y-210430952D01*
X259972857Y-210478571D01*
X259925238Y-210526190D01*
X259877619Y-210621428D01*
X259877619Y-210811904D01*
X259925238Y-210907142D01*
X259972857Y-210954761D01*
X260068095Y-211002380D01*
X260258571Y-211002380D01*
X260353809Y-210954761D01*
X260401428Y-210907142D01*
X260449047Y-210811904D01*
X260449047Y-210621428D01*
X260401428Y-210526190D01*
X260353809Y-210478571D01*
X260258571Y-210430952D01*
%TO.C,LED26*%
X277644761Y-189642380D02*
X277168571Y-189642380D01*
X277168571Y-188642380D01*
X277978095Y-189118571D02*
X278311428Y-189118571D01*
X278454285Y-189642380D02*
X277978095Y-189642380D01*
X277978095Y-188642380D01*
X278454285Y-188642380D01*
X278882857Y-189642380D02*
X278882857Y-188642380D01*
X279120952Y-188642380D01*
X279263809Y-188690000D01*
X279359047Y-188785238D01*
X279406666Y-188880476D01*
X279454285Y-189070952D01*
X279454285Y-189213809D01*
X279406666Y-189404285D01*
X279359047Y-189499523D01*
X279263809Y-189594761D01*
X279120952Y-189642380D01*
X278882857Y-189642380D01*
X279835238Y-188737619D02*
X279882857Y-188690000D01*
X279978095Y-188642380D01*
X280216190Y-188642380D01*
X280311428Y-188690000D01*
X280359047Y-188737619D01*
X280406666Y-188832857D01*
X280406666Y-188928095D01*
X280359047Y-189070952D01*
X279787619Y-189642380D01*
X280406666Y-189642380D01*
X281263809Y-188642380D02*
X281073333Y-188642380D01*
X280978095Y-188690000D01*
X280930476Y-188737619D01*
X280835238Y-188880476D01*
X280787619Y-189070952D01*
X280787619Y-189451904D01*
X280835238Y-189547142D01*
X280882857Y-189594761D01*
X280978095Y-189642380D01*
X281168571Y-189642380D01*
X281263809Y-189594761D01*
X281311428Y-189547142D01*
X281359047Y-189451904D01*
X281359047Y-189213809D01*
X281311428Y-189118571D01*
X281263809Y-189070952D01*
X281168571Y-189023333D01*
X280978095Y-189023333D01*
X280882857Y-189070952D01*
X280835238Y-189118571D01*
X280787619Y-189213809D01*
%TO.C,C38*%
X204357142Y-175412857D02*
X204404761Y-175460476D01*
X204452380Y-175603333D01*
X204452380Y-175698571D01*
X204404761Y-175841428D01*
X204309523Y-175936666D01*
X204214285Y-175984285D01*
X204023809Y-176031904D01*
X203880952Y-176031904D01*
X203690476Y-175984285D01*
X203595238Y-175936666D01*
X203500000Y-175841428D01*
X203452380Y-175698571D01*
X203452380Y-175603333D01*
X203500000Y-175460476D01*
X203547619Y-175412857D01*
X203452380Y-175079523D02*
X203452380Y-174460476D01*
X203833333Y-174793809D01*
X203833333Y-174650952D01*
X203880952Y-174555714D01*
X203928571Y-174508095D01*
X204023809Y-174460476D01*
X204261904Y-174460476D01*
X204357142Y-174508095D01*
X204404761Y-174555714D01*
X204452380Y-174650952D01*
X204452380Y-174936666D01*
X204404761Y-175031904D01*
X204357142Y-175079523D01*
X203880952Y-173889047D02*
X203833333Y-173984285D01*
X203785714Y-174031904D01*
X203690476Y-174079523D01*
X203642857Y-174079523D01*
X203547619Y-174031904D01*
X203500000Y-173984285D01*
X203452380Y-173889047D01*
X203452380Y-173698571D01*
X203500000Y-173603333D01*
X203547619Y-173555714D01*
X203642857Y-173508095D01*
X203690476Y-173508095D01*
X203785714Y-173555714D01*
X203833333Y-173603333D01*
X203880952Y-173698571D01*
X203880952Y-173889047D01*
X203928571Y-173984285D01*
X203976190Y-174031904D01*
X204071428Y-174079523D01*
X204261904Y-174079523D01*
X204357142Y-174031904D01*
X204404761Y-173984285D01*
X204452380Y-173889047D01*
X204452380Y-173698571D01*
X204404761Y-173603333D01*
X204357142Y-173555714D01*
X204261904Y-173508095D01*
X204071428Y-173508095D01*
X203976190Y-173555714D01*
X203928571Y-173603333D01*
X203880952Y-173698571D01*
%TO.C,LED2*%
X183690952Y-204162380D02*
X183214761Y-204162380D01*
X183214761Y-203162380D01*
X184024285Y-203638571D02*
X184357619Y-203638571D01*
X184500476Y-204162380D02*
X184024285Y-204162380D01*
X184024285Y-203162380D01*
X184500476Y-203162380D01*
X184929047Y-204162380D02*
X184929047Y-203162380D01*
X185167142Y-203162380D01*
X185310000Y-203210000D01*
X185405238Y-203305238D01*
X185452857Y-203400476D01*
X185500476Y-203590952D01*
X185500476Y-203733809D01*
X185452857Y-203924285D01*
X185405238Y-204019523D01*
X185310000Y-204114761D01*
X185167142Y-204162380D01*
X184929047Y-204162380D01*
X185881428Y-203257619D02*
X185929047Y-203210000D01*
X186024285Y-203162380D01*
X186262380Y-203162380D01*
X186357619Y-203210000D01*
X186405238Y-203257619D01*
X186452857Y-203352857D01*
X186452857Y-203448095D01*
X186405238Y-203590952D01*
X185833809Y-204162380D01*
X186452857Y-204162380D01*
%TO.C,U3*%
X213288054Y-213269975D02*
X213288054Y-214079499D01*
X213335673Y-214174737D01*
X213383292Y-214222356D01*
X213478530Y-214269975D01*
X213669006Y-214269975D01*
X213764244Y-214222356D01*
X213811863Y-214174737D01*
X213859482Y-214079499D01*
X213859482Y-213269975D01*
X214240435Y-213269975D02*
X214859482Y-213269975D01*
X214526149Y-213650928D01*
X214669006Y-213650928D01*
X214764244Y-213698547D01*
X214811863Y-213746166D01*
X214859482Y-213841404D01*
X214859482Y-214079499D01*
X214811863Y-214174737D01*
X214764244Y-214222356D01*
X214669006Y-214269975D01*
X214383292Y-214269975D01*
X214288054Y-214222356D01*
X214240435Y-214174737D01*
%TO.C,R6*%
X192853333Y-170112508D02*
X192520000Y-169636318D01*
X192281904Y-170112508D02*
X192281904Y-169112508D01*
X192662857Y-169112508D01*
X192758095Y-169160128D01*
X192805714Y-169207747D01*
X192853333Y-169302985D01*
X192853333Y-169445842D01*
X192805714Y-169541080D01*
X192758095Y-169588699D01*
X192662857Y-169636318D01*
X192281904Y-169636318D01*
X193710476Y-169112508D02*
X193520000Y-169112508D01*
X193424761Y-169160128D01*
X193377142Y-169207747D01*
X193281904Y-169350604D01*
X193234285Y-169541080D01*
X193234285Y-169922032D01*
X193281904Y-170017270D01*
X193329523Y-170064889D01*
X193424761Y-170112508D01*
X193615238Y-170112508D01*
X193710476Y-170064889D01*
X193758095Y-170017270D01*
X193805714Y-169922032D01*
X193805714Y-169683937D01*
X193758095Y-169588699D01*
X193710476Y-169541080D01*
X193615238Y-169493461D01*
X193424761Y-169493461D01*
X193329523Y-169541080D01*
X193281904Y-169588699D01*
X193234285Y-169683937D01*
%TO.C,C14*%
X227377142Y-201202857D02*
X227424761Y-201250476D01*
X227472380Y-201393333D01*
X227472380Y-201488571D01*
X227424761Y-201631428D01*
X227329523Y-201726666D01*
X227234285Y-201774285D01*
X227043809Y-201821904D01*
X226900952Y-201821904D01*
X226710476Y-201774285D01*
X226615238Y-201726666D01*
X226520000Y-201631428D01*
X226472380Y-201488571D01*
X226472380Y-201393333D01*
X226520000Y-201250476D01*
X226567619Y-201202857D01*
X227472380Y-200250476D02*
X227472380Y-200821904D01*
X227472380Y-200536190D02*
X226472380Y-200536190D01*
X226615238Y-200631428D01*
X226710476Y-200726666D01*
X226758095Y-200821904D01*
X226805714Y-199393333D02*
X227472380Y-199393333D01*
X226424761Y-199631428D02*
X227139047Y-199869523D01*
X227139047Y-199250476D01*
%TO.C,U4*%
X234188095Y-206778593D02*
X234188095Y-207588117D01*
X234235714Y-207683355D01*
X234283333Y-207730974D01*
X234378571Y-207778593D01*
X234569047Y-207778593D01*
X234664285Y-207730974D01*
X234711904Y-207683355D01*
X234759523Y-207588117D01*
X234759523Y-206778593D01*
X235664285Y-207111927D02*
X235664285Y-207778593D01*
X235426190Y-206730974D02*
X235188095Y-207445260D01*
X235807142Y-207445260D01*
%TO.C,LED15*%
X209048549Y-75072380D02*
X208572359Y-75072380D01*
X208572359Y-74072380D01*
X209381883Y-74548571D02*
X209715216Y-74548571D01*
X209858073Y-75072380D02*
X209381883Y-75072380D01*
X209381883Y-74072380D01*
X209858073Y-74072380D01*
X210286645Y-75072380D02*
X210286645Y-74072380D01*
X210524740Y-74072380D01*
X210667597Y-74120000D01*
X210762835Y-74215238D01*
X210810454Y-74310476D01*
X210858073Y-74500952D01*
X210858073Y-74643809D01*
X210810454Y-74834285D01*
X210762835Y-74929523D01*
X210667597Y-75024761D01*
X210524740Y-75072380D01*
X210286645Y-75072380D01*
X211810454Y-75072380D02*
X211239026Y-75072380D01*
X211524740Y-75072380D02*
X211524740Y-74072380D01*
X211429502Y-74215238D01*
X211334264Y-74310476D01*
X211239026Y-74358095D01*
X212715216Y-74072380D02*
X212239026Y-74072380D01*
X212191407Y-74548571D01*
X212239026Y-74500952D01*
X212334264Y-74453333D01*
X212572359Y-74453333D01*
X212667597Y-74500952D01*
X212715216Y-74548571D01*
X212762835Y-74643809D01*
X212762835Y-74881904D01*
X212715216Y-74977142D01*
X212667597Y-75024761D01*
X212572359Y-75072380D01*
X212334264Y-75072380D01*
X212239026Y-75024761D01*
X212191407Y-74977142D01*
%TO.C,LED20*%
X274808549Y-104932380D02*
X274332359Y-104932380D01*
X274332359Y-103932380D01*
X275141883Y-104408571D02*
X275475216Y-104408571D01*
X275618073Y-104932380D02*
X275141883Y-104932380D01*
X275141883Y-103932380D01*
X275618073Y-103932380D01*
X276046645Y-104932380D02*
X276046645Y-103932380D01*
X276284740Y-103932380D01*
X276427597Y-103980000D01*
X276522835Y-104075238D01*
X276570454Y-104170476D01*
X276618073Y-104360952D01*
X276618073Y-104503809D01*
X276570454Y-104694285D01*
X276522835Y-104789523D01*
X276427597Y-104884761D01*
X276284740Y-104932380D01*
X276046645Y-104932380D01*
X276999026Y-104027619D02*
X277046645Y-103980000D01*
X277141883Y-103932380D01*
X277379978Y-103932380D01*
X277475216Y-103980000D01*
X277522835Y-104027619D01*
X277570454Y-104122857D01*
X277570454Y-104218095D01*
X277522835Y-104360952D01*
X276951407Y-104932380D01*
X277570454Y-104932380D01*
X278189502Y-103932380D02*
X278284740Y-103932380D01*
X278379978Y-103980000D01*
X278427597Y-104027619D01*
X278475216Y-104122857D01*
X278522835Y-104313333D01*
X278522835Y-104551428D01*
X278475216Y-104741904D01*
X278427597Y-104837142D01*
X278379978Y-104884761D01*
X278284740Y-104932380D01*
X278189502Y-104932380D01*
X278094264Y-104884761D01*
X278046645Y-104837142D01*
X277999026Y-104741904D01*
X277951407Y-104551428D01*
X277951407Y-104313333D01*
X277999026Y-104122857D01*
X278046645Y-104027619D01*
X278094264Y-103980000D01*
X278189502Y-103932380D01*
%TO.C,LED29*%
X243474761Y-218142380D02*
X242998571Y-218142380D01*
X242998571Y-217142380D01*
X243808095Y-217618571D02*
X244141428Y-217618571D01*
X244284285Y-218142380D02*
X243808095Y-218142380D01*
X243808095Y-217142380D01*
X244284285Y-217142380D01*
X244712857Y-218142380D02*
X244712857Y-217142380D01*
X244950952Y-217142380D01*
X245093809Y-217190000D01*
X245189047Y-217285238D01*
X245236666Y-217380476D01*
X245284285Y-217570952D01*
X245284285Y-217713809D01*
X245236666Y-217904285D01*
X245189047Y-217999523D01*
X245093809Y-218094761D01*
X244950952Y-218142380D01*
X244712857Y-218142380D01*
X245665238Y-217237619D02*
X245712857Y-217190000D01*
X245808095Y-217142380D01*
X246046190Y-217142380D01*
X246141428Y-217190000D01*
X246189047Y-217237619D01*
X246236666Y-217332857D01*
X246236666Y-217428095D01*
X246189047Y-217570952D01*
X245617619Y-218142380D01*
X246236666Y-218142380D01*
X246712857Y-218142380D02*
X246903333Y-218142380D01*
X246998571Y-218094761D01*
X247046190Y-218047142D01*
X247141428Y-217904285D01*
X247189047Y-217713809D01*
X247189047Y-217332857D01*
X247141428Y-217237619D01*
X247093809Y-217190000D01*
X246998571Y-217142380D01*
X246808095Y-217142380D01*
X246712857Y-217190000D01*
X246665238Y-217237619D01*
X246617619Y-217332857D01*
X246617619Y-217570952D01*
X246665238Y-217666190D01*
X246712857Y-217713809D01*
X246808095Y-217761428D01*
X246998571Y-217761428D01*
X247093809Y-217713809D01*
X247141428Y-217666190D01*
X247189047Y-217570952D01*
%TO.C,LED16*%
X224098549Y-75402380D02*
X223622359Y-75402380D01*
X223622359Y-74402380D01*
X224431883Y-74878571D02*
X224765216Y-74878571D01*
X224908073Y-75402380D02*
X224431883Y-75402380D01*
X224431883Y-74402380D01*
X224908073Y-74402380D01*
X225336645Y-75402380D02*
X225336645Y-74402380D01*
X225574740Y-74402380D01*
X225717597Y-74450000D01*
X225812835Y-74545238D01*
X225860454Y-74640476D01*
X225908073Y-74830952D01*
X225908073Y-74973809D01*
X225860454Y-75164285D01*
X225812835Y-75259523D01*
X225717597Y-75354761D01*
X225574740Y-75402380D01*
X225336645Y-75402380D01*
X226860454Y-75402380D02*
X226289026Y-75402380D01*
X226574740Y-75402380D02*
X226574740Y-74402380D01*
X226479502Y-74545238D01*
X226384264Y-74640476D01*
X226289026Y-74688095D01*
X227717597Y-74402380D02*
X227527121Y-74402380D01*
X227431883Y-74450000D01*
X227384264Y-74497619D01*
X227289026Y-74640476D01*
X227241407Y-74830952D01*
X227241407Y-75211904D01*
X227289026Y-75307142D01*
X227336645Y-75354761D01*
X227431883Y-75402380D01*
X227622359Y-75402380D01*
X227717597Y-75354761D01*
X227765216Y-75307142D01*
X227812835Y-75211904D01*
X227812835Y-74973809D01*
X227765216Y-74878571D01*
X227717597Y-74830952D01*
X227622359Y-74783333D01*
X227431883Y-74783333D01*
X227336645Y-74830952D01*
X227289026Y-74878571D01*
X227241407Y-74973809D01*
%TO.C,LED4*%
X159850952Y-186342380D02*
X159374761Y-186342380D01*
X159374761Y-185342380D01*
X160184285Y-185818571D02*
X160517619Y-185818571D01*
X160660476Y-186342380D02*
X160184285Y-186342380D01*
X160184285Y-185342380D01*
X160660476Y-185342380D01*
X161089047Y-186342380D02*
X161089047Y-185342380D01*
X161327142Y-185342380D01*
X161470000Y-185390000D01*
X161565238Y-185485238D01*
X161612857Y-185580476D01*
X161660476Y-185770952D01*
X161660476Y-185913809D01*
X161612857Y-186104285D01*
X161565238Y-186199523D01*
X161470000Y-186294761D01*
X161327142Y-186342380D01*
X161089047Y-186342380D01*
X162517619Y-185675714D02*
X162517619Y-186342380D01*
X162279523Y-185294761D02*
X162041428Y-186009047D01*
X162660476Y-186009047D01*
%TO.C,C34*%
X273267142Y-187357142D02*
X273219523Y-187404761D01*
X273076666Y-187452380D01*
X272981428Y-187452380D01*
X272838571Y-187404761D01*
X272743333Y-187309523D01*
X272695714Y-187214285D01*
X272648095Y-187023809D01*
X272648095Y-186880952D01*
X272695714Y-186690476D01*
X272743333Y-186595238D01*
X272838571Y-186500000D01*
X272981428Y-186452380D01*
X273076666Y-186452380D01*
X273219523Y-186500000D01*
X273267142Y-186547619D01*
X273600476Y-186452380D02*
X274219523Y-186452380D01*
X273886190Y-186833333D01*
X274029047Y-186833333D01*
X274124285Y-186880952D01*
X274171904Y-186928571D01*
X274219523Y-187023809D01*
X274219523Y-187261904D01*
X274171904Y-187357142D01*
X274124285Y-187404761D01*
X274029047Y-187452380D01*
X273743333Y-187452380D01*
X273648095Y-187404761D01*
X273600476Y-187357142D01*
X275076666Y-186785714D02*
X275076666Y-187452380D01*
X274838571Y-186404761D02*
X274600476Y-187119047D01*
X275219523Y-187119047D01*
%TO.C,C18*%
X155817142Y-103657142D02*
X155769523Y-103704761D01*
X155626666Y-103752380D01*
X155531428Y-103752380D01*
X155388571Y-103704761D01*
X155293333Y-103609523D01*
X155245714Y-103514285D01*
X155198095Y-103323809D01*
X155198095Y-103180952D01*
X155245714Y-102990476D01*
X155293333Y-102895238D01*
X155388571Y-102800000D01*
X155531428Y-102752380D01*
X155626666Y-102752380D01*
X155769523Y-102800000D01*
X155817142Y-102847619D01*
X156769523Y-103752380D02*
X156198095Y-103752380D01*
X156483809Y-103752380D02*
X156483809Y-102752380D01*
X156388571Y-102895238D01*
X156293333Y-102990476D01*
X156198095Y-103038095D01*
X157340952Y-103180952D02*
X157245714Y-103133333D01*
X157198095Y-103085714D01*
X157150476Y-102990476D01*
X157150476Y-102942857D01*
X157198095Y-102847619D01*
X157245714Y-102800000D01*
X157340952Y-102752380D01*
X157531428Y-102752380D01*
X157626666Y-102800000D01*
X157674285Y-102847619D01*
X157721904Y-102942857D01*
X157721904Y-102990476D01*
X157674285Y-103085714D01*
X157626666Y-103133333D01*
X157531428Y-103180952D01*
X157340952Y-103180952D01*
X157245714Y-103228571D01*
X157198095Y-103276190D01*
X157150476Y-103371428D01*
X157150476Y-103561904D01*
X157198095Y-103657142D01*
X157245714Y-103704761D01*
X157340952Y-103752380D01*
X157531428Y-103752380D01*
X157626666Y-103704761D01*
X157674285Y-103657142D01*
X157721904Y-103561904D01*
X157721904Y-103371428D01*
X157674285Y-103276190D01*
X157626666Y-103228571D01*
X157531428Y-103180952D01*
%TO.C,U5*%
X227225168Y-187479236D02*
X227225168Y-188288760D01*
X227272787Y-188383998D01*
X227320406Y-188431617D01*
X227415644Y-188479236D01*
X227606120Y-188479236D01*
X227701358Y-188431617D01*
X227748977Y-188383998D01*
X227796596Y-188288760D01*
X227796596Y-187479236D01*
X228748977Y-187479236D02*
X228272787Y-187479236D01*
X228225168Y-187955427D01*
X228272787Y-187907808D01*
X228368025Y-187860189D01*
X228606120Y-187860189D01*
X228701358Y-187907808D01*
X228748977Y-187955427D01*
X228796596Y-188050665D01*
X228796596Y-188288760D01*
X228748977Y-188383998D01*
X228701358Y-188431617D01*
X228606120Y-188479236D01*
X228368025Y-188479236D01*
X228272787Y-188431617D01*
X228225168Y-188383998D01*
%TO.C,C30*%
X289347142Y-130977142D02*
X289299523Y-131024761D01*
X289156666Y-131072380D01*
X289061428Y-131072380D01*
X288918571Y-131024761D01*
X288823333Y-130929523D01*
X288775714Y-130834285D01*
X288728095Y-130643809D01*
X288728095Y-130500952D01*
X288775714Y-130310476D01*
X288823333Y-130215238D01*
X288918571Y-130120000D01*
X289061428Y-130072380D01*
X289156666Y-130072380D01*
X289299523Y-130120000D01*
X289347142Y-130167619D01*
X289680476Y-130072380D02*
X290299523Y-130072380D01*
X289966190Y-130453333D01*
X290109047Y-130453333D01*
X290204285Y-130500952D01*
X290251904Y-130548571D01*
X290299523Y-130643809D01*
X290299523Y-130881904D01*
X290251904Y-130977142D01*
X290204285Y-131024761D01*
X290109047Y-131072380D01*
X289823333Y-131072380D01*
X289728095Y-131024761D01*
X289680476Y-130977142D01*
X290918571Y-130072380D02*
X291013809Y-130072380D01*
X291109047Y-130120000D01*
X291156666Y-130167619D01*
X291204285Y-130262857D01*
X291251904Y-130453333D01*
X291251904Y-130691428D01*
X291204285Y-130881904D01*
X291156666Y-130977142D01*
X291109047Y-131024761D01*
X291013809Y-131072380D01*
X290918571Y-131072380D01*
X290823333Y-131024761D01*
X290775714Y-130977142D01*
X290728095Y-130881904D01*
X290680476Y-130691428D01*
X290680476Y-130453333D01*
X290728095Y-130262857D01*
X290775714Y-130167619D01*
X290823333Y-130120000D01*
X290918571Y-130072380D01*
%TO.C,C8*%
X149833333Y-175117142D02*
X149785714Y-175164761D01*
X149642857Y-175212380D01*
X149547619Y-175212380D01*
X149404761Y-175164761D01*
X149309523Y-175069523D01*
X149261904Y-174974285D01*
X149214285Y-174783809D01*
X149214285Y-174640952D01*
X149261904Y-174450476D01*
X149309523Y-174355238D01*
X149404761Y-174260000D01*
X149547619Y-174212380D01*
X149642857Y-174212380D01*
X149785714Y-174260000D01*
X149833333Y-174307619D01*
X150404761Y-174640952D02*
X150309523Y-174593333D01*
X150261904Y-174545714D01*
X150214285Y-174450476D01*
X150214285Y-174402857D01*
X150261904Y-174307619D01*
X150309523Y-174260000D01*
X150404761Y-174212380D01*
X150595238Y-174212380D01*
X150690476Y-174260000D01*
X150738095Y-174307619D01*
X150785714Y-174402857D01*
X150785714Y-174450476D01*
X150738095Y-174545714D01*
X150690476Y-174593333D01*
X150595238Y-174640952D01*
X150404761Y-174640952D01*
X150309523Y-174688571D01*
X150261904Y-174736190D01*
X150214285Y-174831428D01*
X150214285Y-175021904D01*
X150261904Y-175117142D01*
X150309523Y-175164761D01*
X150404761Y-175212380D01*
X150595238Y-175212380D01*
X150690476Y-175164761D01*
X150738095Y-175117142D01*
X150785714Y-175021904D01*
X150785714Y-174831428D01*
X150738095Y-174736190D01*
X150690476Y-174688571D01*
X150595238Y-174640952D01*
%TO.C,C35*%
X261819642Y-198127142D02*
X261772023Y-198174761D01*
X261629166Y-198222380D01*
X261533928Y-198222380D01*
X261391071Y-198174761D01*
X261295833Y-198079523D01*
X261248214Y-197984285D01*
X261200595Y-197793809D01*
X261200595Y-197650952D01*
X261248214Y-197460476D01*
X261295833Y-197365238D01*
X261391071Y-197270000D01*
X261533928Y-197222380D01*
X261629166Y-197222380D01*
X261772023Y-197270000D01*
X261819642Y-197317619D01*
X262152976Y-197222380D02*
X262772023Y-197222380D01*
X262438690Y-197603333D01*
X262581547Y-197603333D01*
X262676785Y-197650952D01*
X262724404Y-197698571D01*
X262772023Y-197793809D01*
X262772023Y-198031904D01*
X262724404Y-198127142D01*
X262676785Y-198174761D01*
X262581547Y-198222380D01*
X262295833Y-198222380D01*
X262200595Y-198174761D01*
X262152976Y-198127142D01*
X263676785Y-197222380D02*
X263200595Y-197222380D01*
X263152976Y-197698571D01*
X263200595Y-197650952D01*
X263295833Y-197603333D01*
X263533928Y-197603333D01*
X263629166Y-197650952D01*
X263676785Y-197698571D01*
X263724404Y-197793809D01*
X263724404Y-198031904D01*
X263676785Y-198127142D01*
X263629166Y-198174761D01*
X263533928Y-198222380D01*
X263295833Y-198222380D01*
X263200595Y-198174761D01*
X263152976Y-198127142D01*
%TO.C,C19*%
X166057142Y-92877142D02*
X166009523Y-92924761D01*
X165866666Y-92972380D01*
X165771428Y-92972380D01*
X165628571Y-92924761D01*
X165533333Y-92829523D01*
X165485714Y-92734285D01*
X165438095Y-92543809D01*
X165438095Y-92400952D01*
X165485714Y-92210476D01*
X165533333Y-92115238D01*
X165628571Y-92020000D01*
X165771428Y-91972380D01*
X165866666Y-91972380D01*
X166009523Y-92020000D01*
X166057142Y-92067619D01*
X167009523Y-92972380D02*
X166438095Y-92972380D01*
X166723809Y-92972380D02*
X166723809Y-91972380D01*
X166628571Y-92115238D01*
X166533333Y-92210476D01*
X166438095Y-92258095D01*
X167485714Y-92972380D02*
X167676190Y-92972380D01*
X167771428Y-92924761D01*
X167819047Y-92877142D01*
X167914285Y-92734285D01*
X167961904Y-92543809D01*
X167961904Y-92162857D01*
X167914285Y-92067619D01*
X167866666Y-92020000D01*
X167771428Y-91972380D01*
X167580952Y-91972380D01*
X167485714Y-92020000D01*
X167438095Y-92067619D01*
X167390476Y-92162857D01*
X167390476Y-92400952D01*
X167438095Y-92496190D01*
X167485714Y-92543809D01*
X167580952Y-92591428D01*
X167771428Y-92591428D01*
X167866666Y-92543809D01*
X167914285Y-92496190D01*
X167961904Y-92400952D01*
%TO.C,LED6*%
X144914740Y-160592380D02*
X144438549Y-160592380D01*
X144438549Y-159592380D01*
X145248073Y-160068571D02*
X145581407Y-160068571D01*
X145724264Y-160592380D02*
X145248073Y-160592380D01*
X145248073Y-159592380D01*
X145724264Y-159592380D01*
X146152835Y-160592380D02*
X146152835Y-159592380D01*
X146390930Y-159592380D01*
X146533788Y-159640000D01*
X146629026Y-159735238D01*
X146676645Y-159830476D01*
X146724264Y-160020952D01*
X146724264Y-160163809D01*
X146676645Y-160354285D01*
X146629026Y-160449523D01*
X146533788Y-160544761D01*
X146390930Y-160592380D01*
X146152835Y-160592380D01*
X147581407Y-159592380D02*
X147390930Y-159592380D01*
X147295692Y-159640000D01*
X147248073Y-159687619D01*
X147152835Y-159830476D01*
X147105216Y-160020952D01*
X147105216Y-160401904D01*
X147152835Y-160497142D01*
X147200454Y-160544761D01*
X147295692Y-160592380D01*
X147486168Y-160592380D01*
X147581407Y-160544761D01*
X147629026Y-160497142D01*
X147676645Y-160401904D01*
X147676645Y-160163809D01*
X147629026Y-160068571D01*
X147581407Y-160020952D01*
X147486168Y-159973333D01*
X147295692Y-159973333D01*
X147200454Y-160020952D01*
X147152835Y-160068571D01*
X147105216Y-160163809D01*
%TO.C,U6*%
X187116435Y-198627250D02*
X187925959Y-198627250D01*
X188021197Y-198579631D01*
X188068816Y-198532012D01*
X188116435Y-198436774D01*
X188116435Y-198246298D01*
X188068816Y-198151060D01*
X188021197Y-198103441D01*
X187925959Y-198055822D01*
X187116435Y-198055822D01*
X187116435Y-197151060D02*
X187116435Y-197341536D01*
X187164055Y-197436774D01*
X187211674Y-197484393D01*
X187354531Y-197579631D01*
X187545007Y-197627250D01*
X187925959Y-197627250D01*
X188021197Y-197579631D01*
X188068816Y-197532012D01*
X188116435Y-197436774D01*
X188116435Y-197246298D01*
X188068816Y-197151060D01*
X188021197Y-197103441D01*
X187925959Y-197055822D01*
X187687864Y-197055822D01*
X187592626Y-197103441D01*
X187545007Y-197151060D01*
X187497388Y-197246298D01*
X187497388Y-197436774D01*
X187545007Y-197532012D01*
X187592626Y-197579631D01*
X187687864Y-197627250D01*
%TO.C,LED22*%
X287458549Y-132012380D02*
X286982359Y-132012380D01*
X286982359Y-131012380D01*
X287791883Y-131488571D02*
X288125216Y-131488571D01*
X288268073Y-132012380D02*
X287791883Y-132012380D01*
X287791883Y-131012380D01*
X288268073Y-131012380D01*
X288696645Y-132012380D02*
X288696645Y-131012380D01*
X288934740Y-131012380D01*
X289077597Y-131060000D01*
X289172835Y-131155238D01*
X289220454Y-131250476D01*
X289268073Y-131440952D01*
X289268073Y-131583809D01*
X289220454Y-131774285D01*
X289172835Y-131869523D01*
X289077597Y-131964761D01*
X288934740Y-132012380D01*
X288696645Y-132012380D01*
X289649026Y-131107619D02*
X289696645Y-131060000D01*
X289791883Y-131012380D01*
X290029978Y-131012380D01*
X290125216Y-131060000D01*
X290172835Y-131107619D01*
X290220454Y-131202857D01*
X290220454Y-131298095D01*
X290172835Y-131440952D01*
X289601407Y-132012380D01*
X290220454Y-132012380D01*
X290601407Y-131107619D02*
X290649026Y-131060000D01*
X290744264Y-131012380D01*
X290982359Y-131012380D01*
X291077597Y-131060000D01*
X291125216Y-131107619D01*
X291172835Y-131202857D01*
X291172835Y-131298095D01*
X291125216Y-131440952D01*
X290553788Y-132012380D01*
X291172835Y-132012380D01*
%TO.C,C11*%
X144827142Y-131267142D02*
X144779523Y-131314761D01*
X144636666Y-131362380D01*
X144541428Y-131362380D01*
X144398571Y-131314761D01*
X144303333Y-131219523D01*
X144255714Y-131124285D01*
X144208095Y-130933809D01*
X144208095Y-130790952D01*
X144255714Y-130600476D01*
X144303333Y-130505238D01*
X144398571Y-130410000D01*
X144541428Y-130362380D01*
X144636666Y-130362380D01*
X144779523Y-130410000D01*
X144827142Y-130457619D01*
X145779523Y-131362380D02*
X145208095Y-131362380D01*
X145493809Y-131362380D02*
X145493809Y-130362380D01*
X145398571Y-130505238D01*
X145303333Y-130600476D01*
X145208095Y-130648095D01*
X146731904Y-131362380D02*
X146160476Y-131362380D01*
X146446190Y-131362380D02*
X146446190Y-130362380D01*
X146350952Y-130505238D01*
X146255714Y-130600476D01*
X146160476Y-130648095D01*
%TO.C,C22*%
X201937142Y-66722857D02*
X201984761Y-66770476D01*
X202032380Y-66913333D01*
X202032380Y-67008571D01*
X201984761Y-67151428D01*
X201889523Y-67246666D01*
X201794285Y-67294285D01*
X201603809Y-67341904D01*
X201460952Y-67341904D01*
X201270476Y-67294285D01*
X201175238Y-67246666D01*
X201080000Y-67151428D01*
X201032380Y-67008571D01*
X201032380Y-66913333D01*
X201080000Y-66770476D01*
X201127619Y-66722857D01*
X201127619Y-66341904D02*
X201080000Y-66294285D01*
X201032380Y-66199047D01*
X201032380Y-65960952D01*
X201080000Y-65865714D01*
X201127619Y-65818095D01*
X201222857Y-65770476D01*
X201318095Y-65770476D01*
X201460952Y-65818095D01*
X202032380Y-66389523D01*
X202032380Y-65770476D01*
X201127619Y-65389523D02*
X201080000Y-65341904D01*
X201032380Y-65246666D01*
X201032380Y-65008571D01*
X201080000Y-64913333D01*
X201127619Y-64865714D01*
X201222857Y-64818095D01*
X201318095Y-64818095D01*
X201460952Y-64865714D01*
X202032380Y-65437142D01*
X202032380Y-64818095D01*
%TO.C,C29*%
X286437142Y-117167142D02*
X286389523Y-117214761D01*
X286246666Y-117262380D01*
X286151428Y-117262380D01*
X286008571Y-117214761D01*
X285913333Y-117119523D01*
X285865714Y-117024285D01*
X285818095Y-116833809D01*
X285818095Y-116690952D01*
X285865714Y-116500476D01*
X285913333Y-116405238D01*
X286008571Y-116310000D01*
X286151428Y-116262380D01*
X286246666Y-116262380D01*
X286389523Y-116310000D01*
X286437142Y-116357619D01*
X286818095Y-116357619D02*
X286865714Y-116310000D01*
X286960952Y-116262380D01*
X287199047Y-116262380D01*
X287294285Y-116310000D01*
X287341904Y-116357619D01*
X287389523Y-116452857D01*
X287389523Y-116548095D01*
X287341904Y-116690952D01*
X286770476Y-117262380D01*
X287389523Y-117262380D01*
X287865714Y-117262380D02*
X288056190Y-117262380D01*
X288151428Y-117214761D01*
X288199047Y-117167142D01*
X288294285Y-117024285D01*
X288341904Y-116833809D01*
X288341904Y-116452857D01*
X288294285Y-116357619D01*
X288246666Y-116310000D01*
X288151428Y-116262380D01*
X287960952Y-116262380D01*
X287865714Y-116310000D01*
X287818095Y-116357619D01*
X287770476Y-116452857D01*
X287770476Y-116690952D01*
X287818095Y-116786190D01*
X287865714Y-116833809D01*
X287960952Y-116881428D01*
X288151428Y-116881428D01*
X288246666Y-116833809D01*
X288294285Y-116786190D01*
X288341904Y-116690952D01*
%TO.C,C16*%
X215097142Y-200282857D02*
X215144761Y-200330476D01*
X215192380Y-200473333D01*
X215192380Y-200568571D01*
X215144761Y-200711428D01*
X215049523Y-200806666D01*
X214954285Y-200854285D01*
X214763809Y-200901904D01*
X214620952Y-200901904D01*
X214430476Y-200854285D01*
X214335238Y-200806666D01*
X214240000Y-200711428D01*
X214192380Y-200568571D01*
X214192380Y-200473333D01*
X214240000Y-200330476D01*
X214287619Y-200282857D01*
X215192380Y-199330476D02*
X215192380Y-199901904D01*
X215192380Y-199616190D02*
X214192380Y-199616190D01*
X214335238Y-199711428D01*
X214430476Y-199806666D01*
X214478095Y-199901904D01*
X214192380Y-198473333D02*
X214192380Y-198663809D01*
X214240000Y-198759047D01*
X214287619Y-198806666D01*
X214430476Y-198901904D01*
X214620952Y-198949523D01*
X215001904Y-198949523D01*
X215097142Y-198901904D01*
X215144761Y-198854285D01*
X215192380Y-198759047D01*
X215192380Y-198568571D01*
X215144761Y-198473333D01*
X215097142Y-198425714D01*
X215001904Y-198378095D01*
X214763809Y-198378095D01*
X214668571Y-198425714D01*
X214620952Y-198473333D01*
X214573333Y-198568571D01*
X214573333Y-198759047D01*
X214620952Y-198854285D01*
X214668571Y-198901904D01*
X214763809Y-198949523D01*
%TO.C,LED8*%
X141224740Y-130982380D02*
X140748549Y-130982380D01*
X140748549Y-129982380D01*
X141558073Y-130458571D02*
X141891407Y-130458571D01*
X142034264Y-130982380D02*
X141558073Y-130982380D01*
X141558073Y-129982380D01*
X142034264Y-129982380D01*
X142462835Y-130982380D02*
X142462835Y-129982380D01*
X142700930Y-129982380D01*
X142843788Y-130030000D01*
X142939026Y-130125238D01*
X142986645Y-130220476D01*
X143034264Y-130410952D01*
X143034264Y-130553809D01*
X142986645Y-130744285D01*
X142939026Y-130839523D01*
X142843788Y-130934761D01*
X142700930Y-130982380D01*
X142462835Y-130982380D01*
X143605692Y-130410952D02*
X143510454Y-130363333D01*
X143462835Y-130315714D01*
X143415216Y-130220476D01*
X143415216Y-130172857D01*
X143462835Y-130077619D01*
X143510454Y-130030000D01*
X143605692Y-129982380D01*
X143796168Y-129982380D01*
X143891407Y-130030000D01*
X143939026Y-130077619D01*
X143986645Y-130172857D01*
X143986645Y-130220476D01*
X143939026Y-130315714D01*
X143891407Y-130363333D01*
X143796168Y-130410952D01*
X143605692Y-130410952D01*
X143510454Y-130458571D01*
X143462835Y-130506190D01*
X143415216Y-130601428D01*
X143415216Y-130791904D01*
X143462835Y-130887142D01*
X143510454Y-130934761D01*
X143605692Y-130982380D01*
X143796168Y-130982380D01*
X143891407Y-130934761D01*
X143939026Y-130887142D01*
X143986645Y-130791904D01*
X143986645Y-130601428D01*
X143939026Y-130506190D01*
X143891407Y-130458571D01*
X143796168Y-130410952D01*
%TO.C,C37*%
X237127142Y-211762857D02*
X237174761Y-211810476D01*
X237222380Y-211953333D01*
X237222380Y-212048571D01*
X237174761Y-212191428D01*
X237079523Y-212286666D01*
X236984285Y-212334285D01*
X236793809Y-212381904D01*
X236650952Y-212381904D01*
X236460476Y-212334285D01*
X236365238Y-212286666D01*
X236270000Y-212191428D01*
X236222380Y-212048571D01*
X236222380Y-211953333D01*
X236270000Y-211810476D01*
X236317619Y-211762857D01*
X236222380Y-211429523D02*
X236222380Y-210810476D01*
X236603333Y-211143809D01*
X236603333Y-211000952D01*
X236650952Y-210905714D01*
X236698571Y-210858095D01*
X236793809Y-210810476D01*
X237031904Y-210810476D01*
X237127142Y-210858095D01*
X237174761Y-210905714D01*
X237222380Y-211000952D01*
X237222380Y-211286666D01*
X237174761Y-211381904D01*
X237127142Y-211429523D01*
X236222380Y-210477142D02*
X236222380Y-209810476D01*
X237222380Y-210239047D01*
%TO.C,C5*%
X179167142Y-207116666D02*
X179214761Y-207164285D01*
X179262380Y-207307142D01*
X179262380Y-207402380D01*
X179214761Y-207545238D01*
X179119523Y-207640476D01*
X179024285Y-207688095D01*
X178833809Y-207735714D01*
X178690952Y-207735714D01*
X178500476Y-207688095D01*
X178405238Y-207640476D01*
X178310000Y-207545238D01*
X178262380Y-207402380D01*
X178262380Y-207307142D01*
X178310000Y-207164285D01*
X178357619Y-207116666D01*
X178262380Y-206211904D02*
X178262380Y-206688095D01*
X178738571Y-206735714D01*
X178690952Y-206688095D01*
X178643333Y-206592857D01*
X178643333Y-206354761D01*
X178690952Y-206259523D01*
X178738571Y-206211904D01*
X178833809Y-206164285D01*
X179071904Y-206164285D01*
X179167142Y-206211904D01*
X179214761Y-206259523D01*
X179262380Y-206354761D01*
X179262380Y-206592857D01*
X179214761Y-206688095D01*
X179167142Y-206735714D01*
%TO.C,C31*%
X289767142Y-147187142D02*
X289719523Y-147234761D01*
X289576666Y-147282380D01*
X289481428Y-147282380D01*
X289338571Y-147234761D01*
X289243333Y-147139523D01*
X289195714Y-147044285D01*
X289148095Y-146853809D01*
X289148095Y-146710952D01*
X289195714Y-146520476D01*
X289243333Y-146425238D01*
X289338571Y-146330000D01*
X289481428Y-146282380D01*
X289576666Y-146282380D01*
X289719523Y-146330000D01*
X289767142Y-146377619D01*
X290100476Y-146282380D02*
X290719523Y-146282380D01*
X290386190Y-146663333D01*
X290529047Y-146663333D01*
X290624285Y-146710952D01*
X290671904Y-146758571D01*
X290719523Y-146853809D01*
X290719523Y-147091904D01*
X290671904Y-147187142D01*
X290624285Y-147234761D01*
X290529047Y-147282380D01*
X290243333Y-147282380D01*
X290148095Y-147234761D01*
X290100476Y-147187142D01*
X291671904Y-147282380D02*
X291100476Y-147282380D01*
X291386190Y-147282380D02*
X291386190Y-146282380D01*
X291290952Y-146425238D01*
X291195714Y-146520476D01*
X291100476Y-146568095D01*
%TO.C,SW3*%
X184946666Y-175074825D02*
X185089523Y-175122444D01*
X185327619Y-175122444D01*
X185422857Y-175074825D01*
X185470476Y-175027206D01*
X185518095Y-174931968D01*
X185518095Y-174836730D01*
X185470476Y-174741492D01*
X185422857Y-174693873D01*
X185327619Y-174646254D01*
X185137142Y-174598635D01*
X185041904Y-174551016D01*
X184994285Y-174503397D01*
X184946666Y-174408159D01*
X184946666Y-174312921D01*
X184994285Y-174217683D01*
X185041904Y-174170064D01*
X185137142Y-174122444D01*
X185375238Y-174122444D01*
X185518095Y-174170064D01*
X185851428Y-174122444D02*
X186089523Y-175122444D01*
X186280000Y-174408159D01*
X186470476Y-175122444D01*
X186708571Y-174122444D01*
X186994285Y-174122444D02*
X187613333Y-174122444D01*
X187280000Y-174503397D01*
X187422857Y-174503397D01*
X187518095Y-174551016D01*
X187565714Y-174598635D01*
X187613333Y-174693873D01*
X187613333Y-174931968D01*
X187565714Y-175027206D01*
X187518095Y-175074825D01*
X187422857Y-175122444D01*
X187137142Y-175122444D01*
X187041904Y-175074825D01*
X186994285Y-175027206D01*
%TO.C,C24*%
X231287142Y-69302857D02*
X231334761Y-69350476D01*
X231382380Y-69493333D01*
X231382380Y-69588571D01*
X231334761Y-69731428D01*
X231239523Y-69826666D01*
X231144285Y-69874285D01*
X230953809Y-69921904D01*
X230810952Y-69921904D01*
X230620476Y-69874285D01*
X230525238Y-69826666D01*
X230430000Y-69731428D01*
X230382380Y-69588571D01*
X230382380Y-69493333D01*
X230430000Y-69350476D01*
X230477619Y-69302857D01*
X230477619Y-68921904D02*
X230430000Y-68874285D01*
X230382380Y-68779047D01*
X230382380Y-68540952D01*
X230430000Y-68445714D01*
X230477619Y-68398095D01*
X230572857Y-68350476D01*
X230668095Y-68350476D01*
X230810952Y-68398095D01*
X231382380Y-68969523D01*
X231382380Y-68350476D01*
X230715714Y-67493333D02*
X231382380Y-67493333D01*
X230334761Y-67731428D02*
X231049047Y-67969523D01*
X231049047Y-67350476D01*
%TO.C,LED13*%
X180408549Y-71832380D02*
X179932359Y-71832380D01*
X179932359Y-70832380D01*
X180741883Y-71308571D02*
X181075216Y-71308571D01*
X181218073Y-71832380D02*
X180741883Y-71832380D01*
X180741883Y-70832380D01*
X181218073Y-70832380D01*
X181646645Y-71832380D02*
X181646645Y-70832380D01*
X181884740Y-70832380D01*
X182027597Y-70880000D01*
X182122835Y-70975238D01*
X182170454Y-71070476D01*
X182218073Y-71260952D01*
X182218073Y-71403809D01*
X182170454Y-71594285D01*
X182122835Y-71689523D01*
X182027597Y-71784761D01*
X181884740Y-71832380D01*
X181646645Y-71832380D01*
X183170454Y-71832380D02*
X182599026Y-71832380D01*
X182884740Y-71832380D02*
X182884740Y-70832380D01*
X182789502Y-70975238D01*
X182694264Y-71070476D01*
X182599026Y-71118095D01*
X183503788Y-70832380D02*
X184122835Y-70832380D01*
X183789502Y-71213333D01*
X183932359Y-71213333D01*
X184027597Y-71260952D01*
X184075216Y-71308571D01*
X184122835Y-71403809D01*
X184122835Y-71641904D01*
X184075216Y-71737142D01*
X184027597Y-71784761D01*
X183932359Y-71832380D01*
X183646645Y-71832380D01*
X183551407Y-71784761D01*
X183503788Y-71737142D01*
%TO.C,C9*%
X145553333Y-160487142D02*
X145505714Y-160534761D01*
X145362857Y-160582380D01*
X145267619Y-160582380D01*
X145124761Y-160534761D01*
X145029523Y-160439523D01*
X144981904Y-160344285D01*
X144934285Y-160153809D01*
X144934285Y-160010952D01*
X144981904Y-159820476D01*
X145029523Y-159725238D01*
X145124761Y-159630000D01*
X145267619Y-159582380D01*
X145362857Y-159582380D01*
X145505714Y-159630000D01*
X145553333Y-159677619D01*
X146029523Y-160582380D02*
X146220000Y-160582380D01*
X146315238Y-160534761D01*
X146362857Y-160487142D01*
X146458095Y-160344285D01*
X146505714Y-160153809D01*
X146505714Y-159772857D01*
X146458095Y-159677619D01*
X146410476Y-159630000D01*
X146315238Y-159582380D01*
X146124761Y-159582380D01*
X146029523Y-159630000D01*
X145981904Y-159677619D01*
X145934285Y-159772857D01*
X145934285Y-160010952D01*
X145981904Y-160106190D01*
X146029523Y-160153809D01*
X146124761Y-160201428D01*
X146315238Y-160201428D01*
X146410476Y-160153809D01*
X146458095Y-160106190D01*
X146505714Y-160010952D01*
%TO.C,LED11*%
X157444761Y-91672380D02*
X156968571Y-91672380D01*
X156968571Y-90672380D01*
X157778095Y-91148571D02*
X158111428Y-91148571D01*
X158254285Y-91672380D02*
X157778095Y-91672380D01*
X157778095Y-90672380D01*
X158254285Y-90672380D01*
X158682857Y-91672380D02*
X158682857Y-90672380D01*
X158920952Y-90672380D01*
X159063809Y-90720000D01*
X159159047Y-90815238D01*
X159206666Y-90910476D01*
X159254285Y-91100952D01*
X159254285Y-91243809D01*
X159206666Y-91434285D01*
X159159047Y-91529523D01*
X159063809Y-91624761D01*
X158920952Y-91672380D01*
X158682857Y-91672380D01*
X160206666Y-91672380D02*
X159635238Y-91672380D01*
X159920952Y-91672380D02*
X159920952Y-90672380D01*
X159825714Y-90815238D01*
X159730476Y-90910476D01*
X159635238Y-90958095D01*
X161159047Y-91672380D02*
X160587619Y-91672380D01*
X160873333Y-91672380D02*
X160873333Y-90672380D01*
X160778095Y-90815238D01*
X160682857Y-90910476D01*
X160587619Y-90958095D01*
%TO.C,R3*%
X211183333Y-208182380D02*
X210850000Y-207706190D01*
X210611904Y-208182380D02*
X210611904Y-207182380D01*
X210992857Y-207182380D01*
X211088095Y-207230000D01*
X211135714Y-207277619D01*
X211183333Y-207372857D01*
X211183333Y-207515714D01*
X211135714Y-207610952D01*
X211088095Y-207658571D01*
X210992857Y-207706190D01*
X210611904Y-207706190D01*
X211516666Y-207182380D02*
X212135714Y-207182380D01*
X211802380Y-207563333D01*
X211945238Y-207563333D01*
X212040476Y-207610952D01*
X212088095Y-207658571D01*
X212135714Y-207753809D01*
X212135714Y-207991904D01*
X212088095Y-208087142D01*
X212040476Y-208134761D01*
X211945238Y-208182380D01*
X211659523Y-208182380D01*
X211564285Y-208134761D01*
X211516666Y-208087142D01*
%TO.C,C36*%
X250557142Y-207252857D02*
X250604761Y-207300476D01*
X250652380Y-207443333D01*
X250652380Y-207538571D01*
X250604761Y-207681428D01*
X250509523Y-207776666D01*
X250414285Y-207824285D01*
X250223809Y-207871904D01*
X250080952Y-207871904D01*
X249890476Y-207824285D01*
X249795238Y-207776666D01*
X249700000Y-207681428D01*
X249652380Y-207538571D01*
X249652380Y-207443333D01*
X249700000Y-207300476D01*
X249747619Y-207252857D01*
X249652380Y-206919523D02*
X249652380Y-206300476D01*
X250033333Y-206633809D01*
X250033333Y-206490952D01*
X250080952Y-206395714D01*
X250128571Y-206348095D01*
X250223809Y-206300476D01*
X250461904Y-206300476D01*
X250557142Y-206348095D01*
X250604761Y-206395714D01*
X250652380Y-206490952D01*
X250652380Y-206776666D01*
X250604761Y-206871904D01*
X250557142Y-206919523D01*
X249652380Y-205443333D02*
X249652380Y-205633809D01*
X249700000Y-205729047D01*
X249747619Y-205776666D01*
X249890476Y-205871904D01*
X250080952Y-205919523D01*
X250461904Y-205919523D01*
X250557142Y-205871904D01*
X250604761Y-205824285D01*
X250652380Y-205729047D01*
X250652380Y-205538571D01*
X250604761Y-205443333D01*
X250557142Y-205395714D01*
X250461904Y-205348095D01*
X250223809Y-205348095D01*
X250128571Y-205395714D01*
X250080952Y-205443333D01*
X250033333Y-205538571D01*
X250033333Y-205729047D01*
X250080952Y-205824285D01*
X250128571Y-205871904D01*
X250223809Y-205919523D01*
%TO.C,R5*%
X191050757Y-183792380D02*
X190717424Y-183316190D01*
X190479328Y-183792380D02*
X190479328Y-182792380D01*
X190860281Y-182792380D01*
X190955519Y-182840000D01*
X191003138Y-182887619D01*
X191050757Y-182982857D01*
X191050757Y-183125714D01*
X191003138Y-183220952D01*
X190955519Y-183268571D01*
X190860281Y-183316190D01*
X190479328Y-183316190D01*
X191955519Y-182792380D02*
X191479328Y-182792380D01*
X191431709Y-183268571D01*
X191479328Y-183220952D01*
X191574566Y-183173333D01*
X191812662Y-183173333D01*
X191907900Y-183220952D01*
X191955519Y-183268571D01*
X192003138Y-183363809D01*
X192003138Y-183601904D01*
X191955519Y-183697142D01*
X191907900Y-183744761D01*
X191812662Y-183792380D01*
X191574566Y-183792380D01*
X191479328Y-183744761D01*
X191431709Y-183697142D01*
%TO.C,U2*%
X233627892Y-177927323D02*
X233627892Y-178736847D01*
X233675511Y-178832085D01*
X233723130Y-178879704D01*
X233818368Y-178927323D01*
X234008844Y-178927323D01*
X234104082Y-178879704D01*
X234151701Y-178832085D01*
X234199320Y-178736847D01*
X234199320Y-177927323D01*
X234627892Y-178022562D02*
X234675511Y-177974943D01*
X234770749Y-177927323D01*
X235008844Y-177927323D01*
X235104082Y-177974943D01*
X235151701Y-178022562D01*
X235199320Y-178117800D01*
X235199320Y-178213038D01*
X235151701Y-178355895D01*
X234580273Y-178927323D01*
X235199320Y-178927323D01*
%TO.C,LED18*%
X252478549Y-84942380D02*
X252002359Y-84942380D01*
X252002359Y-83942380D01*
X252811883Y-84418571D02*
X253145216Y-84418571D01*
X253288073Y-84942380D02*
X252811883Y-84942380D01*
X252811883Y-83942380D01*
X253288073Y-83942380D01*
X253716645Y-84942380D02*
X253716645Y-83942380D01*
X253954740Y-83942380D01*
X254097597Y-83990000D01*
X254192835Y-84085238D01*
X254240454Y-84180476D01*
X254288073Y-84370952D01*
X254288073Y-84513809D01*
X254240454Y-84704285D01*
X254192835Y-84799523D01*
X254097597Y-84894761D01*
X253954740Y-84942380D01*
X253716645Y-84942380D01*
X255240454Y-84942380D02*
X254669026Y-84942380D01*
X254954740Y-84942380D02*
X254954740Y-83942380D01*
X254859502Y-84085238D01*
X254764264Y-84180476D01*
X254669026Y-84228095D01*
X255811883Y-84370952D02*
X255716645Y-84323333D01*
X255669026Y-84275714D01*
X255621407Y-84180476D01*
X255621407Y-84132857D01*
X255669026Y-84037619D01*
X255716645Y-83990000D01*
X255811883Y-83942380D01*
X256002359Y-83942380D01*
X256097597Y-83990000D01*
X256145216Y-84037619D01*
X256192835Y-84132857D01*
X256192835Y-84180476D01*
X256145216Y-84275714D01*
X256097597Y-84323333D01*
X256002359Y-84370952D01*
X255811883Y-84370952D01*
X255716645Y-84418571D01*
X255669026Y-84466190D01*
X255621407Y-84561428D01*
X255621407Y-84751904D01*
X255669026Y-84847142D01*
X255716645Y-84894761D01*
X255811883Y-84942380D01*
X256002359Y-84942380D01*
X256097597Y-84894761D01*
X256145216Y-84847142D01*
X256192835Y-84751904D01*
X256192835Y-84561428D01*
X256145216Y-84466190D01*
X256097597Y-84418571D01*
X256002359Y-84370952D01*
%TO.C,LED7*%
X141857164Y-146512380D02*
X141380973Y-146512380D01*
X141380973Y-145512380D01*
X142190497Y-145988571D02*
X142523831Y-145988571D01*
X142666688Y-146512380D02*
X142190497Y-146512380D01*
X142190497Y-145512380D01*
X142666688Y-145512380D01*
X143095259Y-146512380D02*
X143095259Y-145512380D01*
X143333354Y-145512380D01*
X143476212Y-145560000D01*
X143571450Y-145655238D01*
X143619069Y-145750476D01*
X143666688Y-145940952D01*
X143666688Y-146083809D01*
X143619069Y-146274285D01*
X143571450Y-146369523D01*
X143476212Y-146464761D01*
X143333354Y-146512380D01*
X143095259Y-146512380D01*
X144000021Y-145512380D02*
X144666688Y-145512380D01*
X144238116Y-146512380D01*
%TO.C,LED30*%
X229014761Y-222472380D02*
X228538571Y-222472380D01*
X228538571Y-221472380D01*
X229348095Y-221948571D02*
X229681428Y-221948571D01*
X229824285Y-222472380D02*
X229348095Y-222472380D01*
X229348095Y-221472380D01*
X229824285Y-221472380D01*
X230252857Y-222472380D02*
X230252857Y-221472380D01*
X230490952Y-221472380D01*
X230633809Y-221520000D01*
X230729047Y-221615238D01*
X230776666Y-221710476D01*
X230824285Y-221900952D01*
X230824285Y-222043809D01*
X230776666Y-222234285D01*
X230729047Y-222329523D01*
X230633809Y-222424761D01*
X230490952Y-222472380D01*
X230252857Y-222472380D01*
X231157619Y-221472380D02*
X231776666Y-221472380D01*
X231443333Y-221853333D01*
X231586190Y-221853333D01*
X231681428Y-221900952D01*
X231729047Y-221948571D01*
X231776666Y-222043809D01*
X231776666Y-222281904D01*
X231729047Y-222377142D01*
X231681428Y-222424761D01*
X231586190Y-222472380D01*
X231300476Y-222472380D01*
X231205238Y-222424761D01*
X231157619Y-222377142D01*
X232395714Y-221472380D02*
X232490952Y-221472380D01*
X232586190Y-221520000D01*
X232633809Y-221567619D01*
X232681428Y-221662857D01*
X232729047Y-221853333D01*
X232729047Y-222091428D01*
X232681428Y-222281904D01*
X232633809Y-222377142D01*
X232586190Y-222424761D01*
X232490952Y-222472380D01*
X232395714Y-222472380D01*
X232300476Y-222424761D01*
X232252857Y-222377142D01*
X232205238Y-222281904D01*
X232157619Y-222091428D01*
X232157619Y-221853333D01*
X232205238Y-221662857D01*
X232252857Y-221567619D01*
X232300476Y-221520000D01*
X232395714Y-221472380D01*
%TO.C,LED3*%
X170794740Y-196392380D02*
X170318549Y-196392380D01*
X170318549Y-195392380D01*
X171128073Y-195868571D02*
X171461407Y-195868571D01*
X171604264Y-196392380D02*
X171128073Y-196392380D01*
X171128073Y-195392380D01*
X171604264Y-195392380D01*
X172032835Y-196392380D02*
X172032835Y-195392380D01*
X172270930Y-195392380D01*
X172413788Y-195440000D01*
X172509026Y-195535238D01*
X172556645Y-195630476D01*
X172604264Y-195820952D01*
X172604264Y-195963809D01*
X172556645Y-196154285D01*
X172509026Y-196249523D01*
X172413788Y-196344761D01*
X172270930Y-196392380D01*
X172032835Y-196392380D01*
X172937597Y-195392380D02*
X173556645Y-195392380D01*
X173223311Y-195773333D01*
X173366168Y-195773333D01*
X173461407Y-195820952D01*
X173509026Y-195868571D01*
X173556645Y-195963809D01*
X173556645Y-196201904D01*
X173509026Y-196297142D01*
X173461407Y-196344761D01*
X173366168Y-196392380D01*
X173080454Y-196392380D01*
X172985216Y-196344761D01*
X172937597Y-196297142D01*
%TO.C,C27*%
X270137142Y-94672857D02*
X270184761Y-94720476D01*
X270232380Y-94863333D01*
X270232380Y-94958571D01*
X270184761Y-95101428D01*
X270089523Y-95196666D01*
X269994285Y-95244285D01*
X269803809Y-95291904D01*
X269660952Y-95291904D01*
X269470476Y-95244285D01*
X269375238Y-95196666D01*
X269280000Y-95101428D01*
X269232380Y-94958571D01*
X269232380Y-94863333D01*
X269280000Y-94720476D01*
X269327619Y-94672857D01*
X269327619Y-94291904D02*
X269280000Y-94244285D01*
X269232380Y-94149047D01*
X269232380Y-93910952D01*
X269280000Y-93815714D01*
X269327619Y-93768095D01*
X269422857Y-93720476D01*
X269518095Y-93720476D01*
X269660952Y-93768095D01*
X270232380Y-94339523D01*
X270232380Y-93720476D01*
X269232380Y-93387142D02*
X269232380Y-92720476D01*
X270232380Y-93149047D01*
%TO.C,LED23*%
X289444761Y-146862380D02*
X288968571Y-146862380D01*
X288968571Y-145862380D01*
X289778095Y-146338571D02*
X290111428Y-146338571D01*
X290254285Y-146862380D02*
X289778095Y-146862380D01*
X289778095Y-145862380D01*
X290254285Y-145862380D01*
X290682857Y-146862380D02*
X290682857Y-145862380D01*
X290920952Y-145862380D01*
X291063809Y-145910000D01*
X291159047Y-146005238D01*
X291206666Y-146100476D01*
X291254285Y-146290952D01*
X291254285Y-146433809D01*
X291206666Y-146624285D01*
X291159047Y-146719523D01*
X291063809Y-146814761D01*
X290920952Y-146862380D01*
X290682857Y-146862380D01*
X291635238Y-145957619D02*
X291682857Y-145910000D01*
X291778095Y-145862380D01*
X292016190Y-145862380D01*
X292111428Y-145910000D01*
X292159047Y-145957619D01*
X292206666Y-146052857D01*
X292206666Y-146148095D01*
X292159047Y-146290952D01*
X291587619Y-146862380D01*
X292206666Y-146862380D01*
X292540000Y-145862380D02*
X293159047Y-145862380D01*
X292825714Y-146243333D01*
X292968571Y-146243333D01*
X293063809Y-146290952D01*
X293111428Y-146338571D01*
X293159047Y-146433809D01*
X293159047Y-146671904D01*
X293111428Y-146767142D01*
X293063809Y-146814761D01*
X292968571Y-146862380D01*
X292682857Y-146862380D01*
X292587619Y-146814761D01*
X292540000Y-146767142D01*
%TO.C,SW1*%
X184906666Y-169054825D02*
X185049523Y-169102444D01*
X185287619Y-169102444D01*
X185382857Y-169054825D01*
X185430476Y-169007206D01*
X185478095Y-168911968D01*
X185478095Y-168816730D01*
X185430476Y-168721492D01*
X185382857Y-168673873D01*
X185287619Y-168626254D01*
X185097142Y-168578635D01*
X185001904Y-168531016D01*
X184954285Y-168483397D01*
X184906666Y-168388159D01*
X184906666Y-168292921D01*
X184954285Y-168197683D01*
X185001904Y-168150064D01*
X185097142Y-168102444D01*
X185335238Y-168102444D01*
X185478095Y-168150064D01*
X185811428Y-168102444D02*
X186049523Y-169102444D01*
X186240000Y-168388159D01*
X186430476Y-169102444D01*
X186668571Y-168102444D01*
X187573333Y-169102444D02*
X187001904Y-169102444D01*
X187287619Y-169102444D02*
X187287619Y-168102444D01*
X187192380Y-168245302D01*
X187097142Y-168340540D01*
X187001904Y-168388159D01*
%TO.C,LED17*%
X238768549Y-78742380D02*
X238292359Y-78742380D01*
X238292359Y-77742380D01*
X239101883Y-78218571D02*
X239435216Y-78218571D01*
X239578073Y-78742380D02*
X239101883Y-78742380D01*
X239101883Y-77742380D01*
X239578073Y-77742380D01*
X240006645Y-78742380D02*
X240006645Y-77742380D01*
X240244740Y-77742380D01*
X240387597Y-77790000D01*
X240482835Y-77885238D01*
X240530454Y-77980476D01*
X240578073Y-78170952D01*
X240578073Y-78313809D01*
X240530454Y-78504285D01*
X240482835Y-78599523D01*
X240387597Y-78694761D01*
X240244740Y-78742380D01*
X240006645Y-78742380D01*
X241530454Y-78742380D02*
X240959026Y-78742380D01*
X241244740Y-78742380D02*
X241244740Y-77742380D01*
X241149502Y-77885238D01*
X241054264Y-77980476D01*
X240959026Y-78028095D01*
X241863788Y-77742380D02*
X242530454Y-77742380D01*
X242101883Y-78742380D01*
%TO.C,U1*%
X212934895Y-189433730D02*
X212934895Y-190243254D01*
X212982514Y-190338492D01*
X213030133Y-190386111D01*
X213125371Y-190433730D01*
X213315847Y-190433730D01*
X213411085Y-190386111D01*
X213458704Y-190338492D01*
X213506323Y-190243254D01*
X213506323Y-189433730D01*
X214506323Y-190433730D02*
X213934895Y-190433730D01*
X214220609Y-190433730D02*
X214220609Y-189433730D01*
X214125371Y-189576588D01*
X214030133Y-189671826D01*
X213934895Y-189719445D01*
%TO.C,C4*%
X190817142Y-209636666D02*
X190864761Y-209684285D01*
X190912380Y-209827142D01*
X190912380Y-209922380D01*
X190864761Y-210065238D01*
X190769523Y-210160476D01*
X190674285Y-210208095D01*
X190483809Y-210255714D01*
X190340952Y-210255714D01*
X190150476Y-210208095D01*
X190055238Y-210160476D01*
X189960000Y-210065238D01*
X189912380Y-209922380D01*
X189912380Y-209827142D01*
X189960000Y-209684285D01*
X190007619Y-209636666D01*
X190245714Y-208779523D02*
X190912380Y-208779523D01*
X189864761Y-209017619D02*
X190579047Y-209255714D01*
X190579047Y-208636666D01*
%TO.C,LED1*%
X197904740Y-209202380D02*
X197428549Y-209202380D01*
X197428549Y-208202380D01*
X198238073Y-208678571D02*
X198571407Y-208678571D01*
X198714264Y-209202380D02*
X198238073Y-209202380D01*
X198238073Y-208202380D01*
X198714264Y-208202380D01*
X199142835Y-209202380D02*
X199142835Y-208202380D01*
X199380930Y-208202380D01*
X199523788Y-208250000D01*
X199619026Y-208345238D01*
X199666645Y-208440476D01*
X199714264Y-208630952D01*
X199714264Y-208773809D01*
X199666645Y-208964285D01*
X199619026Y-209059523D01*
X199523788Y-209154761D01*
X199380930Y-209202380D01*
X199142835Y-209202380D01*
X200666645Y-209202380D02*
X200095216Y-209202380D01*
X200380930Y-209202380D02*
X200380930Y-208202380D01*
X200285692Y-208345238D01*
X200190454Y-208440476D01*
X200095216Y-208488095D01*
%TO.C,LED12*%
X167810973Y-80852380D02*
X167334783Y-80852380D01*
X167334783Y-79852380D01*
X168144307Y-80328571D02*
X168477640Y-80328571D01*
X168620497Y-80852380D02*
X168144307Y-80852380D01*
X168144307Y-79852380D01*
X168620497Y-79852380D01*
X169049069Y-80852380D02*
X169049069Y-79852380D01*
X169287164Y-79852380D01*
X169430021Y-79900000D01*
X169525259Y-79995238D01*
X169572878Y-80090476D01*
X169620497Y-80280952D01*
X169620497Y-80423809D01*
X169572878Y-80614285D01*
X169525259Y-80709523D01*
X169430021Y-80804761D01*
X169287164Y-80852380D01*
X169049069Y-80852380D01*
X170572878Y-80852380D02*
X170001450Y-80852380D01*
X170287164Y-80852380D02*
X170287164Y-79852380D01*
X170191926Y-79995238D01*
X170096688Y-80090476D01*
X170001450Y-80138095D01*
X170953831Y-79947619D02*
X171001450Y-79900000D01*
X171096688Y-79852380D01*
X171334783Y-79852380D01*
X171430021Y-79900000D01*
X171477640Y-79947619D01*
X171525259Y-80042857D01*
X171525259Y-80138095D01*
X171477640Y-80280952D01*
X170906212Y-80852380D01*
X171525259Y-80852380D01*
%TO.C,SW2*%
X184966666Y-180954825D02*
X185109523Y-181002444D01*
X185347619Y-181002444D01*
X185442857Y-180954825D01*
X185490476Y-180907206D01*
X185538095Y-180811968D01*
X185538095Y-180716730D01*
X185490476Y-180621492D01*
X185442857Y-180573873D01*
X185347619Y-180526254D01*
X185157142Y-180478635D01*
X185061904Y-180431016D01*
X185014285Y-180383397D01*
X184966666Y-180288159D01*
X184966666Y-180192921D01*
X185014285Y-180097683D01*
X185061904Y-180050064D01*
X185157142Y-180002444D01*
X185395238Y-180002444D01*
X185538095Y-180050064D01*
X185871428Y-180002444D02*
X186109523Y-181002444D01*
X186300000Y-180288159D01*
X186490476Y-181002444D01*
X186728571Y-180002444D01*
X187061904Y-180097683D02*
X187109523Y-180050064D01*
X187204761Y-180002444D01*
X187442857Y-180002444D01*
X187538095Y-180050064D01*
X187585714Y-180097683D01*
X187633333Y-180192921D01*
X187633333Y-180288159D01*
X187585714Y-180431016D01*
X187014285Y-181002444D01*
X187633333Y-181002444D01*
%TO.C,C3*%
X205030930Y-214696666D02*
X205078549Y-214744285D01*
X205126168Y-214887142D01*
X205126168Y-214982380D01*
X205078549Y-215125238D01*
X204983311Y-215220476D01*
X204888073Y-215268095D01*
X204697597Y-215315714D01*
X204554740Y-215315714D01*
X204364264Y-215268095D01*
X204269026Y-215220476D01*
X204173788Y-215125238D01*
X204126168Y-214982380D01*
X204126168Y-214887142D01*
X204173788Y-214744285D01*
X204221407Y-214696666D01*
X204126168Y-214363333D02*
X204126168Y-213744285D01*
X204507121Y-214077619D01*
X204507121Y-213934761D01*
X204554740Y-213839523D01*
X204602359Y-213791904D01*
X204697597Y-213744285D01*
X204935692Y-213744285D01*
X205030930Y-213791904D01*
X205078549Y-213839523D01*
X205126168Y-213934761D01*
X205126168Y-214220476D01*
X205078549Y-214315714D01*
X205030930Y-214363333D01*
%TO.C,LED19*%
X264608549Y-93762380D02*
X264132359Y-93762380D01*
X264132359Y-92762380D01*
X264941883Y-93238571D02*
X265275216Y-93238571D01*
X265418073Y-93762380D02*
X264941883Y-93762380D01*
X264941883Y-92762380D01*
X265418073Y-92762380D01*
X265846645Y-93762380D02*
X265846645Y-92762380D01*
X266084740Y-92762380D01*
X266227597Y-92810000D01*
X266322835Y-92905238D01*
X266370454Y-93000476D01*
X266418073Y-93190952D01*
X266418073Y-93333809D01*
X266370454Y-93524285D01*
X266322835Y-93619523D01*
X266227597Y-93714761D01*
X266084740Y-93762380D01*
X265846645Y-93762380D01*
X267370454Y-93762380D02*
X266799026Y-93762380D01*
X267084740Y-93762380D02*
X267084740Y-92762380D01*
X266989502Y-92905238D01*
X266894264Y-93000476D01*
X266799026Y-93048095D01*
X267846645Y-93762380D02*
X268037121Y-93762380D01*
X268132359Y-93714761D01*
X268179978Y-93667142D01*
X268275216Y-93524285D01*
X268322835Y-93333809D01*
X268322835Y-92952857D01*
X268275216Y-92857619D01*
X268227597Y-92810000D01*
X268132359Y-92762380D01*
X267941883Y-92762380D01*
X267846645Y-92810000D01*
X267799026Y-92857619D01*
X267751407Y-92952857D01*
X267751407Y-93190952D01*
X267799026Y-93286190D01*
X267846645Y-93333809D01*
X267941883Y-93381428D01*
X268132359Y-93381428D01*
X268227597Y-93333809D01*
X268275216Y-93286190D01*
X268322835Y-93190952D01*
%TO.C,LED27*%
X268284761Y-201352380D02*
X267808571Y-201352380D01*
X267808571Y-200352380D01*
X268618095Y-200828571D02*
X268951428Y-200828571D01*
X269094285Y-201352380D02*
X268618095Y-201352380D01*
X268618095Y-200352380D01*
X269094285Y-200352380D01*
X269522857Y-201352380D02*
X269522857Y-200352380D01*
X269760952Y-200352380D01*
X269903809Y-200400000D01*
X269999047Y-200495238D01*
X270046666Y-200590476D01*
X270094285Y-200780952D01*
X270094285Y-200923809D01*
X270046666Y-201114285D01*
X269999047Y-201209523D01*
X269903809Y-201304761D01*
X269760952Y-201352380D01*
X269522857Y-201352380D01*
X270475238Y-200447619D02*
X270522857Y-200400000D01*
X270618095Y-200352380D01*
X270856190Y-200352380D01*
X270951428Y-200400000D01*
X270999047Y-200447619D01*
X271046666Y-200542857D01*
X271046666Y-200638095D01*
X270999047Y-200780952D01*
X270427619Y-201352380D01*
X271046666Y-201352380D01*
X271380000Y-200352380D02*
X272046666Y-200352380D01*
X271618095Y-201352380D01*
%TO.C,C6*%
X167807142Y-196956666D02*
X167854761Y-197004285D01*
X167902380Y-197147142D01*
X167902380Y-197242380D01*
X167854761Y-197385238D01*
X167759523Y-197480476D01*
X167664285Y-197528095D01*
X167473809Y-197575714D01*
X167330952Y-197575714D01*
X167140476Y-197528095D01*
X167045238Y-197480476D01*
X166950000Y-197385238D01*
X166902380Y-197242380D01*
X166902380Y-197147142D01*
X166950000Y-197004285D01*
X166997619Y-196956666D01*
X166902380Y-196099523D02*
X166902380Y-196290000D01*
X166950000Y-196385238D01*
X166997619Y-196432857D01*
X167140476Y-196528095D01*
X167330952Y-196575714D01*
X167711904Y-196575714D01*
X167807142Y-196528095D01*
X167854761Y-196480476D01*
X167902380Y-196385238D01*
X167902380Y-196194761D01*
X167854761Y-196099523D01*
X167807142Y-196051904D01*
X167711904Y-196004285D01*
X167473809Y-196004285D01*
X167378571Y-196051904D01*
X167330952Y-196099523D01*
X167283333Y-196194761D01*
X167283333Y-196385238D01*
X167330952Y-196480476D01*
X167378571Y-196528095D01*
X167473809Y-196575714D01*
%TO.C,C7*%
X156623333Y-187537142D02*
X156575714Y-187584761D01*
X156432857Y-187632380D01*
X156337619Y-187632380D01*
X156194761Y-187584761D01*
X156099523Y-187489523D01*
X156051904Y-187394285D01*
X156004285Y-187203809D01*
X156004285Y-187060952D01*
X156051904Y-186870476D01*
X156099523Y-186775238D01*
X156194761Y-186680000D01*
X156337619Y-186632380D01*
X156432857Y-186632380D01*
X156575714Y-186680000D01*
X156623333Y-186727619D01*
X156956666Y-186632380D02*
X157623333Y-186632380D01*
X157194761Y-187632380D01*
%TO.C,LED24*%
X288438549Y-161732380D02*
X287962359Y-161732380D01*
X287962359Y-160732380D01*
X288771883Y-161208571D02*
X289105216Y-161208571D01*
X289248073Y-161732380D02*
X288771883Y-161732380D01*
X288771883Y-160732380D01*
X289248073Y-160732380D01*
X289676645Y-161732380D02*
X289676645Y-160732380D01*
X289914740Y-160732380D01*
X290057597Y-160780000D01*
X290152835Y-160875238D01*
X290200454Y-160970476D01*
X290248073Y-161160952D01*
X290248073Y-161303809D01*
X290200454Y-161494285D01*
X290152835Y-161589523D01*
X290057597Y-161684761D01*
X289914740Y-161732380D01*
X289676645Y-161732380D01*
X290629026Y-160827619D02*
X290676645Y-160780000D01*
X290771883Y-160732380D01*
X291009978Y-160732380D01*
X291105216Y-160780000D01*
X291152835Y-160827619D01*
X291200454Y-160922857D01*
X291200454Y-161018095D01*
X291152835Y-161160952D01*
X290581407Y-161732380D01*
X291200454Y-161732380D01*
X292057597Y-161065714D02*
X292057597Y-161732380D01*
X291819502Y-160684761D02*
X291581407Y-161399047D01*
X292200454Y-161399047D01*
%TO.C,C15*%
X234707142Y-195477142D02*
X234659523Y-195524761D01*
X234516666Y-195572380D01*
X234421428Y-195572380D01*
X234278571Y-195524761D01*
X234183333Y-195429523D01*
X234135714Y-195334285D01*
X234088095Y-195143809D01*
X234088095Y-195000952D01*
X234135714Y-194810476D01*
X234183333Y-194715238D01*
X234278571Y-194620000D01*
X234421428Y-194572380D01*
X234516666Y-194572380D01*
X234659523Y-194620000D01*
X234707142Y-194667619D01*
X235659523Y-195572380D02*
X235088095Y-195572380D01*
X235373809Y-195572380D02*
X235373809Y-194572380D01*
X235278571Y-194715238D01*
X235183333Y-194810476D01*
X235088095Y-194858095D01*
X236564285Y-194572380D02*
X236088095Y-194572380D01*
X236040476Y-195048571D01*
X236088095Y-195000952D01*
X236183333Y-194953333D01*
X236421428Y-194953333D01*
X236516666Y-195000952D01*
X236564285Y-195048571D01*
X236611904Y-195143809D01*
X236611904Y-195381904D01*
X236564285Y-195477142D01*
X236516666Y-195524761D01*
X236421428Y-195572380D01*
X236183333Y-195572380D01*
X236088095Y-195524761D01*
X236040476Y-195477142D01*
%TO.C,C10*%
X142617142Y-146517142D02*
X142569523Y-146564761D01*
X142426666Y-146612380D01*
X142331428Y-146612380D01*
X142188571Y-146564761D01*
X142093333Y-146469523D01*
X142045714Y-146374285D01*
X141998095Y-146183809D01*
X141998095Y-146040952D01*
X142045714Y-145850476D01*
X142093333Y-145755238D01*
X142188571Y-145660000D01*
X142331428Y-145612380D01*
X142426666Y-145612380D01*
X142569523Y-145660000D01*
X142617142Y-145707619D01*
X143569523Y-146612380D02*
X142998095Y-146612380D01*
X143283809Y-146612380D02*
X143283809Y-145612380D01*
X143188571Y-145755238D01*
X143093333Y-145850476D01*
X142998095Y-145898095D01*
X144188571Y-145612380D02*
X144283809Y-145612380D01*
X144379047Y-145660000D01*
X144426666Y-145707619D01*
X144474285Y-145802857D01*
X144521904Y-145993333D01*
X144521904Y-146231428D01*
X144474285Y-146421904D01*
X144426666Y-146517142D01*
X144379047Y-146564761D01*
X144283809Y-146612380D01*
X144188571Y-146612380D01*
X144093333Y-146564761D01*
X144045714Y-146517142D01*
X143998095Y-146421904D01*
X143950476Y-146231428D01*
X143950476Y-145993333D01*
X143998095Y-145802857D01*
X144045714Y-145707619D01*
X144093333Y-145660000D01*
X144188571Y-145612380D01*
%TO.C,C20*%
X173397142Y-81457142D02*
X173349523Y-81504761D01*
X173206666Y-81552380D01*
X173111428Y-81552380D01*
X172968571Y-81504761D01*
X172873333Y-81409523D01*
X172825714Y-81314285D01*
X172778095Y-81123809D01*
X172778095Y-80980952D01*
X172825714Y-80790476D01*
X172873333Y-80695238D01*
X172968571Y-80600000D01*
X173111428Y-80552380D01*
X173206666Y-80552380D01*
X173349523Y-80600000D01*
X173397142Y-80647619D01*
X173778095Y-80647619D02*
X173825714Y-80600000D01*
X173920952Y-80552380D01*
X174159047Y-80552380D01*
X174254285Y-80600000D01*
X174301904Y-80647619D01*
X174349523Y-80742857D01*
X174349523Y-80838095D01*
X174301904Y-80980952D01*
X173730476Y-81552380D01*
X174349523Y-81552380D01*
X174968571Y-80552380D02*
X175063809Y-80552380D01*
X175159047Y-80600000D01*
X175206666Y-80647619D01*
X175254285Y-80742857D01*
X175301904Y-80933333D01*
X175301904Y-81171428D01*
X175254285Y-81361904D01*
X175206666Y-81457142D01*
X175159047Y-81504761D01*
X175063809Y-81552380D01*
X174968571Y-81552380D01*
X174873333Y-81504761D01*
X174825714Y-81457142D01*
X174778095Y-81361904D01*
X174730476Y-81171428D01*
X174730476Y-80933333D01*
X174778095Y-80742857D01*
X174825714Y-80647619D01*
X174873333Y-80600000D01*
X174968571Y-80552380D01*
%TO.C,LED21*%
X282488549Y-117792380D02*
X282012359Y-117792380D01*
X282012359Y-116792380D01*
X282821883Y-117268571D02*
X283155216Y-117268571D01*
X283298073Y-117792380D02*
X282821883Y-117792380D01*
X282821883Y-116792380D01*
X283298073Y-116792380D01*
X283726645Y-117792380D02*
X283726645Y-116792380D01*
X283964740Y-116792380D01*
X284107597Y-116840000D01*
X284202835Y-116935238D01*
X284250454Y-117030476D01*
X284298073Y-117220952D01*
X284298073Y-117363809D01*
X284250454Y-117554285D01*
X284202835Y-117649523D01*
X284107597Y-117744761D01*
X283964740Y-117792380D01*
X283726645Y-117792380D01*
X284679026Y-116887619D02*
X284726645Y-116840000D01*
X284821883Y-116792380D01*
X285059978Y-116792380D01*
X285155216Y-116840000D01*
X285202835Y-116887619D01*
X285250454Y-116982857D01*
X285250454Y-117078095D01*
X285202835Y-117220952D01*
X284631407Y-117792380D01*
X285250454Y-117792380D01*
X286202835Y-117792380D02*
X285631407Y-117792380D01*
X285917121Y-117792380D02*
X285917121Y-116792380D01*
X285821883Y-116935238D01*
X285726645Y-117030476D01*
X285631407Y-117078095D01*
%TO.C,C1*%
X199582742Y-170742966D02*
X199630361Y-170790585D01*
X199677980Y-170933442D01*
X199677980Y-171028680D01*
X199630361Y-171171538D01*
X199535123Y-171266776D01*
X199439885Y-171314395D01*
X199249409Y-171362014D01*
X199106552Y-171362014D01*
X198916076Y-171314395D01*
X198820838Y-171266776D01*
X198725600Y-171171538D01*
X198677980Y-171028680D01*
X198677980Y-170933442D01*
X198725600Y-170790585D01*
X198773219Y-170742966D01*
X199677980Y-169790585D02*
X199677980Y-170362014D01*
X199677980Y-170076300D02*
X198677980Y-170076300D01*
X198820838Y-170171538D01*
X198916076Y-170266776D01*
X198963695Y-170362014D01*
%TO.C,LED14*%
X193884761Y-67212380D02*
X193408571Y-67212380D01*
X193408571Y-66212380D01*
X194218095Y-66688571D02*
X194551428Y-66688571D01*
X194694285Y-67212380D02*
X194218095Y-67212380D01*
X194218095Y-66212380D01*
X194694285Y-66212380D01*
X195122857Y-67212380D02*
X195122857Y-66212380D01*
X195360952Y-66212380D01*
X195503809Y-66260000D01*
X195599047Y-66355238D01*
X195646666Y-66450476D01*
X195694285Y-66640952D01*
X195694285Y-66783809D01*
X195646666Y-66974285D01*
X195599047Y-67069523D01*
X195503809Y-67164761D01*
X195360952Y-67212380D01*
X195122857Y-67212380D01*
X196646666Y-67212380D02*
X196075238Y-67212380D01*
X196360952Y-67212380D02*
X196360952Y-66212380D01*
X196265714Y-66355238D01*
X196170476Y-66450476D01*
X196075238Y-66498095D01*
X197503809Y-66545714D02*
X197503809Y-67212380D01*
X197265714Y-66164761D02*
X197027619Y-66879047D01*
X197646666Y-66879047D01*
%TO.C,LED5*%
X151090952Y-174262380D02*
X150614761Y-174262380D01*
X150614761Y-173262380D01*
X151424285Y-173738571D02*
X151757619Y-173738571D01*
X151900476Y-174262380D02*
X151424285Y-174262380D01*
X151424285Y-173262380D01*
X151900476Y-173262380D01*
X152329047Y-174262380D02*
X152329047Y-173262380D01*
X152567142Y-173262380D01*
X152710000Y-173310000D01*
X152805238Y-173405238D01*
X152852857Y-173500476D01*
X152900476Y-173690952D01*
X152900476Y-173833809D01*
X152852857Y-174024285D01*
X152805238Y-174119523D01*
X152710000Y-174214761D01*
X152567142Y-174262380D01*
X152329047Y-174262380D01*
X153805238Y-173262380D02*
X153329047Y-173262380D01*
X153281428Y-173738571D01*
X153329047Y-173690952D01*
X153424285Y-173643333D01*
X153662380Y-173643333D01*
X153757619Y-173690952D01*
X153805238Y-173738571D01*
X153852857Y-173833809D01*
X153852857Y-174071904D01*
X153805238Y-174167142D01*
X153757619Y-174214761D01*
X153662380Y-174262380D01*
X153424285Y-174262380D01*
X153329047Y-174214761D01*
X153281428Y-174167142D01*
%TO.C,C12*%
X234457142Y-189607142D02*
X234409523Y-189654761D01*
X234266666Y-189702380D01*
X234171428Y-189702380D01*
X234028571Y-189654761D01*
X233933333Y-189559523D01*
X233885714Y-189464285D01*
X233838095Y-189273809D01*
X233838095Y-189130952D01*
X233885714Y-188940476D01*
X233933333Y-188845238D01*
X234028571Y-188750000D01*
X234171428Y-188702380D01*
X234266666Y-188702380D01*
X234409523Y-188750000D01*
X234457142Y-188797619D01*
X235409523Y-189702380D02*
X234838095Y-189702380D01*
X235123809Y-189702380D02*
X235123809Y-188702380D01*
X235028571Y-188845238D01*
X234933333Y-188940476D01*
X234838095Y-188988095D01*
X235790476Y-188797619D02*
X235838095Y-188750000D01*
X235933333Y-188702380D01*
X236171428Y-188702380D01*
X236266666Y-188750000D01*
X236314285Y-188797619D01*
X236361904Y-188892857D01*
X236361904Y-188988095D01*
X236314285Y-189130952D01*
X235742857Y-189702380D01*
X236361904Y-189702380D01*
%TO.C,C33*%
X280967142Y-175057142D02*
X280919523Y-175104761D01*
X280776666Y-175152380D01*
X280681428Y-175152380D01*
X280538571Y-175104761D01*
X280443333Y-175009523D01*
X280395714Y-174914285D01*
X280348095Y-174723809D01*
X280348095Y-174580952D01*
X280395714Y-174390476D01*
X280443333Y-174295238D01*
X280538571Y-174200000D01*
X280681428Y-174152380D01*
X280776666Y-174152380D01*
X280919523Y-174200000D01*
X280967142Y-174247619D01*
X281300476Y-174152380D02*
X281919523Y-174152380D01*
X281586190Y-174533333D01*
X281729047Y-174533333D01*
X281824285Y-174580952D01*
X281871904Y-174628571D01*
X281919523Y-174723809D01*
X281919523Y-174961904D01*
X281871904Y-175057142D01*
X281824285Y-175104761D01*
X281729047Y-175152380D01*
X281443333Y-175152380D01*
X281348095Y-175104761D01*
X281300476Y-175057142D01*
X282252857Y-174152380D02*
X282871904Y-174152380D01*
X282538571Y-174533333D01*
X282681428Y-174533333D01*
X282776666Y-174580952D01*
X282824285Y-174628571D01*
X282871904Y-174723809D01*
X282871904Y-174961904D01*
X282824285Y-175057142D01*
X282776666Y-175104761D01*
X282681428Y-175152380D01*
X282395714Y-175152380D01*
X282300476Y-175104761D01*
X282252857Y-175057142D01*
%TO.C,C17*%
X148657142Y-117417142D02*
X148609523Y-117464761D01*
X148466666Y-117512380D01*
X148371428Y-117512380D01*
X148228571Y-117464761D01*
X148133333Y-117369523D01*
X148085714Y-117274285D01*
X148038095Y-117083809D01*
X148038095Y-116940952D01*
X148085714Y-116750476D01*
X148133333Y-116655238D01*
X148228571Y-116560000D01*
X148371428Y-116512380D01*
X148466666Y-116512380D01*
X148609523Y-116560000D01*
X148657142Y-116607619D01*
X149609523Y-117512380D02*
X149038095Y-117512380D01*
X149323809Y-117512380D02*
X149323809Y-116512380D01*
X149228571Y-116655238D01*
X149133333Y-116750476D01*
X149038095Y-116798095D01*
X149942857Y-116512380D02*
X150609523Y-116512380D01*
X150180952Y-117512380D01*
%TO.C,R7*%
X192913333Y-182072380D02*
X192580000Y-181596190D01*
X192341904Y-182072380D02*
X192341904Y-181072380D01*
X192722857Y-181072380D01*
X192818095Y-181120000D01*
X192865714Y-181167619D01*
X192913333Y-181262857D01*
X192913333Y-181405714D01*
X192865714Y-181500952D01*
X192818095Y-181548571D01*
X192722857Y-181596190D01*
X192341904Y-181596190D01*
X193246666Y-181072380D02*
X193913333Y-181072380D01*
X193484761Y-182072380D01*
%TO.C,C21*%
X194307142Y-78057142D02*
X194259523Y-78104761D01*
X194116666Y-78152380D01*
X194021428Y-78152380D01*
X193878571Y-78104761D01*
X193783333Y-78009523D01*
X193735714Y-77914285D01*
X193688095Y-77723809D01*
X193688095Y-77580952D01*
X193735714Y-77390476D01*
X193783333Y-77295238D01*
X193878571Y-77200000D01*
X194021428Y-77152380D01*
X194116666Y-77152380D01*
X194259523Y-77200000D01*
X194307142Y-77247619D01*
X194688095Y-77247619D02*
X194735714Y-77200000D01*
X194830952Y-77152380D01*
X195069047Y-77152380D01*
X195164285Y-77200000D01*
X195211904Y-77247619D01*
X195259523Y-77342857D01*
X195259523Y-77438095D01*
X195211904Y-77580952D01*
X194640476Y-78152380D01*
X195259523Y-78152380D01*
X196211904Y-78152380D02*
X195640476Y-78152380D01*
X195926190Y-78152380D02*
X195926190Y-77152380D01*
X195830952Y-77295238D01*
X195735714Y-77390476D01*
X195640476Y-77438095D01*
%TO.C,LED25*%
X284474761Y-176222380D02*
X283998571Y-176222380D01*
X283998571Y-175222380D01*
X284808095Y-175698571D02*
X285141428Y-175698571D01*
X285284285Y-176222380D02*
X284808095Y-176222380D01*
X284808095Y-175222380D01*
X285284285Y-175222380D01*
X285712857Y-176222380D02*
X285712857Y-175222380D01*
X285950952Y-175222380D01*
X286093809Y-175270000D01*
X286189047Y-175365238D01*
X286236666Y-175460476D01*
X286284285Y-175650952D01*
X286284285Y-175793809D01*
X286236666Y-175984285D01*
X286189047Y-176079523D01*
X286093809Y-176174761D01*
X285950952Y-176222380D01*
X285712857Y-176222380D01*
X286665238Y-175317619D02*
X286712857Y-175270000D01*
X286808095Y-175222380D01*
X287046190Y-175222380D01*
X287141428Y-175270000D01*
X287189047Y-175317619D01*
X287236666Y-175412857D01*
X287236666Y-175508095D01*
X287189047Y-175650952D01*
X286617619Y-176222380D01*
X287236666Y-176222380D01*
X288141428Y-175222380D02*
X287665238Y-175222380D01*
X287617619Y-175698571D01*
X287665238Y-175650952D01*
X287760476Y-175603333D01*
X287998571Y-175603333D01*
X288093809Y-175650952D01*
X288141428Y-175698571D01*
X288189047Y-175793809D01*
X288189047Y-176031904D01*
X288141428Y-176127142D01*
X288093809Y-176174761D01*
X287998571Y-176222380D01*
X287760476Y-176222380D01*
X287665238Y-176174761D01*
X287617619Y-176127142D01*
D11*
%TO.C,C32*%
X287153733Y-163170000D02*
X287446267Y-163170000D01*
X287153733Y-162150000D02*
X287446267Y-162150000D01*
%TO.C,R1*%
X199592500Y-199714724D02*
X199592500Y-199205276D01*
X198547500Y-199714724D02*
X198547500Y-199205276D01*
%TO.C,R2*%
X214754724Y-207547500D02*
X214245276Y-207547500D01*
X214754724Y-208592500D02*
X214245276Y-208592500D01*
D12*
%TO.C,LED9*%
X147243785Y-124700508D02*
X147513788Y-124700508D01*
X144244039Y-119700508D02*
X145783283Y-119700508D01*
X144244039Y-124700508D02*
X145783283Y-124700508D01*
X147513788Y-124700508D02*
X147513788Y-119700508D01*
X147243785Y-119700508D02*
X147513788Y-119700508D01*
X142513788Y-124700508D02*
X142513788Y-119700508D01*
X142513788Y-124700508D02*
X142783537Y-124700508D01*
X142513788Y-119700508D02*
X142783537Y-119700508D01*
X147506163Y-119306800D02*
X147906213Y-119306800D01*
X147906213Y-119306800D02*
X147906086Y-119706800D01*
X147906086Y-119706800D02*
X147506163Y-119306800D01*
X146513788Y-122200635D02*
G75*
G03*
X146513788Y-122200635I-1500127J0D01*
G01*
D11*
%TO.C,C28*%
X279520000Y-106236267D02*
X279520000Y-105943733D01*
X278500000Y-106236267D02*
X278500000Y-105943733D01*
D13*
%TO.C,F1*%
X217202235Y-211344006D02*
X220758242Y-211344006D01*
X217221996Y-205755994D02*
X220778004Y-205755994D01*
D14*
X216967996Y-211090005D02*
X216967996Y-209784950D01*
X216967996Y-206009995D02*
X216967996Y-207279997D01*
X221032004Y-209820003D02*
X221032004Y-211090005D01*
X221032004Y-207279997D02*
X221032004Y-206009995D01*
D13*
X219000000Y-208550000D02*
G75*
G03*
X219635001Y-208550000I317500J635010D01*
G01*
X219000000Y-208550000D02*
G75*
G03*
X218364998Y-208550000I-317501J0D01*
G01*
D15*
X220649988Y-210825083D02*
G75*
G03*
X220649988Y-210825083I-29973J0D01*
G01*
D11*
%TO.C,C26*%
X259640000Y-84196267D02*
X259640000Y-83903733D01*
X260660000Y-84196267D02*
X260660000Y-83903733D01*
%TO.C,C39*%
X219620000Y-192173733D02*
X219620000Y-192466267D01*
X218600000Y-192173733D02*
X218600000Y-192466267D01*
%TO.C,R4*%
X190935276Y-173352564D02*
X191444724Y-173352564D01*
X190935276Y-172307564D02*
X191444724Y-172307564D01*
%TO.C,C2*%
X186950000Y-198853733D02*
X186950000Y-199146267D01*
X187970000Y-198853733D02*
X187970000Y-199146267D01*
D12*
%TO.C,LED10*%
X148113788Y-105750508D02*
X148383537Y-105750508D01*
X152843785Y-105750508D02*
X153113788Y-105750508D01*
X153506213Y-105356800D02*
X153506086Y-105756800D01*
X152843785Y-110750508D02*
X153113788Y-110750508D01*
X153113788Y-110750508D02*
X153113788Y-105750508D01*
X153106163Y-105356800D02*
X153506213Y-105356800D01*
X148113788Y-110750508D02*
X148113788Y-105750508D01*
X149844039Y-105750508D02*
X151383283Y-105750508D01*
X149844039Y-110750508D02*
X151383283Y-110750508D01*
X153506086Y-105756800D02*
X153106163Y-105356800D01*
X148113788Y-110750508D02*
X148383537Y-110750508D01*
X152113788Y-108250635D02*
G75*
G03*
X152113788Y-108250635I-1500127J0D01*
G01*
D11*
%TO.C,C25*%
X247470000Y-74676267D02*
X247470000Y-74383733D01*
X246450000Y-74676267D02*
X246450000Y-74383733D01*
%TO.C,C23*%
X217510000Y-66983767D02*
X217510000Y-66691233D01*
X218530000Y-66983767D02*
X218530000Y-66691233D01*
D12*
%TO.C,LED28*%
X255830000Y-201649492D02*
X255830000Y-206649492D01*
X255437702Y-206643200D02*
X255837625Y-207043200D01*
X260830000Y-201649492D02*
X260830000Y-206649492D01*
X256100003Y-201649492D02*
X255830000Y-201649492D01*
X256100003Y-206649492D02*
X255830000Y-206649492D01*
X260830000Y-206649492D02*
X260560251Y-206649492D01*
X259099749Y-201649492D02*
X257560505Y-201649492D01*
X260830000Y-201649492D02*
X260560251Y-201649492D01*
X259099749Y-206649492D02*
X257560505Y-206649492D01*
X255437575Y-207043200D02*
X255437702Y-206643200D01*
X255837625Y-207043200D02*
X255437575Y-207043200D01*
X259830254Y-204149365D02*
G75*
G03*
X259830254Y-204149365I-1500127J0D01*
G01*
%TO.C,LED26*%
X277010003Y-180289492D02*
X276740000Y-180289492D01*
X281740000Y-180289492D02*
X281740000Y-185289492D01*
X280009749Y-185289492D02*
X278470505Y-185289492D01*
X276347575Y-185683200D02*
X276347702Y-185283200D01*
X281740000Y-180289492D02*
X281470251Y-180289492D01*
X276747625Y-185683200D02*
X276347575Y-185683200D01*
X281740000Y-185289492D02*
X281470251Y-185289492D01*
X277010003Y-185289492D02*
X276740000Y-185289492D01*
X276740000Y-180289492D02*
X276740000Y-185289492D01*
X276347702Y-185283200D02*
X276747625Y-185683200D01*
X280009749Y-180289492D02*
X278470505Y-180289492D01*
X280740254Y-182789365D02*
G75*
G03*
X280740254Y-182789365I-1500127J0D01*
G01*
D11*
%TO.C,C38*%
X202060000Y-174623733D02*
X202060000Y-174916267D01*
X203080000Y-174623733D02*
X203080000Y-174916267D01*
D12*
%TO.C,LED2*%
X182310000Y-207610508D02*
X182579749Y-207610508D01*
X187302375Y-207216800D02*
X187702425Y-207216800D01*
X187702298Y-207616800D02*
X187302375Y-207216800D01*
X184040251Y-207610508D02*
X185579495Y-207610508D01*
X182310000Y-212610508D02*
X182310000Y-207610508D01*
X187310000Y-212610508D02*
X187310000Y-207610508D01*
X187039997Y-207610508D02*
X187310000Y-207610508D01*
X187702425Y-207216800D02*
X187702298Y-207616800D01*
X184040251Y-212610508D02*
X185579495Y-212610508D01*
X187039997Y-212610508D02*
X187310000Y-212610508D01*
X182310000Y-212610508D02*
X182579749Y-212610508D01*
X186310000Y-210110635D02*
G75*
G03*
X186310000Y-210110635I-1500127J0D01*
G01*
D11*
%TO.C,R6*%
X192765276Y-170567628D02*
X193274724Y-170567628D01*
X192765276Y-171612628D02*
X193274724Y-171612628D01*
%TO.C,C14*%
X227940000Y-200706267D02*
X227940000Y-200413733D01*
X228960000Y-200706267D02*
X228960000Y-200413733D01*
D14*
%TO.C,U4*%
X233578600Y-198673787D02*
X236321400Y-198673787D01*
X236321400Y-205326213D02*
X233578600Y-205326213D01*
X236321400Y-198673787D02*
X236321400Y-205326213D01*
X233578600Y-205326213D02*
X233578600Y-198673787D01*
D12*
%TO.C,LED15*%
X208413791Y-65719492D02*
X208143788Y-65719492D01*
X208151413Y-71113200D02*
X207751363Y-71113200D01*
X213143788Y-65719492D02*
X212874039Y-65719492D01*
X207751363Y-71113200D02*
X207751490Y-70713200D01*
X213143788Y-70719492D02*
X212874039Y-70719492D01*
X207751490Y-70713200D02*
X208151413Y-71113200D01*
X208413791Y-70719492D02*
X208143788Y-70719492D01*
X211413537Y-70719492D02*
X209874293Y-70719492D01*
X211413537Y-65719492D02*
X209874293Y-65719492D01*
X213143788Y-65719492D02*
X213143788Y-70719492D01*
X208143788Y-65719492D02*
X208143788Y-70719492D01*
X212144042Y-68219365D02*
G75*
G03*
X212144042Y-68219365I-1500127J0D01*
G01*
%TO.C,LED20*%
X278903788Y-95579492D02*
X278634039Y-95579492D01*
X274173791Y-100579492D02*
X273903788Y-100579492D01*
X277173537Y-95579492D02*
X275634293Y-95579492D01*
X278903788Y-100579492D02*
X278634039Y-100579492D01*
X273511490Y-100573200D02*
X273911413Y-100973200D01*
X273911413Y-100973200D02*
X273511363Y-100973200D01*
X278903788Y-95579492D02*
X278903788Y-100579492D01*
X273903788Y-95579492D02*
X273903788Y-100579492D01*
X274173791Y-95579492D02*
X273903788Y-95579492D01*
X277173537Y-100579492D02*
X275634293Y-100579492D01*
X273511363Y-100973200D02*
X273511490Y-100573200D01*
X277904042Y-98079365D02*
G75*
G03*
X277904042Y-98079365I-1500127J0D01*
G01*
%TO.C,LED29*%
X242570000Y-208789492D02*
X242570000Y-213789492D01*
X242177575Y-214183200D02*
X242177702Y-213783200D01*
X242177702Y-213783200D02*
X242577625Y-214183200D01*
X247570000Y-208789492D02*
X247570000Y-213789492D01*
X247570000Y-208789492D02*
X247300251Y-208789492D01*
X242840003Y-208789492D02*
X242570000Y-208789492D01*
X242577625Y-214183200D02*
X242177575Y-214183200D01*
X242840003Y-213789492D02*
X242570000Y-213789492D01*
X245839749Y-213789492D02*
X244300505Y-213789492D01*
X247570000Y-213789492D02*
X247300251Y-213789492D01*
X245839749Y-208789492D02*
X244300505Y-208789492D01*
X246570254Y-211289365D02*
G75*
G03*
X246570254Y-211289365I-1500127J0D01*
G01*
%TO.C,LED16*%
X223201413Y-71443200D02*
X222801363Y-71443200D01*
X228193788Y-71049492D02*
X227924039Y-71049492D01*
X226463537Y-71049492D02*
X224924293Y-71049492D01*
X223463791Y-71049492D02*
X223193788Y-71049492D01*
X226463537Y-66049492D02*
X224924293Y-66049492D01*
X223193788Y-66049492D02*
X223193788Y-71049492D01*
X223463791Y-66049492D02*
X223193788Y-66049492D01*
X228193788Y-66049492D02*
X227924039Y-66049492D01*
X222801490Y-71043200D02*
X223201413Y-71443200D01*
X228193788Y-66049492D02*
X228193788Y-71049492D01*
X222801363Y-71443200D02*
X222801490Y-71043200D01*
X227194042Y-68549365D02*
G75*
G03*
X227194042Y-68549365I-1500127J0D01*
G01*
%TO.C,LED4*%
X163199997Y-189790508D02*
X163470000Y-189790508D01*
X163199997Y-194790508D02*
X163470000Y-194790508D01*
X160200251Y-194790508D02*
X161739495Y-194790508D01*
X163470000Y-194790508D02*
X163470000Y-189790508D01*
X163462375Y-189396800D02*
X163862425Y-189396800D01*
X160200251Y-189790508D02*
X161739495Y-189790508D01*
X158470000Y-194790508D02*
X158470000Y-189790508D01*
X163862298Y-189796800D02*
X163462375Y-189396800D01*
X158470000Y-189790508D02*
X158739749Y-189790508D01*
X158470000Y-194790508D02*
X158739749Y-194790508D01*
X163862425Y-189396800D02*
X163862298Y-189796800D01*
X162470000Y-192290635D02*
G75*
G03*
X162470000Y-192290635I-1500127J0D01*
G01*
D11*
%TO.C,C34*%
X273763733Y-188940000D02*
X274056267Y-188940000D01*
X273763733Y-187920000D02*
X274056267Y-187920000D01*
%TO.C,C18*%
X156606267Y-101360000D02*
X156313733Y-101360000D01*
X156606267Y-102380000D02*
X156313733Y-102380000D01*
D16*
%TO.C,U5*%
X228687073Y-186026856D02*
X227287073Y-186026856D01*
X228687073Y-183826856D02*
X227287073Y-183826856D01*
X226893601Y-183832647D02*
G75*
G03*
X226896141Y-183832647I1270J134405D01*
G01*
D15*
X226963628Y-183826932D02*
G75*
G03*
X226963628Y-183826932I-29997J0D01*
G01*
D11*
%TO.C,C30*%
X289843733Y-131540000D02*
X290136267Y-131540000D01*
X289843733Y-132560000D02*
X290136267Y-132560000D01*
%TO.C,C8*%
X150146267Y-173840000D02*
X149853733Y-173840000D01*
X150146267Y-172820000D02*
X149853733Y-172820000D01*
%TO.C,C35*%
X262316233Y-198690000D02*
X262608767Y-198690000D01*
X262316233Y-199710000D02*
X262608767Y-199710000D01*
%TO.C,C19*%
X166846267Y-91600000D02*
X166553733Y-91600000D01*
X166846267Y-90580000D02*
X166553733Y-90580000D01*
D12*
%TO.C,LED6*%
X143533788Y-164040508D02*
X143803537Y-164040508D01*
X148926086Y-164046800D02*
X148526163Y-163646800D01*
X145264039Y-169040508D02*
X146803283Y-169040508D01*
X148263785Y-169040508D02*
X148533788Y-169040508D01*
X143533788Y-169040508D02*
X143533788Y-164040508D01*
X148263785Y-164040508D02*
X148533788Y-164040508D01*
X148533788Y-169040508D02*
X148533788Y-164040508D01*
X145264039Y-164040508D02*
X146803283Y-164040508D01*
X148526163Y-163646800D02*
X148926213Y-163646800D01*
X143533788Y-169040508D02*
X143803537Y-169040508D01*
X148926213Y-163646800D02*
X148926086Y-164046800D01*
X147533788Y-166540635D02*
G75*
G03*
X147533788Y-166540635I-1500127J0D01*
G01*
%TO.C,U6*%
X190389125Y-195365346D02*
X194789125Y-195365346D01*
X194789125Y-200365346D02*
X194789125Y-195365346D01*
X190389125Y-195365346D02*
X190389125Y-200365346D01*
X194789125Y-200365346D02*
X190389125Y-200365346D01*
D17*
X195656181Y-200401541D02*
G75*
G03*
X195656181Y-200401541I-150114J0D01*
G01*
X193958441Y-199490949D02*
G75*
G03*
X193958441Y-199490949I-150114J0D01*
G01*
D15*
X195789023Y-200335247D02*
G75*
G03*
X195789023Y-200335247I-29972J0D01*
G01*
D12*
%TO.C,LED22*%
X286161490Y-127653200D02*
X286561413Y-128053200D01*
X286823791Y-122659492D02*
X286553788Y-122659492D01*
X289823537Y-127659492D02*
X288284293Y-127659492D01*
X291553788Y-122659492D02*
X291284039Y-122659492D01*
X286161363Y-128053200D02*
X286161490Y-127653200D01*
X291553788Y-122659492D02*
X291553788Y-127659492D01*
X286553788Y-122659492D02*
X286553788Y-127659492D01*
X289823537Y-122659492D02*
X288284293Y-122659492D01*
X291553788Y-127659492D02*
X291284039Y-127659492D01*
X286823791Y-127659492D02*
X286553788Y-127659492D01*
X286561413Y-128053200D02*
X286161363Y-128053200D01*
X290554042Y-125159365D02*
G75*
G03*
X290554042Y-125159365I-1500127J0D01*
G01*
D11*
%TO.C,C11*%
X145616267Y-129990000D02*
X145323733Y-129990000D01*
X145616267Y-128970000D02*
X145323733Y-128970000D01*
%TO.C,C22*%
X202500000Y-66226267D02*
X202500000Y-65933733D01*
X203520000Y-66226267D02*
X203520000Y-65933733D01*
%TO.C,C29*%
X286933733Y-118750000D02*
X287226267Y-118750000D01*
X286933733Y-117730000D02*
X287226267Y-117730000D01*
%TO.C,C16*%
X222500000Y-196230000D02*
X220150000Y-196230000D01*
X215680000Y-196230000D02*
X218030000Y-196230000D01*
X216744437Y-203050000D02*
X215680000Y-201985563D01*
X222500000Y-201985563D02*
X222500000Y-196230000D01*
X221435563Y-203050000D02*
X222500000Y-201985563D01*
X215680000Y-201985563D02*
X215680000Y-196230000D01*
X221435563Y-203050000D02*
X220150000Y-203050000D01*
X216744437Y-203050000D02*
X218030000Y-203050000D01*
D12*
%TO.C,LED8*%
X139843788Y-139430508D02*
X139843788Y-134430508D01*
X141574039Y-139430508D02*
X143113283Y-139430508D01*
X139843788Y-139430508D02*
X140113537Y-139430508D01*
X144573785Y-134430508D02*
X144843788Y-134430508D01*
X144573785Y-139430508D02*
X144843788Y-139430508D01*
X145236213Y-134036800D02*
X145236086Y-134436800D01*
X141574039Y-134430508D02*
X143113283Y-134430508D01*
X144836163Y-134036800D02*
X145236213Y-134036800D01*
X144843788Y-139430508D02*
X144843788Y-134430508D01*
X139843788Y-134430508D02*
X140113537Y-134430508D01*
X145236086Y-134436800D02*
X144836163Y-134036800D01*
X143843788Y-136930635D02*
G75*
G03*
X143843788Y-136930635I-1500127J0D01*
G01*
D11*
%TO.C,C37*%
X234830000Y-210973733D02*
X234830000Y-211266267D01*
X235850000Y-210973733D02*
X235850000Y-211266267D01*
%TO.C,C5*%
X177890000Y-206803733D02*
X177890000Y-207096267D01*
X176870000Y-206803733D02*
X176870000Y-207096267D01*
%TO.C,C31*%
X290263733Y-147750000D02*
X290556267Y-147750000D01*
X290263733Y-148770000D02*
X290556267Y-148770000D01*
D12*
%TO.C,SW3*%
X184430013Y-179601230D02*
X184430013Y-179670064D01*
X184430013Y-179670064D02*
X188129987Y-179670064D01*
X188130013Y-179601230D02*
X188130013Y-179670064D01*
X184430013Y-176670064D02*
X184430013Y-176738898D01*
X184430013Y-176670064D02*
X188130013Y-176670064D01*
X188130013Y-176670064D02*
X188130013Y-176738898D01*
X187169002Y-178170064D02*
G75*
G03*
X187169002Y-178170064I-889002J0D01*
G01*
D11*
%TO.C,C24*%
X232870000Y-68806267D02*
X232870000Y-68513733D01*
X231850000Y-68806267D02*
X231850000Y-68513733D01*
D12*
%TO.C,LED13*%
X179403788Y-79380508D02*
X179673537Y-79380508D01*
X181134039Y-74380508D02*
X182673283Y-74380508D01*
X184796086Y-74386800D02*
X184396163Y-73986800D01*
X184403788Y-79380508D02*
X184403788Y-74380508D01*
X181134039Y-79380508D02*
X182673283Y-79380508D01*
X179403788Y-79380508D02*
X179403788Y-74380508D01*
X179403788Y-74380508D02*
X179673537Y-74380508D01*
X184133785Y-79380508D02*
X184403788Y-79380508D01*
X184133785Y-74380508D02*
X184403788Y-74380508D01*
X184396163Y-73986800D02*
X184796213Y-73986800D01*
X184796213Y-73986800D02*
X184796086Y-74386800D01*
X183403788Y-76880635D02*
G75*
G03*
X183403788Y-76880635I-1500127J0D01*
G01*
D11*
%TO.C,C9*%
X145866267Y-158190000D02*
X145573733Y-158190000D01*
X145866267Y-159210000D02*
X145573733Y-159210000D01*
D12*
%TO.C,LED11*%
X158104039Y-98220508D02*
X159643283Y-98220508D01*
X156373788Y-93220508D02*
X156643537Y-93220508D01*
X161103785Y-98220508D02*
X161373788Y-98220508D01*
X156373788Y-98220508D02*
X156643537Y-98220508D01*
X161366163Y-92826800D02*
X161766213Y-92826800D01*
X158104039Y-93220508D02*
X159643283Y-93220508D01*
X156373788Y-98220508D02*
X156373788Y-93220508D01*
X161766213Y-92826800D02*
X161766086Y-93226800D01*
X161103785Y-93220508D02*
X161373788Y-93220508D01*
X161373788Y-98220508D02*
X161373788Y-93220508D01*
X161766086Y-93226800D02*
X161366163Y-92826800D01*
X160373788Y-95720635D02*
G75*
G03*
X160373788Y-95720635I-1500127J0D01*
G01*
D11*
%TO.C,R3*%
X211604724Y-205777500D02*
X211095276Y-205777500D01*
X211604724Y-206822500D02*
X211095276Y-206822500D01*
%TO.C,C36*%
X248260000Y-206463733D02*
X248260000Y-206756267D01*
X249280000Y-206463733D02*
X249280000Y-206756267D01*
%TO.C,R5*%
X190962700Y-185292500D02*
X191472148Y-185292500D01*
X190962700Y-184247500D02*
X191472148Y-184247500D01*
D16*
%TO.C,U2*%
X237039784Y-180474943D02*
X236389797Y-180474943D01*
X237039784Y-185774917D02*
X237039784Y-185124930D01*
X232389797Y-185774917D02*
X231739810Y-185774917D01*
X237039784Y-181124930D02*
X237039784Y-180474943D01*
X231739810Y-185774917D02*
X231739810Y-185124930D01*
X231739810Y-180474943D02*
X231739810Y-181124930D01*
X232389797Y-180474943D02*
X231739810Y-180474943D01*
X236389797Y-185774917D02*
X237039784Y-185774917D01*
D17*
X231941232Y-186124676D02*
G75*
G03*
X231938692Y-186124676I-1270J-161288D01*
G01*
D12*
%TO.C,LED18*%
X254843537Y-80589492D02*
X253304293Y-80589492D01*
X251581413Y-80983200D02*
X251181363Y-80983200D01*
X251181490Y-80583200D02*
X251581413Y-80983200D01*
X254843537Y-75589492D02*
X253304293Y-75589492D01*
X256573788Y-80589492D02*
X256304039Y-80589492D01*
X251573788Y-75589492D02*
X251573788Y-80589492D01*
X256573788Y-75589492D02*
X256304039Y-75589492D01*
X251843791Y-75589492D02*
X251573788Y-75589492D01*
X256573788Y-75589492D02*
X256573788Y-80589492D01*
X251181363Y-80983200D02*
X251181490Y-80583200D01*
X251843791Y-80589492D02*
X251573788Y-80589492D01*
X255574042Y-78089365D02*
G75*
G03*
X255574042Y-78089365I-1500127J0D01*
G01*
%TO.C,LED7*%
X140190000Y-154450508D02*
X140459749Y-154450508D01*
X140190000Y-149450508D02*
X140459749Y-149450508D01*
X144919997Y-154450508D02*
X145190000Y-154450508D01*
X141920251Y-154450508D02*
X143459495Y-154450508D01*
X144919997Y-149450508D02*
X145190000Y-149450508D01*
X145182375Y-149056800D02*
X145582425Y-149056800D01*
X145190000Y-154450508D02*
X145190000Y-149450508D01*
X145582298Y-149456800D02*
X145182375Y-149056800D01*
X140190000Y-154450508D02*
X140190000Y-149450508D01*
X145582425Y-149056800D02*
X145582298Y-149456800D01*
X141920251Y-149450508D02*
X143459495Y-149450508D01*
X144190000Y-151950635D02*
G75*
G03*
X144190000Y-151950635I-1500127J0D01*
G01*
%TO.C,LED30*%
X231379749Y-213119492D02*
X229840505Y-213119492D01*
X227717575Y-218513200D02*
X227717702Y-218113200D01*
X227717702Y-218113200D02*
X228117625Y-218513200D01*
X228380003Y-218119492D02*
X228110000Y-218119492D01*
X228380003Y-213119492D02*
X228110000Y-213119492D01*
X233110000Y-218119492D02*
X232840251Y-218119492D01*
X228117625Y-218513200D02*
X227717575Y-218513200D01*
X231379749Y-218119492D02*
X229840505Y-218119492D01*
X233110000Y-213119492D02*
X232840251Y-213119492D01*
X228110000Y-213119492D02*
X228110000Y-218119492D01*
X233110000Y-213119492D02*
X233110000Y-218119492D01*
X232110254Y-215619365D02*
G75*
G03*
X232110254Y-215619365I-1500127J0D01*
G01*
%TO.C,LED3*%
X174806086Y-199846800D02*
X174406163Y-199446800D01*
X174143785Y-204840508D02*
X174413788Y-204840508D01*
X169413788Y-204840508D02*
X169683537Y-204840508D01*
X174406163Y-199446800D02*
X174806213Y-199446800D01*
X174806213Y-199446800D02*
X174806086Y-199846800D01*
X169413788Y-204840508D02*
X169413788Y-199840508D01*
X171144039Y-204840508D02*
X172683283Y-204840508D01*
X171144039Y-199840508D02*
X172683283Y-199840508D01*
X169413788Y-199840508D02*
X169683537Y-199840508D01*
X174413788Y-204840508D02*
X174413788Y-199840508D01*
X174143785Y-199840508D02*
X174413788Y-199840508D01*
X173413788Y-202340635D02*
G75*
G03*
X173413788Y-202340635I-1500127J0D01*
G01*
D11*
%TO.C,C27*%
X270700000Y-94176267D02*
X270700000Y-93883733D01*
X271720000Y-94176267D02*
X271720000Y-93883733D01*
D12*
%TO.C,LED23*%
X293540000Y-137509492D02*
X293540000Y-142509492D01*
X288810003Y-137509492D02*
X288540000Y-137509492D01*
X288810003Y-142509492D02*
X288540000Y-142509492D01*
X288540000Y-137509492D02*
X288540000Y-142509492D01*
X293540000Y-137509492D02*
X293270251Y-137509492D01*
X291809749Y-142509492D02*
X290270505Y-142509492D01*
X291809749Y-137509492D02*
X290270505Y-137509492D01*
X288547625Y-142903200D02*
X288147575Y-142903200D01*
X288147575Y-142903200D02*
X288147702Y-142503200D01*
X288147702Y-142503200D02*
X288547625Y-142903200D01*
X293540000Y-142509492D02*
X293270251Y-142509492D01*
X292540254Y-140009365D02*
G75*
G03*
X292540254Y-140009365I-1500127J0D01*
G01*
%TO.C,SW1*%
X188090013Y-170650064D02*
X188090013Y-170718898D01*
X184390013Y-170650064D02*
X188090013Y-170650064D01*
X184390013Y-173650064D02*
X188089987Y-173650064D01*
X184390013Y-170650064D02*
X184390013Y-170718898D01*
X184390013Y-173581230D02*
X184390013Y-173650064D01*
X188090013Y-173581230D02*
X188090013Y-173650064D01*
X187129002Y-172150064D02*
G75*
G03*
X187129002Y-172150064I-889002J0D01*
G01*
%TO.C,LED17*%
X242863788Y-69389492D02*
X242863788Y-74389492D01*
X237871413Y-74783200D02*
X237471363Y-74783200D01*
X242863788Y-69389492D02*
X242594039Y-69389492D01*
X237471363Y-74783200D02*
X237471490Y-74383200D01*
X237471490Y-74383200D02*
X237871413Y-74783200D01*
X241133537Y-69389492D02*
X239594293Y-69389492D01*
X242863788Y-74389492D02*
X242594039Y-74389492D01*
X241133537Y-74389492D02*
X239594293Y-74389492D01*
X238133791Y-69389492D02*
X237863788Y-69389492D01*
X238133791Y-74389492D02*
X237863788Y-74389492D01*
X237863788Y-69389492D02*
X237863788Y-74389492D01*
X241864042Y-71889365D02*
G75*
G03*
X241864042Y-71889365I-1500127J0D01*
G01*
D18*
%TO.C,U1*%
X205197900Y-186974850D02*
X205197900Y-187624850D01*
X223197900Y-187624850D02*
X223197900Y-186974850D01*
X205197900Y-187624850D02*
X207647900Y-187624850D01*
X220747900Y-187624850D02*
X223197900Y-187624850D01*
D16*
X204297900Y-169624850D02*
G75*
G03*
X204297900Y-169624850I-100000J0D01*
G01*
D11*
%TO.C,C4*%
X188520000Y-209323733D02*
X188520000Y-209616267D01*
X189540000Y-209323733D02*
X189540000Y-209616267D01*
D12*
%TO.C,LED1*%
X201516163Y-212256800D02*
X201916213Y-212256800D01*
X196523788Y-217650508D02*
X196523788Y-212650508D01*
X201916213Y-212256800D02*
X201916086Y-212656800D01*
X198254039Y-217650508D02*
X199793283Y-217650508D01*
X201916086Y-212656800D02*
X201516163Y-212256800D01*
X201253785Y-217650508D02*
X201523788Y-217650508D01*
X198254039Y-212650508D02*
X199793283Y-212650508D01*
X201523788Y-217650508D02*
X201523788Y-212650508D01*
X196523788Y-217650508D02*
X196793537Y-217650508D01*
X196523788Y-212650508D02*
X196793537Y-212650508D01*
X201253785Y-212650508D02*
X201523788Y-212650508D01*
X200523788Y-215150635D02*
G75*
G03*
X200523788Y-215150635I-1500127J0D01*
G01*
%TO.C,LED12*%
X171862375Y-82246800D02*
X172262425Y-82246800D01*
X166870000Y-82640508D02*
X167139749Y-82640508D01*
X168600251Y-82640508D02*
X170139495Y-82640508D01*
X168600251Y-87640508D02*
X170139495Y-87640508D01*
X172262298Y-82646800D02*
X171862375Y-82246800D01*
X172262425Y-82246800D02*
X172262298Y-82646800D01*
X166870000Y-87640508D02*
X167139749Y-87640508D01*
X171599997Y-87640508D02*
X171870000Y-87640508D01*
X171870000Y-87640508D02*
X171870000Y-82640508D01*
X171599997Y-82640508D02*
X171870000Y-82640508D01*
X166870000Y-87640508D02*
X166870000Y-82640508D01*
X170870000Y-85140635D02*
G75*
G03*
X170870000Y-85140635I-1500127J0D01*
G01*
%TO.C,SW2*%
X184450013Y-182550064D02*
X184450013Y-182618898D01*
X184450013Y-185481230D02*
X184450013Y-185550064D01*
X188150013Y-182550064D02*
X188150013Y-182618898D01*
X188150013Y-185481230D02*
X188150013Y-185550064D01*
X184450013Y-182550064D02*
X188150013Y-182550064D01*
X184450013Y-185550064D02*
X188149987Y-185550064D01*
X187189002Y-184050064D02*
G75*
G03*
X187189002Y-184050064I-889002J0D01*
G01*
D11*
%TO.C,C3*%
X203753788Y-214383733D02*
X203753788Y-214676267D01*
X202733788Y-214383733D02*
X202733788Y-214676267D01*
D12*
%TO.C,LED19*%
X263711413Y-89803200D02*
X263311363Y-89803200D01*
X266973537Y-89409492D02*
X265434293Y-89409492D01*
X266973537Y-84409492D02*
X265434293Y-84409492D01*
X263973791Y-89409492D02*
X263703788Y-89409492D01*
X268703788Y-84409492D02*
X268703788Y-89409492D01*
X268703788Y-84409492D02*
X268434039Y-84409492D01*
X263311363Y-89803200D02*
X263311490Y-89403200D01*
X263703788Y-84409492D02*
X263703788Y-89409492D01*
X263311490Y-89403200D02*
X263711413Y-89803200D01*
X263973791Y-84409492D02*
X263703788Y-84409492D01*
X268703788Y-89409492D02*
X268434039Y-89409492D01*
X267704042Y-86909365D02*
G75*
G03*
X267704042Y-86909365I-1500127J0D01*
G01*
%TO.C,LED27*%
X272380000Y-191999492D02*
X272110251Y-191999492D01*
X272380000Y-196999492D02*
X272110251Y-196999492D01*
X266987702Y-196993200D02*
X267387625Y-197393200D01*
X267650003Y-196999492D02*
X267380000Y-196999492D01*
X270649749Y-196999492D02*
X269110505Y-196999492D01*
X270649749Y-191999492D02*
X269110505Y-191999492D01*
X267387625Y-197393200D02*
X266987575Y-197393200D01*
X266987575Y-197393200D02*
X266987702Y-196993200D01*
X272380000Y-191999492D02*
X272380000Y-196999492D01*
X267380000Y-191999492D02*
X267380000Y-196999492D01*
X267650003Y-191999492D02*
X267380000Y-191999492D01*
X271380254Y-194499365D02*
G75*
G03*
X271380254Y-194499365I-1500127J0D01*
G01*
D11*
%TO.C,C6*%
X165510000Y-196643733D02*
X165510000Y-196936267D01*
X166530000Y-196643733D02*
X166530000Y-196936267D01*
%TO.C,C7*%
X156936267Y-186260000D02*
X156643733Y-186260000D01*
X156936267Y-185240000D02*
X156643733Y-185240000D01*
D12*
%TO.C,LED24*%
X287803791Y-157379492D02*
X287533788Y-157379492D01*
X290803537Y-152379492D02*
X289264293Y-152379492D01*
X287533788Y-152379492D02*
X287533788Y-157379492D01*
X292533788Y-152379492D02*
X292264039Y-152379492D01*
X287141490Y-157373200D02*
X287541413Y-157773200D01*
X292533788Y-157379492D02*
X292264039Y-157379492D01*
X287141363Y-157773200D02*
X287141490Y-157373200D01*
X290803537Y-157379492D02*
X289264293Y-157379492D01*
X292533788Y-152379492D02*
X292533788Y-157379492D01*
X287803791Y-152379492D02*
X287533788Y-152379492D01*
X287541413Y-157773200D02*
X287141363Y-157773200D01*
X291534042Y-154879365D02*
G75*
G03*
X291534042Y-154879365I-1500127J0D01*
G01*
D11*
%TO.C,C15*%
X235203733Y-196040000D02*
X235496267Y-196040000D01*
X235203733Y-197060000D02*
X235496267Y-197060000D01*
%TO.C,C10*%
X143406267Y-145240000D02*
X143113733Y-145240000D01*
X143406267Y-144220000D02*
X143113733Y-144220000D01*
%TO.C,C20*%
X174186267Y-79160000D02*
X173893733Y-79160000D01*
X174186267Y-80180000D02*
X173893733Y-80180000D01*
D12*
%TO.C,LED21*%
X284853537Y-108439492D02*
X283314293Y-108439492D01*
X281853791Y-108439492D02*
X281583788Y-108439492D01*
X286583788Y-108439492D02*
X286583788Y-113439492D01*
X281583788Y-108439492D02*
X281583788Y-113439492D01*
X281591413Y-113833200D02*
X281191363Y-113833200D01*
X281191490Y-113433200D02*
X281591413Y-113833200D01*
X286583788Y-108439492D02*
X286314039Y-108439492D01*
X281191363Y-113833200D02*
X281191490Y-113433200D01*
X286583788Y-113439492D02*
X286314039Y-113439492D01*
X281853791Y-113439492D02*
X281583788Y-113439492D01*
X284853537Y-113439492D02*
X283314293Y-113439492D01*
X285584042Y-110939365D02*
G75*
G03*
X285584042Y-110939365I-1500127J0D01*
G01*
D11*
%TO.C,C1*%
X200145600Y-170722567D02*
X200145600Y-170430033D01*
X201165600Y-170722567D02*
X201165600Y-170430033D01*
D12*
%TO.C,LED14*%
X198706086Y-68736800D02*
X198306163Y-68336800D01*
X193313788Y-73730508D02*
X193583537Y-73730508D01*
X198706213Y-68336800D02*
X198706086Y-68736800D01*
X193313788Y-73730508D02*
X193313788Y-68730508D01*
X195044039Y-73730508D02*
X196583283Y-73730508D01*
X198043785Y-68730508D02*
X198313788Y-68730508D01*
X198313788Y-73730508D02*
X198313788Y-68730508D01*
X198306163Y-68336800D02*
X198706213Y-68336800D01*
X198043785Y-73730508D02*
X198313788Y-73730508D01*
X193313788Y-68730508D02*
X193583537Y-68730508D01*
X195044039Y-68730508D02*
X196583283Y-68730508D01*
X197313788Y-71230635D02*
G75*
G03*
X197313788Y-71230635I-1500127J0D01*
G01*
%TO.C,LED5*%
X149710000Y-177710508D02*
X149979749Y-177710508D01*
X149710000Y-182710508D02*
X149710000Y-177710508D01*
X154439997Y-182710508D02*
X154710000Y-182710508D01*
X155102425Y-177316800D02*
X155102298Y-177716800D01*
X151440251Y-177710508D02*
X152979495Y-177710508D01*
X149710000Y-182710508D02*
X149979749Y-182710508D01*
X155102298Y-177716800D02*
X154702375Y-177316800D01*
X154710000Y-182710508D02*
X154710000Y-177710508D01*
X154439997Y-177710508D02*
X154710000Y-177710508D01*
X154702375Y-177316800D02*
X155102425Y-177316800D01*
X151440251Y-182710508D02*
X152979495Y-182710508D01*
X153710000Y-180210635D02*
G75*
G03*
X153710000Y-180210635I-1500127J0D01*
G01*
D11*
%TO.C,C12*%
X234953733Y-191190000D02*
X235246267Y-191190000D01*
X234953733Y-190170000D02*
X235246267Y-190170000D01*
%TO.C,C33*%
X281463733Y-176640000D02*
X281756267Y-176640000D01*
X281463733Y-175620000D02*
X281756267Y-175620000D01*
%TO.C,C17*%
X149446267Y-116140000D02*
X149153733Y-116140000D01*
X149446267Y-115120000D02*
X149153733Y-115120000D01*
%TO.C,R7*%
X192825276Y-183572500D02*
X193334724Y-183572500D01*
X192825276Y-182527500D02*
X193334724Y-182527500D01*
%TO.C,C21*%
X195096267Y-75760000D02*
X194803733Y-75760000D01*
X195096267Y-76780000D02*
X194803733Y-76780000D01*
D12*
%TO.C,LED25*%
X286839749Y-166869492D02*
X285300505Y-166869492D01*
X286839749Y-171869492D02*
X285300505Y-171869492D01*
X283177702Y-171863200D02*
X283577625Y-172263200D01*
X288570000Y-166869492D02*
X288570000Y-171869492D01*
X288570000Y-166869492D02*
X288300251Y-166869492D01*
X283840003Y-171869492D02*
X283570000Y-171869492D01*
X288570000Y-171869492D02*
X288300251Y-171869492D01*
X283570000Y-166869492D02*
X283570000Y-171869492D01*
X283577625Y-172263200D02*
X283177575Y-172263200D01*
X283177575Y-172263200D02*
X283177702Y-171863200D01*
X283840003Y-166869492D02*
X283570000Y-166869492D01*
X287570254Y-169369365D02*
G75*
G03*
X287570254Y-169369365I-1500127J0D01*
G01*
%TD*%
%LPC*%
D19*
%TO.C,C32*%
X286437500Y-162660000D03*
X288162500Y-162660000D03*
%TD*%
D20*
%TO.C,R1*%
X199070000Y-200372500D03*
X199070000Y-198547500D03*
%TD*%
D21*
%TO.C,R2*%
X215412500Y-208070000D03*
X213587500Y-208070000D03*
%TD*%
D22*
%TO.C,LED9*%
X143513788Y-124700000D03*
X146513534Y-124700000D03*
X143513788Y-119700000D03*
X146513534Y-119700000D03*
%TD*%
D23*
%TO.C,C28*%
X279010000Y-106952500D03*
X279010000Y-105227500D03*
%TD*%
D24*
%TO.C,F1*%
X219000000Y-210403442D03*
X219000000Y-206696558D03*
%TD*%
D23*
%TO.C,C26*%
X260150000Y-84912500D03*
X260150000Y-83187500D03*
%TD*%
D25*
%TO.C,C39*%
X219110000Y-191457500D03*
X219110000Y-193182500D03*
%TD*%
D26*
%TO.C,R4*%
X190277500Y-172830064D03*
X192102500Y-172830064D03*
%TD*%
D25*
%TO.C,C2*%
X187460000Y-198137500D03*
X187460000Y-199862500D03*
%TD*%
D22*
%TO.C,LED10*%
X149113788Y-110750000D03*
X152113534Y-110750000D03*
X149113788Y-105750000D03*
X152113534Y-105750000D03*
%TD*%
D23*
%TO.C,C25*%
X246960000Y-75392500D03*
X246960000Y-73667500D03*
%TD*%
%TO.C,C23*%
X218020000Y-67700000D03*
X218020000Y-65975000D03*
%TD*%
D22*
%TO.C,LED28*%
X259830000Y-201650000D03*
X256830254Y-201650000D03*
X259830000Y-206650000D03*
X256830254Y-206650000D03*
%TD*%
%TO.C,LED26*%
X280740000Y-180290000D03*
X277740254Y-180290000D03*
X280740000Y-185290000D03*
X277740254Y-185290000D03*
%TD*%
D25*
%TO.C,C38*%
X202570000Y-175632500D03*
X202570000Y-173907500D03*
%TD*%
D22*
%TO.C,LED2*%
X183310000Y-212610000D03*
X186309746Y-212610000D03*
X183310000Y-207610000D03*
X186309746Y-207610000D03*
%TD*%
D27*
%TO.C,U3*%
X218470000Y-217110000D03*
D28*
X209829918Y-221290086D03*
D27*
X209829918Y-217110000D03*
D28*
X218470000Y-221290086D03*
D29*
X212399895Y-216367556D03*
X213399895Y-216367556D03*
X214900023Y-216367556D03*
X215900023Y-216367556D03*
D30*
X216550010Y-216367556D03*
X217349857Y-216367556D03*
D29*
X215399895Y-216367556D03*
X214399895Y-216367556D03*
X213900023Y-216367556D03*
X212900023Y-216367556D03*
D30*
X211749908Y-216367556D03*
X210950061Y-216367556D03*
D31*
X211259941Y-217610127D03*
X217039977Y-217610127D03*
%TD*%
D26*
%TO.C,R6*%
X192107500Y-171090128D03*
X193932500Y-171090128D03*
%TD*%
D23*
%TO.C,C14*%
X228450000Y-201422500D03*
X228450000Y-199697500D03*
%TD*%
D32*
%TO.C,U4*%
X232115100Y-199700025D03*
X232115100Y-202000000D03*
X232115100Y-204299975D03*
D33*
X237784900Y-202000000D03*
%TD*%
D22*
%TO.C,LED15*%
X212143788Y-65720000D03*
X209144042Y-65720000D03*
X212143788Y-70720000D03*
X209144042Y-70720000D03*
%TD*%
%TO.C,LED20*%
X277903788Y-95580000D03*
X274904042Y-95580000D03*
X277903788Y-100580000D03*
X274904042Y-100580000D03*
%TD*%
%TO.C,LED29*%
X246570000Y-208790000D03*
X243570254Y-208790000D03*
X246570000Y-213790000D03*
X243570254Y-213790000D03*
%TD*%
%TO.C,LED16*%
X227193788Y-66050000D03*
X224194042Y-66050000D03*
X227193788Y-71050000D03*
X224194042Y-71050000D03*
%TD*%
%TO.C,LED4*%
X159470000Y-194790000D03*
X162469746Y-194790000D03*
X159470000Y-189790000D03*
X162469746Y-189790000D03*
%TD*%
D19*
%TO.C,C34*%
X273047500Y-188430000D03*
X274772500Y-188430000D03*
%TD*%
D34*
%TO.C,C18*%
X157322500Y-101870000D03*
X155597500Y-101870000D03*
%TD*%
D35*
%TO.C,U5*%
X227037111Y-184276869D03*
X227037111Y-184926856D03*
X227037111Y-185576843D03*
X228937035Y-185576843D03*
X228937035Y-184926856D03*
X228937035Y-184276869D03*
%TD*%
D19*
%TO.C,C30*%
X289127500Y-132050000D03*
X290852500Y-132050000D03*
%TD*%
D34*
%TO.C,C8*%
X150862500Y-173330000D03*
X149137500Y-173330000D03*
%TD*%
D19*
%TO.C,C35*%
X261600000Y-199200000D03*
X263325000Y-199200000D03*
%TD*%
D34*
%TO.C,C19*%
X167562500Y-91090000D03*
X165837500Y-91090000D03*
%TD*%
D22*
%TO.C,LED6*%
X144533788Y-169040000D03*
X147533534Y-169040000D03*
X144533788Y-164040000D03*
X147533534Y-164040000D03*
%TD*%
D36*
%TO.C,U6*%
X195514195Y-199815308D03*
X195514195Y-199165321D03*
X195514195Y-198515333D03*
X195514195Y-197865346D03*
X195514195Y-197215359D03*
X195514195Y-196565371D03*
X195514195Y-195915384D03*
X189664055Y-195915384D03*
X189664055Y-196565371D03*
X189664055Y-197215359D03*
X189664055Y-197865346D03*
X189664055Y-198515333D03*
X189664055Y-199165321D03*
X189664055Y-199815308D03*
%TD*%
D22*
%TO.C,LED22*%
X290553788Y-122660000D03*
X287554042Y-122660000D03*
X290553788Y-127660000D03*
X287554042Y-127660000D03*
%TD*%
D34*
%TO.C,C11*%
X146332500Y-129480000D03*
X144607500Y-129480000D03*
%TD*%
D23*
%TO.C,C22*%
X203010000Y-66942500D03*
X203010000Y-65217500D03*
%TD*%
D19*
%TO.C,C29*%
X286217500Y-118240000D03*
X287942500Y-118240000D03*
%TD*%
D37*
%TO.C,C16*%
X219090000Y-202177500D03*
X219090000Y-197102500D03*
%TD*%
D22*
%TO.C,LED8*%
X140843788Y-139430000D03*
X143843534Y-139430000D03*
X140843788Y-134430000D03*
X143843534Y-134430000D03*
%TD*%
D25*
%TO.C,C37*%
X235340000Y-210257500D03*
X235340000Y-211982500D03*
%TD*%
%TO.C,C5*%
X177380000Y-206087500D03*
X177380000Y-207812500D03*
%TD*%
D19*
%TO.C,C31*%
X289547500Y-148260000D03*
X291272500Y-148260000D03*
%TD*%
D38*
%TO.C,SW3*%
X184380076Y-177420000D03*
X188179924Y-177420000D03*
X188179924Y-178920128D03*
X184380076Y-178920128D03*
%TD*%
D23*
%TO.C,C24*%
X232360000Y-69522500D03*
X232360000Y-67797500D03*
%TD*%
D22*
%TO.C,LED13*%
X180403788Y-79380000D03*
X183403534Y-79380000D03*
X180403788Y-74380000D03*
X183403534Y-74380000D03*
%TD*%
D34*
%TO.C,C9*%
X146582500Y-158700000D03*
X144857500Y-158700000D03*
%TD*%
D22*
%TO.C,LED11*%
X157373788Y-98220000D03*
X160373534Y-98220000D03*
X157373788Y-93220000D03*
X160373534Y-93220000D03*
%TD*%
D21*
%TO.C,R3*%
X212262500Y-206300000D03*
X210437500Y-206300000D03*
%TD*%
D25*
%TO.C,C36*%
X248770000Y-205747500D03*
X248770000Y-207472500D03*
%TD*%
D26*
%TO.C,R5*%
X190304924Y-184770000D03*
X192129924Y-184770000D03*
%TD*%
D39*
%TO.C,U2*%
X232888730Y-185624879D03*
X233389111Y-185624879D03*
X233889492Y-185624879D03*
X234389873Y-185624879D03*
X234890254Y-185624879D03*
X235390635Y-185624879D03*
X235891016Y-185624879D03*
D40*
X236890000Y-184626149D03*
X236890000Y-184125768D03*
X236890000Y-183625387D03*
X236890000Y-183125006D03*
X236890000Y-182624625D03*
X236890000Y-182124244D03*
X236890000Y-181623863D03*
D39*
X235891016Y-180624879D03*
X235390635Y-180624879D03*
X234890254Y-180624879D03*
X234389873Y-180624879D03*
X233889492Y-180624879D03*
X233389111Y-180624879D03*
X232888730Y-180624879D03*
D40*
X231890000Y-181623863D03*
X231890000Y-182124244D03*
X231890000Y-182624625D03*
X231890000Y-183125006D03*
X231890000Y-183625387D03*
X231890000Y-184125768D03*
X231890000Y-184626149D03*
D41*
X234389873Y-183125006D03*
%TD*%
D22*
%TO.C,LED18*%
X255573788Y-75590000D03*
X252574042Y-75590000D03*
X255573788Y-80590000D03*
X252574042Y-80590000D03*
%TD*%
%TO.C,LED7*%
X141190000Y-154450000D03*
X144189746Y-154450000D03*
X141190000Y-149450000D03*
X144189746Y-149450000D03*
%TD*%
%TO.C,LED30*%
X232110000Y-213120000D03*
X229110254Y-213120000D03*
X232110000Y-218120000D03*
X229110254Y-218120000D03*
%TD*%
%TO.C,LED3*%
X170413788Y-204840000D03*
X173413534Y-204840000D03*
X170413788Y-199840000D03*
X173413534Y-199840000D03*
%TD*%
D23*
%TO.C,C27*%
X271210000Y-94892500D03*
X271210000Y-93167500D03*
%TD*%
D22*
%TO.C,LED23*%
X292540000Y-137510000D03*
X289540254Y-137510000D03*
X292540000Y-142510000D03*
X289540254Y-142510000D03*
%TD*%
D38*
%TO.C,SW1*%
X184340076Y-171400000D03*
X188139924Y-171400000D03*
X184340076Y-172900128D03*
X188139924Y-172900128D03*
%TD*%
D22*
%TO.C,LED17*%
X241863788Y-69390000D03*
X238864042Y-69390000D03*
X241863788Y-74390000D03*
X238864042Y-74390000D03*
%TD*%
D42*
%TO.C,U1*%
X205697900Y-169614850D03*
X205697900Y-170884850D03*
X205697900Y-172154850D03*
X205697900Y-173424850D03*
X205697900Y-174694850D03*
X205697900Y-175964850D03*
X205697900Y-177234850D03*
X205697900Y-178504850D03*
X205697900Y-179774850D03*
X205697900Y-181044850D03*
X205697900Y-182314850D03*
X205697900Y-183584850D03*
X205697900Y-184854850D03*
X205697900Y-186124850D03*
D43*
X208482900Y-187124850D03*
X209752900Y-187124850D03*
X211022900Y-187124850D03*
X212292900Y-187124850D03*
X213562900Y-187124850D03*
X214832900Y-187124850D03*
X216102900Y-187124850D03*
X217372900Y-187124850D03*
X218642900Y-187124850D03*
X219912900Y-187124850D03*
D42*
X222697900Y-186124850D03*
X222697900Y-184854850D03*
X222697900Y-183584850D03*
X222697900Y-182314850D03*
X222697900Y-181044850D03*
X222697900Y-179774850D03*
X222697900Y-178504850D03*
X222697900Y-177234850D03*
X222697900Y-175964850D03*
X222697900Y-174694850D03*
X222697900Y-173424850D03*
X222697900Y-172154850D03*
X222697900Y-170884850D03*
X222697900Y-169614850D03*
D44*
X213197900Y-175279850D03*
X211362900Y-178949850D03*
X215032900Y-178949850D03*
X211362900Y-175279850D03*
X211362900Y-177114850D03*
X215032900Y-177114850D03*
X213197900Y-177114850D03*
X213197900Y-178949850D03*
X215032900Y-175279850D03*
%TD*%
D25*
%TO.C,C4*%
X189030000Y-208607500D03*
X189030000Y-210332500D03*
%TD*%
D22*
%TO.C,LED1*%
X197523788Y-217650000D03*
X200523534Y-217650000D03*
X197523788Y-212650000D03*
X200523534Y-212650000D03*
%TD*%
%TO.C,LED12*%
X167870000Y-87640000D03*
X170869746Y-87640000D03*
X167870000Y-82640000D03*
X170869746Y-82640000D03*
%TD*%
D38*
%TO.C,SW2*%
X184400076Y-183300000D03*
X188199924Y-183300000D03*
X188199924Y-184800128D03*
X184400076Y-184800128D03*
%TD*%
D25*
%TO.C,C3*%
X203243788Y-213667500D03*
X203243788Y-215392500D03*
%TD*%
D22*
%TO.C,LED19*%
X267703788Y-84410000D03*
X264704042Y-84410000D03*
X267703788Y-89410000D03*
X264704042Y-89410000D03*
%TD*%
%TO.C,LED27*%
X271380000Y-192000000D03*
X268380254Y-192000000D03*
X271380000Y-197000000D03*
X268380254Y-197000000D03*
%TD*%
D25*
%TO.C,C6*%
X166020000Y-195927500D03*
X166020000Y-197652500D03*
%TD*%
D34*
%TO.C,C7*%
X157652500Y-185750000D03*
X155927500Y-185750000D03*
%TD*%
D22*
%TO.C,LED24*%
X291533788Y-152380000D03*
X288534042Y-152380000D03*
X291533788Y-157380000D03*
X288534042Y-157380000D03*
%TD*%
D19*
%TO.C,C15*%
X236212500Y-196550000D03*
X234487500Y-196550000D03*
%TD*%
D34*
%TO.C,C10*%
X144122500Y-144730000D03*
X142397500Y-144730000D03*
%TD*%
%TO.C,C20*%
X174902500Y-79670000D03*
X173177500Y-79670000D03*
%TD*%
D22*
%TO.C,LED21*%
X285583788Y-108440000D03*
X282584042Y-108440000D03*
X285583788Y-113440000D03*
X282584042Y-113440000D03*
%TD*%
D23*
%TO.C,C1*%
X200655600Y-171438800D03*
X200655600Y-169713800D03*
%TD*%
D22*
%TO.C,LED14*%
X194313788Y-73730000D03*
X197313534Y-73730000D03*
X194313788Y-68730000D03*
X197313534Y-68730000D03*
%TD*%
%TO.C,LED5*%
X150710000Y-182710000D03*
X153709746Y-182710000D03*
X150710000Y-177710000D03*
X153709746Y-177710000D03*
%TD*%
D19*
%TO.C,C12*%
X234237500Y-190680000D03*
X235962500Y-190680000D03*
%TD*%
%TO.C,C33*%
X280747500Y-176130000D03*
X282472500Y-176130000D03*
%TD*%
D34*
%TO.C,C17*%
X150162500Y-115630000D03*
X148437500Y-115630000D03*
%TD*%
D26*
%TO.C,R7*%
X192167500Y-183050000D03*
X193992500Y-183050000D03*
%TD*%
D34*
%TO.C,C21*%
X195812500Y-76270000D03*
X194087500Y-76270000D03*
%TD*%
D22*
%TO.C,LED25*%
X287570000Y-166870000D03*
X284570254Y-166870000D03*
X287570000Y-171870000D03*
X284570254Y-171870000D03*
%TD*%
M02*
